<svg width="30" height="10" viewBox="0 0 30 10" fill="none" xmlns="http://www.w3.org/2000/svg">
<path fill-rule="evenodd" clip-rule="evenodd" d="M21.19 6.44C21.1961 4.91525 19.9386 4.25669 18.9627 3.74562C18.3449 3.42208 17.84 3.15765 17.84 2.77C17.84 2.44 18.16 2.09 18.84 2C19.6493 1.91993 20.4651 2.06166 21.2 2.41L21.62 0.41C20.9036 0.141358 20.1451 0.00252117 19.38 0C17.02 0 15.38 1.26 15.38 3.06C15.38 4.39 16.57 5.13 17.47 5.57C18.37 6.01 18.72 6.32 18.71 6.72C18.71 7.34 17.97 7.62 17.28 7.63C16.4289 7.64096 15.589 7.43444 14.84 7.03L14.41 9.03C15.2575 9.36084 16.1603 9.52714 17.07 9.52C19.58 9.52 21.23 8.28 21.24 6.36L21.19 6.44ZM14.7 0.16L12.7 9.41H10.3L12.3 0.16H14.7ZM24.76 6.16L26.02 2.69L26.75 6.16H24.76ZM29.65 9.44H27.43L27.14 8.06H24.13L23.64 9.44H21.12L24.71 0.87C24.8755 0.462254 25.27 0.194025 25.71 0.19H27.71L29.65 9.44ZM7.45 9.38L11.33 0.13H8.73L6.24 6.42L5.24 1.07C5.15148 0.526349 4.68081 0.127759 4.13 0.13H0.06L0 0.4C0.816338 0.559719 1.60927 0.821788 2.36 1.18C2.67976 1.33034 2.89644 1.63826 2.93 1.99L4.84 9.38H7.45Z" fill="#2A2A6C"/>
</svg>
