<svg width="40" height="40" viewBox="0 0 40 40" fill="none" xmlns="http://www.w3.org/2000/svg">
<path d="M27.2915 25.547C29.3051 25.547 30.9374 23.9146 30.9374 21.9009C30.9374 19.8873 29.3051 18.2549 27.2915 18.2549C25.2779 18.2549 23.6455 19.8873 23.6455 21.9009C23.6455 23.9146 25.2779 25.547 27.2915 25.547Z" fill="#DF91B5"/>
<path d="M27.2912 10.9636H20V18.255H27.2912C29.3047 18.255 30.9372 16.6225 30.9372 14.6089C30.9372 12.5954 29.3047 10.9629 27.2912 10.9629V10.9636Z" fill="#9291E0"/>
<path d="M20.0004 25.547C22.014 25.547 23.6464 23.9146 23.6464 21.9009C23.6464 19.8873 22.014 18.2549 20.0004 18.2549C17.9868 18.2549 16.3545 19.8873 16.3545 21.9009C16.3545 23.9146 17.9868 25.547 20.0004 25.547Z" fill="#383767"/>
<path d="M16.3544 14.6089C16.3544 12.5954 14.722 10.9629 12.7084 10.9629C10.6949 10.9629 9.0625 12.5954 9.0625 14.6089C9.0625 14.6925 9.06979 14.7746 9.07509 14.8568H9.0625V21.9004H16.3537V14.8568H16.3411C16.3464 14.7746 16.3537 14.6925 16.3537 14.6089H16.3544Z" fill="#808285"/>
<path d="M20.0004 18.255C22.014 18.255 23.6464 16.6226 23.6464 14.6089C23.6464 12.5953 22.014 10.9629 20.0004 10.9629C17.9868 10.9629 16.3545 12.5953 16.3545 14.6089C16.3545 16.6226 17.9868 18.255 20.0004 18.255Z" fill="#383767"/>
<path d="M12.7094 25.547C14.723 25.547 16.3554 23.9146 16.3554 21.9009C16.3554 19.8873 14.723 18.2549 12.7094 18.2549C10.6958 18.2549 9.06348 19.8873 9.06348 21.9009C9.06348 23.9146 10.6958 25.547 12.7094 25.547Z" fill="#9291E0"/>
<path d="M20.0006 3.67188H12.7094C10.6959 3.67188 9.06348 5.30435 9.06348 7.31793C9.06348 9.33152 10.6959 10.964 12.7094 10.964H20.0006C22.0142 10.964 23.6466 9.33152 23.6466 7.31793C23.6466 5.30435 22.0142 3.67188 20.0006 3.67188Z" fill="#383767"/>
<path d="M27.2915 3.67188C25.2779 3.67188 23.6455 5.30435 23.6455 7.31793C23.6455 9.33152 25.2779 10.964 27.2915 10.964C29.305 10.964 30.9374 9.33152 30.9374 7.31793C30.9374 5.30435 29.305 3.67188 27.2915 3.67188ZM27.2915 9.86772C25.883 9.86772 24.7411 8.72572 24.7411 7.31727C24.7411 5.90882 25.883 4.76682 27.2915 4.76682C28.6999 4.76682 29.8418 5.90882 29.8418 7.31727C29.8418 8.72572 28.6999 9.86772 27.2915 9.86772Z" fill="#383767"/>
<path d="M2.03007 30.2679H3.38251C3.75596 30.2679 4.05906 29.9648 4.05906 29.59C4.05906 29.2158 3.75662 28.9121 3.38251 28.9121H2.03007C1.65662 28.9121 1.35352 29.2151 1.35352 29.59C1.35352 29.9642 1.65596 30.2679 2.03007 30.2679Z" fill="#9291E0"/>
<path d="M1.35352 30.9464V32.3015C1.35352 32.6757 1.65596 32.9794 2.03007 32.9794C2.40352 32.9794 2.70662 32.6764 2.70662 32.3015V30.9464C2.70662 30.5722 2.40417 30.2686 2.03007 30.2686C1.65662 30.2686 1.35352 30.5716 1.35352 30.9464Z" fill="#383767"/>
<path d="M0.145304 35.9135C0.10191 35.9135 0.0670633 35.9016 0.0401065 35.8779C0.0131497 35.8542 0 35.8186 0 35.7712V34.8726C0 34.8351 0.0124922 34.8041 0.0368191 34.7791C0.061146 34.7547 0.0927052 34.7422 0.130182 34.7422H0.618692C0.640389 34.7422 0.656169 34.7494 0.666031 34.7626C0.675893 34.7758 0.680496 34.7923 0.680496 34.81C0.680496 34.8259 0.674578 34.8397 0.662744 34.8515C0.650909 34.8634 0.635787 34.8693 0.618035 34.8693H0.246556C0.177521 34.8693 0.143331 34.9042 0.143331 34.9734V35.1539C0.143331 35.2231 0.177521 35.258 0.246556 35.258H0.577928C0.61935 35.258 0.639732 35.2784 0.639732 35.3199C0.639732 35.3575 0.61935 35.3759 0.577928 35.3759H0.246556C0.177521 35.3759 0.143331 35.4108 0.143331 35.4794V35.6809C0.143331 35.7501 0.177521 35.7844 0.246556 35.7844H0.634472C0.658141 35.7844 0.674578 35.7916 0.683126 35.8048C0.69233 35.8186 0.696275 35.8338 0.696275 35.8496C0.696275 35.8634 0.691673 35.8773 0.681811 35.8911C0.671948 35.9049 0.656169 35.9115 0.634472 35.9115H0.145304V35.9135Z" fill="#707072"/>
<path d="M1.14292 35.9431C1.12319 35.9431 1.10675 35.9365 1.09426 35.9239C1.08177 35.9108 1.0752 35.895 1.0752 35.8752V35.1341C1.0752 35.1123 1.08177 35.0959 1.09558 35.0853C1.10938 35.0741 1.12516 35.0689 1.14292 35.0689C1.1587 35.0689 1.17316 35.0741 1.18697 35.0853C1.20077 35.0965 1.20735 35.1123 1.20735 35.1341V35.196C1.24088 35.1486 1.28362 35.113 1.33622 35.0893C1.38882 35.0656 1.44207 35.0537 1.4973 35.0537C1.56239 35.0537 1.62091 35.0695 1.67351 35.1011C1.7261 35.1328 1.76555 35.1815 1.79317 35.2467C1.83064 35.1716 1.88061 35.1209 1.94242 35.0939C2.00422 35.0669 2.06339 35.0537 2.11862 35.0537C2.21133 35.0537 2.28957 35.0866 2.354 35.1519C2.41843 35.2171 2.44999 35.3199 2.44999 35.4602V35.8752C2.44999 35.895 2.44408 35.9114 2.43224 35.9239C2.42041 35.9365 2.40463 35.9431 2.3849 35.9431C2.36518 35.9431 2.34874 35.9365 2.33625 35.9239C2.32376 35.9114 2.31718 35.895 2.31718 35.8752V35.4694C2.31718 35.3686 2.29812 35.2955 2.25932 35.25C2.22119 35.2046 2.16793 35.1815 2.10087 35.1815C2.03381 35.1815 1.98055 35.198 1.9411 35.2303C1.90165 35.2632 1.87272 35.3027 1.85563 35.3502C1.83788 35.3976 1.82867 35.4463 1.82867 35.4951V35.8745C1.82867 35.8943 1.82275 35.9108 1.81092 35.9233C1.79909 35.9358 1.78331 35.9424 1.76358 35.9424C1.74386 35.9424 1.72742 35.9358 1.71493 35.9233C1.70178 35.9101 1.69586 35.8943 1.69586 35.8745V35.4714C1.69586 35.3706 1.67679 35.2968 1.638 35.2507C1.59921 35.2046 1.54661 35.1809 1.47955 35.1809C1.41248 35.1809 1.35923 35.1973 1.31978 35.2296C1.28033 35.2625 1.2514 35.3027 1.23365 35.3515C1.2159 35.4002 1.20669 35.4477 1.20669 35.4951V35.8745C1.20669 35.8943 1.20077 35.9108 1.18894 35.9233C1.17711 35.9358 1.16133 35.9424 1.1416 35.9424L1.14292 35.9431Z" fill="#707072"/>
<path d="M3.29758 35.9431C3.23446 35.9431 3.1766 35.9305 3.12466 35.9062C3.07206 35.8818 3.02867 35.8475 2.99316 35.8041V36.2606C2.99316 36.2803 2.98725 36.2968 2.97541 36.3093C2.96358 36.3225 2.9478 36.3284 2.92807 36.3284C2.90835 36.3284 2.89191 36.3218 2.87942 36.3093C2.86693 36.2962 2.86035 36.2803 2.86035 36.2606V35.1341C2.86035 35.1123 2.86693 35.0959 2.88073 35.0853C2.89454 35.0741 2.91032 35.0689 2.92807 35.0689C2.94385 35.0689 2.95832 35.0741 2.97212 35.0853C2.98593 35.0965 2.99251 35.1123 2.99251 35.1341V35.1874C3.06943 35.0985 3.17134 35.0537 3.29758 35.0537C3.42382 35.0537 3.52047 35.0946 3.59936 35.1769C3.67826 35.2586 3.71771 35.364 3.71771 35.4925C3.71771 35.6209 3.67826 35.7329 3.59936 35.8172C3.52047 35.9016 3.41987 35.9431 3.29758 35.9431ZM3.29758 35.8212C3.38239 35.8212 3.45077 35.7896 3.50337 35.7263C3.55531 35.6631 3.58161 35.5847 3.58161 35.4918C3.58161 35.3989 3.55531 35.3278 3.50337 35.2665C3.45077 35.2052 3.38239 35.1743 3.29758 35.1743C3.20685 35.1743 3.13321 35.2013 3.07732 35.2546C3.02078 35.308 2.99316 35.387 2.99316 35.4918C2.99316 35.5965 3.02144 35.6828 3.07732 35.7382C3.13321 35.7935 3.20685 35.8212 3.29758 35.8212Z" fill="#707072"/>
<path d="M4.51631 35.9431C4.43347 35.9431 4.35917 35.9233 4.29408 35.8838C4.22899 35.8442 4.17705 35.7902 4.13891 35.7224C4.10012 35.6539 4.08105 35.5774 4.08105 35.4925C4.08105 35.4075 4.10012 35.3324 4.13891 35.2672C4.17705 35.2019 4.22899 35.1499 4.29408 35.1117C4.35917 35.0728 4.43347 35.0537 4.51631 35.0537C4.59915 35.0537 4.67345 35.0728 4.73985 35.1117C4.8056 35.1505 4.8582 35.2019 4.89699 35.2672C4.93578 35.3324 4.95485 35.4075 4.95485 35.4925C4.95485 35.5774 4.93578 35.6539 4.89699 35.7224C4.85886 35.7909 4.80626 35.8442 4.73985 35.8838C4.67411 35.9233 4.59915 35.9431 4.51631 35.9431ZM4.51631 35.8212C4.60901 35.8212 4.68331 35.7896 4.73854 35.7263C4.79377 35.6631 4.82138 35.5847 4.82138 35.4918C4.82138 35.3989 4.79377 35.3278 4.73854 35.2665C4.68331 35.2052 4.60901 35.1743 4.51631 35.1743C4.4236 35.1743 4.35325 35.2052 4.29868 35.2665C4.24411 35.3278 4.21715 35.4029 4.21715 35.4918C4.21715 35.5807 4.24411 35.6631 4.29868 35.7263C4.35325 35.7896 4.42558 35.8212 4.51631 35.8212Z" fill="#707072"/>
<path d="M5.55542 35.9427C5.49625 35.9427 5.45746 35.9131 5.4397 35.8538L5.21747 35.145C5.2155 35.139 5.21484 35.1305 5.21484 35.118C5.21484 35.1002 5.22142 35.085 5.23391 35.0718C5.24706 35.0593 5.26284 35.0527 5.28256 35.0527C5.3161 35.0527 5.33648 35.0679 5.34437 35.0975L5.52452 35.7352C5.53044 35.755 5.5403 35.7649 5.55411 35.7649C5.56791 35.7649 5.57777 35.755 5.58369 35.7352L5.74346 35.1746C5.74741 35.1588 5.75793 35.1456 5.77568 35.1344C5.79343 35.1239 5.81315 35.118 5.83485 35.118C5.85655 35.118 5.87627 35.1232 5.89402 35.1344C5.91178 35.1456 5.9223 35.1588 5.9269 35.1746L6.08667 35.7352C6.09258 35.755 6.10245 35.7649 6.11625 35.7649C6.13006 35.7649 6.13992 35.755 6.14584 35.7352L6.32665 35.1008C6.33454 35.0692 6.35624 35.0534 6.39174 35.0534C6.40949 35.0534 6.42461 35.0587 6.43776 35.0699C6.45026 35.0811 6.45683 35.0962 6.45683 35.116C6.45683 35.1259 6.45552 35.1338 6.45354 35.1397L6.23197 35.8545C6.21422 35.9137 6.17543 35.9434 6.11625 35.9434C6.05708 35.9434 6.01632 35.9137 6.00054 35.8545L5.85852 35.3386C5.85457 35.3228 5.84669 35.3149 5.83485 35.3149C5.82499 35.3149 5.8171 35.3228 5.81118 35.3386L5.66916 35.8545C5.65339 35.9137 5.61459 35.9434 5.55345 35.9434L5.55542 35.9427Z" fill="#707072"/>
<path d="M7.20368 35.9431C7.06561 35.9431 6.95515 35.9022 6.87231 35.8199C6.78947 35.7382 6.74805 35.6249 6.74805 35.4806C6.74805 35.4015 6.7658 35.3297 6.8013 35.2658C6.83681 35.2013 6.88678 35.1499 6.95055 35.1117C7.01433 35.0735 7.08994 35.0537 7.17673 35.0537C7.26351 35.0537 7.34241 35.0728 7.40159 35.1117C7.46076 35.1505 7.50481 35.198 7.53308 35.254C7.56135 35.31 7.57582 35.366 7.57582 35.4213C7.57582 35.4549 7.56859 35.4826 7.55346 35.5043C7.539 35.5261 7.5173 35.5372 7.48969 35.5372H6.92162C6.90979 35.5372 6.90124 35.5386 6.89664 35.5399C6.89204 35.5419 6.88941 35.5484 6.88941 35.5603C6.88941 35.5939 6.90058 35.6308 6.92228 35.6703C6.94398 35.7098 6.97488 35.7441 7.01564 35.7724C7.05575 35.8014 7.10309 35.8172 7.15634 35.8212C7.21355 35.8251 7.27009 35.8192 7.32532 35.8034C7.38055 35.7876 7.42986 35.7632 7.47325 35.729C7.48311 35.721 7.49363 35.7171 7.50613 35.7171C7.51993 35.7171 7.53308 35.723 7.54623 35.7349C7.55872 35.7467 7.5653 35.7619 7.5653 35.779C7.5653 35.7961 7.55675 35.8146 7.539 35.8324C7.49166 35.8699 7.4384 35.8976 7.37923 35.9154C7.32006 35.9332 7.26154 35.9424 7.20434 35.9424L7.20368 35.9431ZM7.39041 35.4332C7.40619 35.4332 7.41802 35.4266 7.42591 35.4141C7.4338 35.4015 7.43577 35.3851 7.43183 35.3653C7.42591 35.3139 7.39896 35.2678 7.35162 35.2276C7.30428 35.1874 7.24576 35.167 7.17673 35.167C7.12544 35.167 7.07876 35.1795 7.03602 35.2039C6.99329 35.2283 6.9591 35.2599 6.93411 35.2975C6.90847 35.335 6.89532 35.3745 6.89532 35.416C6.89532 35.4259 6.90387 35.4305 6.92228 35.4305L7.38975 35.4332H7.39041Z" fill="#707072"/>
<path d="M8.08887 35.4948V35.8742C8.08887 35.894 8.08295 35.9105 8.07111 35.923C8.05928 35.9355 8.0435 35.9421 8.02378 35.9421C8.00405 35.9421 7.98761 35.9355 7.97512 35.923C7.96263 35.9098 7.95605 35.894 7.95605 35.8742V35.1331C7.95605 35.1114 7.96263 35.0949 7.97644 35.0844C7.99024 35.0732 8.00602 35.0679 8.02378 35.0679C8.03956 35.0679 8.05402 35.0732 8.06783 35.0844C8.08163 35.0956 8.08821 35.1114 8.08821 35.1331V35.2043C8.11188 35.1548 8.15133 35.1173 8.20656 35.0916C8.26178 35.0659 8.31373 35.0527 8.36369 35.0527C8.39328 35.0527 8.42287 35.058 8.45245 35.0679C8.47218 35.0738 8.48664 35.085 8.49519 35.1002C8.5044 35.116 8.50571 35.1338 8.49979 35.1535C8.48599 35.1931 8.45903 35.2089 8.41958 35.201C8.38408 35.1911 8.35449 35.1865 8.33082 35.1865C8.2539 35.1865 8.19406 35.2155 8.15198 35.2741C8.10925 35.3327 8.08821 35.4058 8.08821 35.4948H8.08887Z" fill="#707072"/>
<path d="M8.89587 34.8582C8.86432 34.8582 8.83933 34.849 8.82026 34.8299C8.80185 34.8108 8.79199 34.7871 8.79199 34.7574C8.79199 34.7258 8.8012 34.7008 8.82026 34.6816C8.83933 34.6625 8.86432 34.6533 8.89587 34.6533C8.92743 34.6533 8.95242 34.6625 8.97149 34.6816C8.99055 34.7008 8.99976 34.7258 8.99976 34.7574C8.99976 34.7871 8.99055 34.8114 8.97149 34.8299C8.95242 34.8483 8.92743 34.8582 8.89587 34.8582ZM8.90442 35.9432C8.8847 35.9432 8.86826 35.9366 8.85577 35.9241C8.84328 35.9116 8.8367 35.8951 8.8367 35.8753V35.1191C8.8367 35.0973 8.84328 35.0809 8.85708 35.0703C8.87089 35.0591 8.88667 35.0539 8.90442 35.0539C8.9202 35.0539 8.93467 35.0591 8.94847 35.0703C8.96228 35.0815 8.96886 35.0973 8.96886 35.1191V35.8753C8.96886 35.8951 8.96294 35.9116 8.9511 35.9241C8.93927 35.9366 8.92349 35.9432 8.90376 35.9432H8.90442Z" fill="#707072"/>
<path d="M10.1276 35.9431C10.1079 35.9431 10.0915 35.9365 10.079 35.9239C10.0665 35.9114 10.0599 35.895 10.0599 35.8752V35.472C10.0599 35.3732 10.0395 35.3001 9.9981 35.2527C9.95668 35.2052 9.89816 35.1815 9.82321 35.1815C9.75418 35.1815 9.69763 35.198 9.65292 35.2303C9.60821 35.2632 9.57665 35.3034 9.55693 35.3521C9.53721 35.4009 9.52734 35.4483 9.52734 35.4957V35.8752C9.52734 35.895 9.52143 35.9114 9.50959 35.9239C9.49776 35.9365 9.48198 35.9431 9.46225 35.9431C9.44253 35.9431 9.42609 35.9365 9.4136 35.9239C9.40111 35.9108 9.39453 35.895 9.39453 35.8752V35.1341C9.39453 35.1123 9.40111 35.0959 9.41491 35.0853C9.42872 35.0741 9.4445 35.0689 9.46225 35.0689C9.47803 35.0689 9.4925 35.0741 9.5063 35.0853C9.52011 35.0965 9.52669 35.1123 9.52669 35.1341V35.1993C9.56614 35.1538 9.61347 35.1183 9.6687 35.0926C9.72393 35.0669 9.78113 35.0537 9.84031 35.0537C9.9409 35.0537 10.0251 35.0866 10.0921 35.1532C10.1592 35.2197 10.1927 35.3218 10.1927 35.4602V35.8752C10.1927 35.895 10.1868 35.9114 10.175 35.9239C10.1631 35.9365 10.1474 35.9431 10.1276 35.9431Z" fill="#707072"/>
<path d="M10.9468 36.3143C10.8936 36.3143 10.8377 36.307 10.7798 36.2938C10.7213 36.28 10.6726 36.2602 10.6332 36.2345C10.6115 36.2207 10.601 36.201 10.601 36.1753C10.601 36.1338 10.6194 36.1133 10.6569 36.1133C10.6707 36.1133 10.6845 36.1173 10.6983 36.1252C10.7318 36.143 10.7726 36.1588 10.8199 36.1726C10.8673 36.1865 10.9126 36.193 10.956 36.193C11.0369 36.193 11.1066 36.1713 11.1644 36.1278C11.2223 36.0843 11.2519 36.0231 11.2519 35.944V35.805C11.2164 35.8485 11.1723 35.8828 11.1204 35.9071C11.0685 35.9315 11.0106 35.944 10.9475 35.944C10.8252 35.944 10.7246 35.9019 10.6457 35.8182C10.5668 35.7339 10.5273 35.6258 10.5273 35.4934C10.5273 35.361 10.5668 35.2596 10.6457 35.1779C10.7246 35.0955 10.8252 35.0547 10.9475 35.0547C11.0698 35.0547 11.175 35.0995 11.2525 35.1884V35.1351C11.2525 35.1133 11.2591 35.0968 11.2729 35.0863C11.2867 35.0751 11.3025 35.0698 11.3203 35.0698C11.336 35.0698 11.3505 35.0751 11.3643 35.0863C11.3781 35.0975 11.3847 35.1133 11.3847 35.1351V35.9269C11.3847 36.0534 11.342 36.1496 11.2572 36.2161C11.1723 36.2826 11.0685 36.3156 10.9468 36.3156V36.3143ZM10.9468 35.8222C11.0395 35.8222 11.1138 35.7945 11.1684 35.7392C11.2236 35.6838 11.2512 35.6015 11.2512 35.4928C11.2512 35.3841 11.2236 35.309 11.1684 35.2556C11.1132 35.2023 11.0395 35.1752 10.9468 35.1752C10.862 35.1752 10.7936 35.2062 10.741 35.2675C10.6884 35.3287 10.6628 35.4038 10.6628 35.4928C10.6628 35.5817 10.6891 35.6641 10.741 35.7273C10.793 35.7905 10.862 35.8222 10.9468 35.8222Z" fill="#707072"/>
<path d="M12.7312 35.9135C12.6878 35.9135 12.653 35.9016 12.626 35.8779C12.5991 35.8542 12.5859 35.8186 12.5859 35.7712V34.8726C12.5859 34.8351 12.5984 34.8041 12.6228 34.7791C12.6471 34.7547 12.6786 34.7422 12.7161 34.7422H13.2046C13.2263 34.7422 13.2421 34.7494 13.252 34.7626C13.2618 34.7758 13.2664 34.7923 13.2664 34.81C13.2664 34.8259 13.2605 34.8397 13.2487 34.8515C13.2368 34.8634 13.2217 34.8693 13.204 34.8693H12.8312C12.7621 34.8693 12.728 34.9042 12.728 34.9734V35.1539C12.728 35.2231 12.7621 35.258 12.8312 35.258H13.1626C13.204 35.258 13.2244 35.2784 13.2244 35.3199C13.2244 35.3575 13.204 35.3759 13.1626 35.3759H12.8312C12.7621 35.3759 12.728 35.4108 12.728 35.4794V35.6809C12.728 35.7501 12.7621 35.7844 12.8312 35.7844H13.2191C13.2428 35.7844 13.2592 35.7916 13.2677 35.8048C13.277 35.8186 13.2809 35.8338 13.2809 35.8496C13.2809 35.8634 13.2763 35.8773 13.2664 35.8911C13.2566 35.9049 13.2408 35.9115 13.2191 35.9115H12.7306L12.7312 35.9135Z" fill="#707072"/>
<path d="M14.0363 35.943C13.9141 35.943 13.8135 35.9009 13.7346 35.8172C13.6557 35.7329 13.6162 35.6249 13.6162 35.4924C13.6162 35.36 13.6557 35.2586 13.7346 35.1769C13.8135 35.0945 13.9141 35.0537 14.0363 35.0537C14.1586 35.0537 14.2645 35.0985 14.3414 35.1874V34.7039C14.3414 34.6822 14.3486 34.6657 14.3618 34.6551C14.3749 34.6446 14.3901 34.6387 14.4065 34.6387C14.4243 34.6387 14.44 34.6439 14.4538 34.6551C14.4677 34.6663 14.4742 34.6822 14.4742 34.7039V35.86C14.4742 35.8798 14.4677 35.8963 14.4552 35.9088C14.4427 35.9213 14.4262 35.9279 14.4065 35.9279C14.3868 35.9279 14.371 35.9213 14.3592 35.9088C14.3473 35.8963 14.3414 35.8798 14.3414 35.86V35.804C14.3059 35.8475 14.2619 35.8818 14.2099 35.9061C14.1573 35.9305 14.1001 35.943 14.037 35.943H14.0363ZM14.0363 35.8212C14.129 35.8212 14.2033 35.7935 14.2586 35.7382C14.3138 35.6828 14.3414 35.6005 14.3414 35.4918C14.3414 35.3831 14.3138 35.308 14.2586 35.2546C14.2033 35.2013 14.129 35.1743 14.0363 35.1743C13.9515 35.1743 13.8832 35.2052 13.8306 35.2665C13.778 35.3277 13.7523 35.4028 13.7523 35.4918C13.7523 35.5807 13.7786 35.6631 13.8306 35.7263C13.8832 35.7895 13.9515 35.8212 14.0363 35.8212Z" fill="#707072"/>
<path d="M15.5188 35.1212C15.5188 35.0995 15.526 35.0824 15.5391 35.0705C15.5529 35.0587 15.5687 35.0527 15.5865 35.0527C15.6023 35.0527 15.6174 35.0587 15.6312 35.0705C15.645 35.0824 15.6516 35.0995 15.6516 35.1212V35.5396C15.6516 35.6621 15.6161 35.7603 15.5451 35.8334C15.474 35.9065 15.3774 35.9434 15.2551 35.9434C15.1644 35.9434 15.0901 35.9249 15.0329 35.8874C14.9757 35.8498 14.9336 35.7998 14.9073 35.7379C14.8803 35.6759 14.8672 35.6087 14.8672 35.5376V35.1226C14.8672 35.1008 14.8744 35.0837 14.8882 35.0718C14.902 35.06 14.9178 35.0541 14.9356 35.0541C14.9513 35.0541 14.9665 35.06 14.9803 35.0718C14.9941 35.0837 15.0007 35.1008 15.0007 35.1226V35.5494C15.0007 35.6463 15.0263 35.7155 15.0776 35.757C15.1289 35.7985 15.188 35.8189 15.2551 35.8189C15.3182 35.8189 15.3781 35.7985 15.4339 35.757C15.4898 35.7155 15.5181 35.6483 15.5181 35.5554V35.1226L15.5188 35.1212Z" fill="#707072"/>
<path d="M16.4486 35.9431C16.3618 35.9431 16.2855 35.9226 16.2204 35.8824C16.1553 35.8423 16.1047 35.7876 16.0699 35.7191C16.0344 35.6506 16.0166 35.5755 16.0166 35.4925C16.0166 35.4094 16.0357 35.3317 16.0745 35.2658C16.1126 35.1993 16.1645 35.1479 16.2296 35.1104C16.2947 35.0728 16.3677 35.0537 16.4486 35.0537C16.5689 35.0537 16.6655 35.0807 16.7385 35.1341C16.7563 35.1459 16.7648 35.1637 16.7648 35.1874C16.7648 35.227 16.7451 35.2467 16.7056 35.2467C16.7017 35.2467 16.6964 35.2467 16.6912 35.2454C16.6853 35.2441 16.6793 35.2428 16.6734 35.2408C16.6478 35.225 16.6169 35.2092 16.5801 35.1934C16.5432 35.1776 16.5025 35.1697 16.4571 35.1697C16.3664 35.1697 16.2921 35.2006 16.2349 35.2632C16.1777 35.3258 16.1494 35.4029 16.1494 35.4957C16.1494 35.5886 16.1764 35.6618 16.2309 35.7197C16.2849 35.7784 16.3545 35.812 16.4394 35.8218C16.4926 35.8238 16.5446 35.8139 16.5945 35.7922C16.6452 35.7705 16.6866 35.7434 16.7201 35.7118C16.7319 35.7019 16.7444 35.6973 16.7589 35.6973C16.7747 35.6973 16.7878 35.7039 16.799 35.7164C16.8102 35.7296 16.8154 35.7434 16.8154 35.7593C16.8154 35.7751 16.8069 35.7942 16.7885 35.8159C16.7451 35.8554 16.6958 35.8864 16.6406 35.9095C16.5853 35.9325 16.5215 35.9437 16.4486 35.9437V35.9431Z" fill="#707072"/>
<path d="M17.5549 35.9431C17.4326 35.9431 17.332 35.9009 17.2531 35.8172C17.1742 35.7329 17.1348 35.6249 17.1348 35.4925C17.1348 35.36 17.1742 35.2586 17.2531 35.1769C17.332 35.0946 17.4326 35.0537 17.5549 35.0537C17.6772 35.0537 17.783 35.0985 17.86 35.1874V35.1341C17.86 35.1123 17.8672 35.0959 17.8804 35.0853C17.8935 35.0748 17.9086 35.0689 17.9251 35.0689C17.9428 35.0689 17.9586 35.0741 17.9724 35.0853C17.9862 35.0965 17.9928 35.1123 17.9928 35.1341V35.8752C17.9928 35.895 17.9862 35.9114 17.9737 35.9239C17.9606 35.9365 17.9448 35.9431 17.9251 35.9431C17.9053 35.9431 17.8896 35.9365 17.8777 35.9239C17.8659 35.9108 17.86 35.895 17.86 35.8752V35.8041C17.8245 35.8475 17.7804 35.8818 17.7285 35.9062C17.6759 35.9305 17.6187 35.9431 17.5556 35.9431H17.5549ZM17.5549 35.8212C17.6476 35.8212 17.7219 35.7935 17.7771 35.7382C17.8324 35.6828 17.86 35.6005 17.86 35.4918C17.86 35.3831 17.8324 35.308 17.7771 35.2546C17.7219 35.2013 17.6476 35.1743 17.5549 35.1743C17.4701 35.1743 17.4017 35.2052 17.3491 35.2665C17.2965 35.3278 17.2709 35.4029 17.2709 35.4918C17.2709 35.5807 17.2972 35.6631 17.3491 35.7263C17.4017 35.7896 17.4701 35.8212 17.5549 35.8212Z" fill="#707072"/>
<path d="M18.7177 35.9428C18.6368 35.9428 18.5737 35.9184 18.5283 35.8704C18.4829 35.8216 18.4599 35.7551 18.4599 35.6701V35.2313C18.4599 35.2116 18.4501 35.2017 18.4303 35.2017H18.356C18.3403 35.2017 18.3265 35.1958 18.3146 35.1839C18.3028 35.1721 18.2969 35.1582 18.2969 35.1424C18.2969 35.1266 18.3028 35.1128 18.3146 35.1009C18.3265 35.0891 18.3403 35.0831 18.356 35.0831H18.4303C18.4501 35.0831 18.4599 35.0732 18.4599 35.0535V34.7781C18.4599 34.7564 18.4672 34.7399 18.4803 34.7294C18.4941 34.7182 18.5092 34.7129 18.525 34.7129C18.5428 34.7129 18.5586 34.7182 18.5724 34.7294C18.5862 34.7406 18.5927 34.7564 18.5927 34.7781V35.0535C18.5927 35.0732 18.6026 35.0831 18.6223 35.0831H18.8294C18.8452 35.0831 18.859 35.0891 18.8709 35.1009C18.8827 35.1128 18.8886 35.1266 18.8886 35.1424C18.8886 35.1582 18.8827 35.1721 18.8709 35.1839C18.859 35.1958 18.8452 35.2017 18.8294 35.2017H18.6223C18.6026 35.2017 18.5927 35.2116 18.5927 35.2313V35.6615C18.5927 35.7643 18.6401 35.8157 18.7348 35.8157C18.7584 35.8157 18.7775 35.8124 18.7926 35.8065C18.8077 35.8005 18.8196 35.7979 18.8294 35.7979C18.8472 35.7979 18.8617 35.8051 18.8722 35.8183C18.8834 35.8321 18.8886 35.8473 18.8886 35.8631C18.8886 35.8947 18.8735 35.9145 18.8439 35.9224C18.8242 35.9303 18.8031 35.9356 18.7801 35.9389C18.7571 35.9415 18.7361 35.9435 18.7164 35.9435L18.7177 35.9428Z" fill="#707072"/>
<path d="M19.3129 34.8582C19.2813 34.8582 19.2563 34.849 19.2373 34.8299C19.2188 34.8108 19.209 34.7871 19.209 34.7574C19.209 34.7258 19.2182 34.7008 19.2373 34.6816C19.2563 34.6625 19.2813 34.6533 19.3129 34.6533C19.3444 34.6533 19.3694 34.6625 19.3885 34.6816C19.4075 34.7008 19.4167 34.7258 19.4167 34.7574C19.4167 34.7871 19.4075 34.8114 19.3885 34.8299C19.3694 34.8483 19.3444 34.8582 19.3129 34.8582ZM19.3214 35.9432C19.3017 35.9432 19.2853 35.9366 19.2728 35.9241C19.2603 35.9116 19.2537 35.8951 19.2537 35.8753V35.1191C19.2537 35.0973 19.2603 35.0809 19.2741 35.0703C19.2879 35.0591 19.3037 35.0539 19.3214 35.0539C19.3372 35.0539 19.3517 35.0591 19.3655 35.0703C19.3793 35.0815 19.3858 35.0973 19.3858 35.1191V35.8753C19.3858 35.8951 19.3799 35.9116 19.3681 35.9241C19.3563 35.9366 19.3405 35.9432 19.3208 35.9432H19.3214Z" fill="#707072"/>
<path d="M20.2009 35.9431C20.118 35.9431 20.0437 35.9233 19.9787 35.8838C19.9136 35.8442 19.8616 35.7902 19.8235 35.7224C19.7847 35.6539 19.7656 35.5774 19.7656 35.4925C19.7656 35.4075 19.7847 35.3324 19.8235 35.2672C19.8616 35.2019 19.9136 35.1499 19.9787 35.1117C20.0437 35.0728 20.118 35.0537 20.2009 35.0537C20.2837 35.0537 20.358 35.0728 20.4244 35.1117C20.4908 35.1505 20.5428 35.2019 20.5816 35.2672C20.6204 35.3324 20.6394 35.4075 20.6394 35.4925C20.6394 35.5774 20.6204 35.6539 20.5816 35.7224C20.5434 35.7909 20.4908 35.8442 20.4244 35.8838C20.3587 35.9233 20.2837 35.9431 20.2009 35.9431ZM20.2009 35.8212C20.2936 35.8212 20.3679 35.7896 20.4231 35.7263C20.4783 35.6631 20.506 35.5847 20.506 35.4918C20.506 35.3989 20.4783 35.3278 20.4231 35.2665C20.3679 35.2052 20.2936 35.1743 20.2009 35.1743C20.1082 35.1743 20.0378 35.2052 19.9833 35.2665C19.9287 35.3278 19.9017 35.4029 19.9017 35.4918C19.9017 35.5807 19.9287 35.6631 19.9833 35.7263C20.0378 35.7896 20.1101 35.8212 20.2009 35.8212Z" fill="#707072"/>
<path d="M21.7507 35.9431C21.7309 35.9431 21.7145 35.9365 21.702 35.9239C21.6895 35.9114 21.683 35.895 21.683 35.8752V35.472C21.683 35.3732 21.6626 35.3001 21.6211 35.2527C21.5797 35.2052 21.5212 35.1815 21.4463 35.1815C21.3772 35.1815 21.3207 35.198 21.276 35.2303C21.2313 35.2632 21.1997 35.3034 21.18 35.3521C21.1603 35.4009 21.1504 35.4483 21.1504 35.4957V35.8752C21.1504 35.895 21.1445 35.9114 21.1326 35.9239C21.1208 35.9365 21.105 35.9431 21.0853 35.9431C21.0656 35.9431 21.0491 35.9365 21.0366 35.9239C21.0242 35.9108 21.0176 35.895 21.0176 35.8752V35.1341C21.0176 35.1123 21.0242 35.0959 21.038 35.0853C21.0518 35.0741 21.0675 35.0689 21.0853 35.0689C21.1011 35.0689 21.1155 35.0741 21.1293 35.0853C21.1432 35.0965 21.1497 35.1123 21.1497 35.1341V35.1993C21.1892 35.1538 21.2365 35.1183 21.2917 35.0926C21.347 35.0669 21.4042 35.0537 21.4634 35.0537C21.5639 35.0537 21.6481 35.0866 21.7152 35.1532C21.7822 35.2197 21.8158 35.3218 21.8158 35.4602V35.8752C21.8158 35.895 21.8098 35.9114 21.798 35.9239C21.7862 35.9365 21.7704 35.9431 21.7507 35.9431Z" fill="#707072"/>
<path d="M22.352 36.124C22.3481 36.1379 22.3409 36.1484 22.3297 36.155C22.3185 36.1616 22.3086 36.1655 22.2988 36.1655C22.2672 36.1655 22.2521 36.1451 22.2541 36.1036L22.2837 35.8039C22.2876 35.7801 22.2968 35.763 22.3119 35.7518C22.3271 35.7413 22.3428 35.7354 22.3606 35.7354C22.3843 35.7354 22.406 35.7439 22.4257 35.7604C22.4454 35.7769 22.4513 35.8025 22.4434 35.8361L22.3514 36.124H22.352Z" fill="#707072"/>
<path d="M23.7601 35.9428C23.7404 35.9428 23.7239 35.9356 23.7115 35.9224C23.6983 35.9086 23.6924 35.8928 23.6924 35.875V34.7807C23.6924 34.759 23.699 34.7425 23.7115 34.7307C23.7239 34.7188 23.7404 34.7129 23.7601 34.7129C23.7818 34.7129 23.7996 34.7188 23.8134 34.7307C23.8272 34.7425 23.8337 34.7597 23.8337 34.7807V35.875C23.8337 35.8928 23.8265 35.9086 23.8134 35.9224C23.7996 35.9362 23.7818 35.9428 23.7601 35.9428Z" fill="#707072"/>
<path d="M25.0212 35.9431C25.0015 35.9431 24.985 35.9365 24.9725 35.9239C24.96 35.9114 24.9535 35.895 24.9535 35.8752V35.472C24.9535 35.3732 24.9331 35.3001 24.8917 35.2527C24.8502 35.2052 24.7917 35.1815 24.7168 35.1815C24.6477 35.1815 24.5912 35.198 24.5465 35.2303C24.5018 35.2632 24.4702 35.3034 24.4505 35.3521C24.4308 35.4009 24.4209 35.4483 24.4209 35.4957V35.8752C24.4209 35.895 24.415 35.9114 24.4031 35.9239C24.3913 35.9365 24.3755 35.9431 24.3558 35.9431C24.3361 35.9431 24.3196 35.9365 24.3072 35.9239C24.2947 35.9108 24.2881 35.895 24.2881 35.8752V35.1341C24.2881 35.1123 24.2947 35.0959 24.3085 35.0853C24.3223 35.0741 24.3381 35.0689 24.3558 35.0689C24.3716 35.0689 24.3861 35.0741 24.3999 35.0853C24.4137 35.0965 24.4202 35.1123 24.4202 35.1341V35.1993C24.4597 35.1538 24.507 35.1183 24.5623 35.0926C24.6175 35.0669 24.6747 35.0537 24.7339 35.0537C24.8345 35.0537 24.9186 35.0866 24.9857 35.1532C25.0527 35.2197 25.0863 35.3218 25.0863 35.4602V35.8752C25.0863 35.895 25.0804 35.9114 25.0685 35.9239C25.0567 35.9365 25.0409 35.9431 25.0212 35.9431Z" fill="#707072"/>
<path d="M25.7814 35.9431C25.6473 35.9431 25.5388 35.9048 25.4559 35.8271C25.4421 35.8133 25.4355 35.7975 25.4355 35.7797C25.4355 35.7599 25.4434 35.7441 25.4592 35.7322C25.475 35.7204 25.4881 35.7145 25.498 35.7145C25.5138 35.7145 25.5335 35.7243 25.5572 35.7441C25.5868 35.7698 25.621 35.7896 25.6591 35.8034C25.6972 35.8172 25.7413 35.8238 25.7906 35.8238C25.8596 35.8238 25.9116 35.8106 25.9458 35.7849C25.9799 35.7593 25.9977 35.725 25.9977 35.6815C25.9977 35.638 25.9786 35.6031 25.9412 35.582C25.9037 35.5616 25.8504 35.5471 25.7814 35.5392C25.7439 35.5353 25.6992 35.528 25.6466 35.5188C25.594 35.5096 25.5486 35.4885 25.5092 35.4582C25.4697 35.4279 25.45 35.3805 25.45 35.3172C25.45 35.2362 25.4796 35.1723 25.5388 35.1249C25.5979 35.0774 25.6808 35.0537 25.7873 35.0537C25.8484 35.0537 25.9056 35.061 25.9589 35.0761C26.0122 35.0913 26.051 35.109 26.0746 35.1308C26.0904 35.1426 26.0983 35.1585 26.0983 35.1782C26.0983 35.1921 26.0924 35.2065 26.0805 35.221C26.0687 35.2355 26.0549 35.2434 26.0391 35.2434C26.0312 35.2434 26.0233 35.2415 26.0154 35.2375C26.0076 35.2336 25.9997 35.2296 25.9918 35.2256C25.9563 35.2059 25.9241 35.1921 25.8958 35.1841C25.8669 35.1762 25.8333 35.1723 25.7939 35.1723C25.7308 35.1723 25.6801 35.1835 25.6413 35.2065C25.6032 35.2296 25.5835 35.2632 25.5835 35.3087C25.5835 35.3403 25.5966 35.3633 25.6236 35.3785C25.6505 35.3936 25.7031 35.4055 25.782 35.4154C25.8097 35.4193 25.8432 35.4253 25.8826 35.4332C25.9221 35.4411 25.9602 35.4536 25.9984 35.4701C26.0358 35.4872 26.0674 35.5116 26.093 35.5445C26.1187 35.5768 26.1312 35.6203 26.1312 35.6736C26.1312 35.7546 26.1009 35.8199 26.0398 35.8693C25.9786 35.9187 25.8925 35.9437 25.782 35.9437L25.7814 35.9431Z" fill="#707072"/>
<path d="M26.948 35.9431C26.8848 35.9431 26.827 35.9305 26.775 35.9062C26.7225 35.8818 26.6791 35.8475 26.6436 35.8041V36.2606C26.6436 36.2803 26.6376 36.2968 26.6258 36.3093C26.614 36.3225 26.5982 36.3284 26.5785 36.3284C26.5587 36.3284 26.5423 36.3218 26.5298 36.3093C26.5173 36.2962 26.5107 36.2803 26.5107 36.2606V35.1341C26.5107 35.1123 26.5173 35.0959 26.5311 35.0853C26.5449 35.0741 26.5607 35.0689 26.5785 35.0689C26.5942 35.0689 26.6087 35.0741 26.6225 35.0853C26.6363 35.0965 26.6429 35.1123 26.6429 35.1341V35.1874C26.7198 35.0985 26.8217 35.0537 26.948 35.0537C27.0742 35.0537 27.1709 35.0946 27.2498 35.1769C27.3287 35.2586 27.3681 35.364 27.3681 35.4925C27.3681 35.6209 27.3287 35.7329 27.2498 35.8172C27.1709 35.9016 27.0703 35.9431 26.948 35.9431ZM26.948 35.8212C27.0328 35.8212 27.1012 35.7896 27.1538 35.7263C27.2057 35.6631 27.232 35.5847 27.232 35.4918C27.232 35.3989 27.2057 35.3278 27.1538 35.2665C27.1012 35.2052 27.0328 35.1743 26.948 35.1743C26.8572 35.1743 26.7836 35.2013 26.7277 35.2546C26.6712 35.308 26.6436 35.387 26.6436 35.4918C26.6436 35.5965 26.6718 35.6828 26.7277 35.7382C26.7836 35.7935 26.8572 35.8212 26.948 35.8212Z" fill="#707072"/>
<path d="M27.8207 34.8582C27.7891 34.8582 27.7641 34.849 27.7451 34.8299C27.7267 34.8108 27.7168 34.7871 27.7168 34.7574C27.7168 34.7258 27.726 34.7008 27.7451 34.6816C27.7641 34.6625 27.7891 34.6533 27.8207 34.6533C27.8522 34.6533 27.8772 34.6625 27.8963 34.6816C27.9154 34.7008 27.9246 34.7258 27.9246 34.7574C27.9246 34.7871 27.9154 34.8114 27.8963 34.8299C27.8772 34.8483 27.8522 34.8582 27.8207 34.8582ZM27.8292 35.9432C27.8095 35.9432 27.7931 35.9366 27.7806 35.9241C27.7681 35.9116 27.7615 35.8951 27.7615 35.8753V35.1191C27.7615 35.0973 27.7681 35.0809 27.7819 35.0703C27.7957 35.0591 27.8115 35.0539 27.8292 35.0539C27.845 35.0539 27.8595 35.0591 27.8733 35.0703C27.8871 35.0815 27.8937 35.0973 27.8937 35.1191V35.8753C27.8937 35.8951 27.8877 35.9116 27.8759 35.9241C27.8641 35.9366 27.8483 35.9432 27.8286 35.9432H27.8292Z" fill="#707072"/>
<path d="M28.4512 35.4948V35.8742C28.4512 35.894 28.4453 35.9105 28.4334 35.923C28.4216 35.9355 28.4058 35.9421 28.3861 35.9421C28.3664 35.9421 28.3499 35.9355 28.3374 35.923C28.3249 35.9098 28.3184 35.894 28.3184 35.8742V35.1331C28.3184 35.1114 28.3249 35.0949 28.3387 35.0844C28.3525 35.0732 28.3683 35.0679 28.3861 35.0679C28.4019 35.0679 28.4163 35.0732 28.4301 35.0844C28.4439 35.0956 28.4505 35.1114 28.4505 35.1331V35.2043C28.4742 35.1548 28.5136 35.1173 28.5689 35.0916C28.6241 35.0659 28.676 35.0527 28.726 35.0527C28.7556 35.0527 28.7852 35.058 28.8148 35.0679C28.8345 35.0738 28.849 35.085 28.8575 35.1002C28.8667 35.116 28.868 35.1338 28.8621 35.1535C28.8483 35.1931 28.8213 35.2089 28.7819 35.201C28.7464 35.1911 28.7168 35.1865 28.6931 35.1865C28.6162 35.1865 28.5564 35.2155 28.5143 35.2741C28.4716 35.3327 28.4505 35.4058 28.4505 35.4948H28.4512Z" fill="#707072"/>
<path d="M29.2582 34.8582C29.2266 34.8582 29.2016 34.849 29.1826 34.8299C29.1642 34.8108 29.1543 34.7871 29.1543 34.7574C29.1543 34.7258 29.1635 34.7008 29.1826 34.6816C29.2016 34.6625 29.2266 34.6533 29.2582 34.6533C29.2897 34.6533 29.3147 34.6625 29.3338 34.6816C29.3529 34.7008 29.3621 34.7258 29.3621 34.7574C29.3621 34.7871 29.3529 34.8114 29.3338 34.8299C29.3147 34.8483 29.2897 34.8582 29.2582 34.8582ZM29.2667 35.9432C29.247 35.9432 29.2306 35.9366 29.2181 35.9241C29.2056 35.9116 29.199 35.8951 29.199 35.8753V35.1191C29.199 35.0973 29.2056 35.0809 29.2194 35.0703C29.2332 35.0591 29.249 35.0539 29.2667 35.0539C29.2825 35.0539 29.297 35.0591 29.3108 35.0703C29.3246 35.0815 29.3312 35.0973 29.3312 35.1191V35.8753C29.3312 35.8951 29.3252 35.9116 29.3134 35.9241C29.3016 35.9366 29.2858 35.9432 29.2661 35.9432H29.2667Z" fill="#707072"/>
<path d="M30.4899 35.9431C30.4702 35.9431 30.4538 35.9365 30.4413 35.9239C30.4288 35.9114 30.4222 35.895 30.4222 35.8752V35.472C30.4222 35.3732 30.4018 35.3001 30.3604 35.2527C30.319 35.2052 30.2605 35.1815 30.1855 35.1815C30.1165 35.1815 30.0599 35.198 30.0152 35.2303C29.9705 35.2632 29.939 35.3034 29.9192 35.3521C29.8995 35.4009 29.8896 35.4483 29.8896 35.4957V35.8752C29.8896 35.895 29.8837 35.9114 29.8719 35.9239C29.8601 35.9365 29.8443 35.9431 29.8246 35.9431C29.8048 35.9431 29.7884 35.9365 29.7759 35.9239C29.7634 35.9108 29.7568 35.895 29.7568 35.8752V35.1341C29.7568 35.1123 29.7634 35.0959 29.7772 35.0853C29.791 35.0741 29.8068 35.0689 29.8246 35.0689C29.8403 35.0689 29.8548 35.0741 29.8686 35.0853C29.8824 35.0965 29.889 35.1123 29.889 35.1341V35.1993C29.9284 35.1538 29.9758 35.1183 30.031 35.0926C30.0862 35.0669 30.1434 35.0537 30.2026 35.0537C30.3032 35.0537 30.3874 35.0866 30.4544 35.1532C30.5215 35.2197 30.555 35.3218 30.555 35.4602V35.8752C30.555 35.895 30.5491 35.9114 30.5373 35.9239C30.5254 35.9365 30.5097 35.9431 30.4899 35.9431Z" fill="#707072"/>
<path d="M31.3091 36.3143C31.2559 36.3143 31.2 36.307 31.1421 36.2938C31.0836 36.28 31.035 36.2602 30.9955 36.2345C30.9738 36.2207 30.9633 36.201 30.9633 36.1753C30.9633 36.1338 30.9817 36.1133 31.0192 36.1133C31.033 36.1133 31.0468 36.1173 31.0606 36.1252C31.0941 36.143 31.1349 36.1588 31.1822 36.1726C31.2296 36.1865 31.2749 36.193 31.3183 36.193C31.3992 36.193 31.4689 36.1713 31.5268 36.1278C31.5846 36.0843 31.6142 36.0231 31.6142 35.944V35.805C31.5787 35.8485 31.5346 35.8828 31.4827 35.9071C31.4301 35.9315 31.3729 35.944 31.3098 35.944C31.1875 35.944 31.0869 35.9019 31.008 35.8182C30.9291 35.7339 30.8896 35.6258 30.8896 35.4934C30.8896 35.361 30.9291 35.2596 31.008 35.1779C31.0869 35.0955 31.1875 35.0547 31.3098 35.0547C31.4321 35.0547 31.5373 35.0995 31.6149 35.1884V35.1351C31.6149 35.1133 31.6214 35.0968 31.6352 35.0863C31.649 35.0751 31.6648 35.0698 31.6826 35.0698C31.6984 35.0698 31.7128 35.0751 31.7266 35.0863C31.7404 35.0975 31.747 35.1133 31.747 35.1351V35.9269C31.747 36.0534 31.7043 36.1496 31.6195 36.2161C31.5346 36.2826 31.4308 36.3156 31.3091 36.3156V36.3143ZM31.3091 35.8222C31.4018 35.8222 31.4761 35.7945 31.5307 35.7392C31.5859 35.6838 31.6135 35.6015 31.6135 35.4928C31.6135 35.3841 31.5859 35.309 31.5307 35.2556C31.4755 35.2023 31.4018 35.1752 31.3091 35.1752C31.2243 35.1752 31.1559 35.2062 31.1033 35.2675C31.0507 35.3287 31.0251 35.4038 31.0251 35.4928C31.0251 35.5817 31.0514 35.6641 31.1033 35.7273C31.1559 35.7905 31.2243 35.8222 31.3091 35.8222Z" fill="#707072"/>
<path d="M33.0225 35.9431C33.0028 35.9431 32.9857 35.9359 32.9706 35.9207C32.9555 35.9056 32.9482 35.8885 32.9482 35.8687V34.8726C32.9482 34.8351 32.9607 34.8041 32.9851 34.7791C33.0094 34.7547 33.0409 34.7422 33.0784 34.7422H33.5669C33.5886 34.7422 33.6044 34.7494 33.6143 34.7626C33.6241 34.7764 33.6287 34.7923 33.6287 34.81C33.6287 34.8259 33.6228 34.8397 33.611 34.8515C33.5992 34.8634 33.584 34.8693 33.5663 34.8693H33.1935C33.1244 34.8693 33.0903 34.9042 33.0903 34.9734V35.148C33.0903 35.2172 33.1244 35.2521 33.1935 35.2521H33.5249C33.5663 35.2521 33.5867 35.2725 33.5867 35.314C33.5867 35.3516 33.5663 35.37 33.5249 35.37H33.1935C33.1244 35.37 33.0903 35.4049 33.0903 35.4734L33.0929 35.8647C33.0929 35.8865 33.0863 35.9049 33.0738 35.9194C33.0613 35.9339 33.0436 35.9418 33.0219 35.9418L33.0225 35.9431Z" fill="#707072"/>
<path d="M34.3599 35.9431C34.2219 35.9431 34.1114 35.9022 34.0286 35.8199C33.9457 35.7382 33.9043 35.6249 33.9043 35.4806C33.9043 35.4015 33.922 35.3297 33.9576 35.2658C33.9931 35.2013 34.043 35.1499 34.1068 35.1117C34.1712 35.0728 34.2462 35.0537 34.333 35.0537C34.4198 35.0537 34.4987 35.0728 34.5578 35.1117C34.617 35.1505 34.6611 35.198 34.6893 35.254C34.7176 35.31 34.7321 35.366 34.7321 35.4213C34.7321 35.4549 34.7248 35.4826 34.7097 35.5043C34.6946 35.5261 34.6736 35.5372 34.6459 35.5372H34.0779C34.066 35.5372 34.0575 35.5386 34.0529 35.5399C34.0483 35.5419 34.0457 35.5484 34.0457 35.5603C34.0457 35.5939 34.0568 35.6308 34.0785 35.6703C34.1002 35.7098 34.1311 35.7441 34.1719 35.7724C34.212 35.8014 34.2593 35.8172 34.3126 35.8212C34.3698 35.8251 34.4263 35.8192 34.4816 35.8034C34.5368 35.7876 34.5861 35.7632 34.6295 35.729C34.6394 35.721 34.6499 35.7171 34.6624 35.7171C34.6762 35.7171 34.6893 35.723 34.7025 35.7349C34.715 35.7467 34.7216 35.7619 34.7216 35.779C34.7216 35.7961 34.713 35.8146 34.6953 35.8324C34.6479 35.8699 34.5947 35.8976 34.5355 35.9154C34.4763 35.9332 34.4178 35.9424 34.3606 35.9424L34.3599 35.9431ZM34.5467 35.4332C34.5624 35.4332 34.5743 35.4266 34.5822 35.4141C34.5901 35.4015 34.592 35.3851 34.5881 35.3653C34.5822 35.3139 34.5552 35.2678 34.5079 35.2276C34.4605 35.1874 34.402 35.167 34.333 35.167C34.2817 35.167 34.235 35.1795 34.1923 35.2039C34.1495 35.2283 34.1154 35.2599 34.0904 35.2975C34.0647 35.335 34.0516 35.3745 34.0516 35.416C34.0516 35.4259 34.0601 35.4305 34.0785 35.4305L34.546 35.4332H34.5467Z" fill="#707072"/>
<path d="M35.5168 35.9431C35.3945 35.9431 35.2939 35.9009 35.215 35.8172C35.1361 35.7329 35.0967 35.6249 35.0967 35.4925C35.0967 35.36 35.1361 35.2586 35.215 35.1769C35.2939 35.0946 35.3945 35.0537 35.5168 35.0537C35.6391 35.0537 35.745 35.0985 35.8219 35.1874V35.1341C35.8219 35.1123 35.8291 35.0959 35.8423 35.0853C35.8561 35.0741 35.8705 35.0689 35.887 35.0689C35.9047 35.0689 35.9205 35.0741 35.9343 35.0853C35.9481 35.0965 35.9547 35.1123 35.9547 35.1341V35.8752C35.9547 35.895 35.9481 35.9114 35.9356 35.9239C35.9225 35.9365 35.9067 35.9431 35.887 35.9431C35.8673 35.9431 35.8515 35.9365 35.8396 35.9239C35.8278 35.9108 35.8219 35.895 35.8219 35.8752V35.8041C35.7864 35.8475 35.7423 35.8818 35.6904 35.9062C35.6378 35.9305 35.5806 35.9431 35.5175 35.9431H35.5168ZM35.5168 35.8212C35.6095 35.8212 35.6838 35.7935 35.739 35.7382C35.7943 35.6828 35.8219 35.6005 35.8219 35.4918C35.8219 35.3831 35.7943 35.308 35.739 35.2546C35.6838 35.2013 35.6095 35.1743 35.5168 35.1743C35.432 35.1743 35.3636 35.2052 35.311 35.2665C35.2584 35.3278 35.2328 35.4029 35.2328 35.4918C35.2328 35.5807 35.2591 35.6631 35.311 35.7263C35.3636 35.7896 35.432 35.8212 35.5168 35.8212Z" fill="#707072"/>
<path d="M36.6806 35.9428C36.5997 35.9428 36.5366 35.9184 36.4912 35.8704C36.4458 35.8216 36.4228 35.7551 36.4228 35.6701V35.2313C36.4228 35.2116 36.413 35.2017 36.3932 35.2017H36.3189C36.3032 35.2017 36.2894 35.1958 36.2775 35.1839C36.2657 35.1721 36.2598 35.1582 36.2598 35.1424C36.2598 35.1266 36.2657 35.1128 36.2775 35.1009C36.2894 35.0891 36.3032 35.0831 36.3189 35.0831H36.3932C36.413 35.0831 36.4228 35.0732 36.4228 35.0535V34.7781C36.4228 34.7564 36.4301 34.7399 36.4432 34.7294C36.457 34.7182 36.4721 34.7129 36.4879 34.7129C36.5057 34.7129 36.5214 34.7182 36.5353 34.7294C36.5491 34.7406 36.5556 34.7564 36.5556 34.7781V35.0535C36.5556 35.0732 36.5655 35.0831 36.5852 35.0831H36.7923C36.8081 35.0831 36.8219 35.0891 36.8338 35.1009C36.8456 35.1128 36.8515 35.1266 36.8515 35.1424C36.8515 35.1582 36.8456 35.1721 36.8338 35.1839C36.8219 35.1958 36.8081 35.2017 36.7923 35.2017H36.5852C36.5655 35.2017 36.5556 35.2116 36.5556 35.2313V35.6615C36.5556 35.7643 36.603 35.8157 36.6977 35.8157C36.7213 35.8157 36.7404 35.8124 36.7555 35.8065C36.7706 35.8005 36.7825 35.7979 36.7923 35.7979C36.8101 35.7979 36.8245 35.8051 36.8351 35.8183C36.8462 35.8321 36.8515 35.8473 36.8515 35.8631C36.8515 35.8947 36.8364 35.9145 36.8068 35.9224C36.7871 35.9303 36.766 35.9356 36.743 35.9389C36.72 35.9415 36.699 35.9435 36.6792 35.9435L36.6806 35.9428Z" fill="#707072"/>
<path d="M37.8371 35.1212C37.8371 35.0995 37.8443 35.0824 37.8575 35.0705C37.8713 35.0587 37.8871 35.0527 37.9048 35.0527C37.9206 35.0527 37.9357 35.0587 37.9495 35.0705C37.9634 35.0824 37.9699 35.0995 37.9699 35.1212V35.5396C37.9699 35.6621 37.9344 35.7603 37.8634 35.8334C37.7924 35.9065 37.6958 35.9434 37.5735 35.9434C37.4827 35.9434 37.4084 35.9249 37.3512 35.8874C37.294 35.8498 37.252 35.7998 37.2257 35.7379C37.1987 35.6759 37.1855 35.6087 37.1855 35.5376V35.1226C37.1855 35.1008 37.1928 35.0837 37.2066 35.0718C37.2204 35.06 37.2362 35.0541 37.2539 35.0541C37.2697 35.0541 37.2848 35.06 37.2986 35.0718C37.3124 35.0837 37.319 35.1008 37.319 35.1226V35.5494C37.319 35.6463 37.3447 35.7155 37.3959 35.757C37.4472 35.7985 37.5064 35.8189 37.5735 35.8189C37.6366 35.8189 37.6964 35.7985 37.7523 35.757C37.8082 35.7155 37.8365 35.6483 37.8365 35.5554V35.1226L37.8371 35.1212Z" fill="#707072"/>
<path d="M38.5117 35.4948V35.8742C38.5117 35.894 38.5058 35.9105 38.494 35.923C38.4821 35.9355 38.4664 35.9421 38.4466 35.9421C38.4269 35.9421 38.4105 35.9355 38.398 35.923C38.3855 35.9098 38.3789 35.894 38.3789 35.8742V35.1331C38.3789 35.1114 38.3855 35.0949 38.3993 35.0844C38.4131 35.0732 38.4289 35.0679 38.4466 35.0679C38.4624 35.0679 38.4769 35.0732 38.4907 35.0844C38.5045 35.0956 38.5111 35.1114 38.5111 35.1331V35.2043C38.5347 35.1548 38.5742 35.1173 38.6294 35.0916C38.6846 35.0659 38.7366 35.0527 38.7865 35.0527C38.8161 35.0527 38.8457 35.058 38.8753 35.0679C38.895 35.0738 38.9095 35.085 38.918 35.1002C38.9272 35.116 38.9286 35.1338 38.9226 35.1535C38.9088 35.1931 38.8819 35.2089 38.8424 35.201C38.8069 35.1911 38.7773 35.1865 38.7537 35.1865C38.6767 35.1865 38.6169 35.2155 38.5748 35.2741C38.5321 35.3327 38.5111 35.4058 38.5111 35.4948H38.5117Z" fill="#707072"/>
<path d="M39.6275 35.9431C39.4894 35.9431 39.379 35.9022 39.2961 35.8199C39.2133 35.7382 39.1719 35.6249 39.1719 35.4806C39.1719 35.4015 39.1896 35.3297 39.2251 35.2658C39.2606 35.2013 39.3106 35.1499 39.3744 35.1117C39.4388 35.0728 39.5138 35.0537 39.6006 35.0537C39.6873 35.0537 39.7662 35.0728 39.8254 35.1117C39.8846 35.1505 39.9286 35.198 39.9569 35.254C39.9852 35.31 39.9996 35.366 39.9996 35.4213C39.9996 35.4549 39.9924 35.4826 39.9773 35.5043C39.9628 35.5261 39.9411 35.5372 39.9135 35.5372H39.3454C39.3336 35.5372 39.3251 35.5386 39.3205 35.5399C39.3159 35.5419 39.3132 35.5484 39.3132 35.5603C39.3132 35.5939 39.3244 35.6308 39.3461 35.6703C39.3678 35.7098 39.3987 35.7441 39.4395 35.7724C39.4796 35.8014 39.5269 35.8172 39.5802 35.8212C39.6374 35.8251 39.6939 35.8192 39.7491 35.8034C39.8044 35.7876 39.8537 35.7632 39.8971 35.729C39.9069 35.721 39.9175 35.7171 39.93 35.7171C39.9438 35.7171 39.9569 35.723 39.9701 35.7349C39.9825 35.7467 39.9891 35.7619 39.9891 35.779C39.9891 35.7961 39.9806 35.8146 39.9628 35.8324C39.9155 35.8699 39.8622 35.8976 39.8031 35.9154C39.7439 35.9332 39.6854 35.9424 39.6282 35.9424L39.6275 35.9431ZM39.8142 35.4332C39.83 35.4332 39.8419 35.4266 39.8497 35.4141C39.8576 35.4015 39.8596 35.3851 39.8557 35.3653C39.8497 35.3139 39.8228 35.2678 39.7754 35.2276C39.7281 35.1874 39.6696 35.167 39.6006 35.167C39.5493 35.167 39.5026 35.1795 39.4598 35.2039C39.4171 35.2283 39.3829 35.2599 39.3579 35.2975C39.3323 35.335 39.3192 35.3745 39.3192 35.416C39.3192 35.4259 39.3277 35.4305 39.3461 35.4305L39.8136 35.4332H39.8142Z" fill="#707072"/>
<path d="M23.5293 32.9794C23.2361 32.9794 22.9626 32.93 22.7075 32.8312C22.4523 32.7324 22.2518 32.5999 22.1052 32.4339C22.0348 32.3575 22 32.2679 22 32.1658C22 32.0571 22.0414 31.9616 22.1243 31.8786C22.2071 31.7956 22.3057 31.7541 22.4201 31.7541C22.5286 31.7541 22.6207 31.7923 22.6969 31.8687C22.8054 31.9708 22.9422 32.0505 23.1079 32.1078C23.2735 32.1651 23.4359 32.1941 23.5951 32.1941C23.7542 32.1941 23.9041 32.1572 24.0251 32.0841C24.146 32.011 24.2065 31.8944 24.2065 31.735C24.2065 31.6006 24.1506 31.4972 24.0395 31.424C23.9277 31.3509 23.7417 31.2916 23.4807 31.2468C23.0158 31.1704 22.6654 31.0406 22.4293 30.8588C22.194 30.677 22.0756 30.4201 22.0756 30.088C22.0756 29.731 22.2124 29.4451 22.4865 29.231C22.7601 29.0175 23.1204 28.9102 23.5661 28.9102C24.0119 28.9102 24.3913 29.0281 24.6648 29.2646C24.7733 29.3542 24.8272 29.4596 24.8272 29.5808C24.8272 29.6829 24.7871 29.7705 24.7075 29.8443C24.628 29.9174 24.5339 29.9543 24.4255 29.9543C24.3426 29.9543 24.2663 29.9319 24.196 29.8871C23.954 29.7336 23.6996 29.6572 23.4313 29.6572C23.2722 29.6572 23.1381 29.6895 23.0303 29.7527C22.9218 29.8166 22.8679 29.9121 22.8679 30.04C22.8679 30.1743 22.952 30.2791 23.121 30.3562C23.29 30.4326 23.5365 30.5031 23.8613 30.567C24.0395 30.5992 24.2164 30.6546 24.3913 30.7343C24.5662 30.814 24.7128 30.9339 24.8311 31.0933C24.9488 31.2527 25.008 31.4701 25.008 31.7442C25.008 32.1078 24.8693 32.4049 24.5925 32.6349C24.3157 32.8648 23.96 32.9794 23.5273 32.9794H23.5293Z" fill="#808285"/>
<path d="M26.9589 32.9798C26.6913 32.9798 26.4415 32.9192 26.2087 32.798C25.976 32.6768 25.7899 32.5009 25.6498 32.2716C25.5098 32.0417 25.4395 31.7677 25.4395 31.4482C25.446 31.0081 25.5887 30.6583 25.8694 30.4001C26.1495 30.1418 26.5125 30.0127 26.9589 30.0127C27.1305 30.0127 27.2995 30.0318 27.4652 30.07C27.6308 30.1082 27.7742 30.1787 27.8952 30.2808C27.9905 30.3572 28.0385 30.4567 28.0385 30.5773C28.0385 30.6794 28.0017 30.7723 27.9287 30.8546C27.8557 30.9376 27.7643 30.9791 27.6565 30.9791C27.5861 30.9791 27.5224 30.96 27.4652 30.9218C27.3698 30.8711 27.285 30.8355 27.212 30.8164C27.139 30.7973 27.0575 30.7874 26.9681 30.7874C26.7577 30.7874 26.5861 30.848 26.452 30.9692C26.3179 31.0904 26.2514 31.2532 26.2514 31.4574C26.2514 31.6939 26.3244 31.877 26.471 32.0081C26.6177 32.1392 26.7893 32.2044 26.9872 32.2044C27.2101 32.2044 27.4205 32.1214 27.6177 31.9554C27.694 31.8981 27.7669 31.8691 27.8373 31.8691C27.9392 31.8691 28.0267 31.9106 28.1003 31.9936C28.1733 32.0766 28.2101 32.1721 28.2101 32.2808C28.2101 32.3256 28.2009 32.3751 28.1818 32.4291C28.1628 32.4831 28.1272 32.5358 28.0766 32.5872C27.9044 32.7275 27.7216 32.8283 27.527 32.8889C27.3323 32.9495 27.143 32.9798 26.9582 32.9798H26.9589Z" fill="#808285"/>
<path d="M29.1663 32.9796C29.0453 32.9796 28.9434 32.9447 28.8606 32.8742C28.7778 32.8037 28.7363 32.7148 28.7363 32.6061V29.0447C28.7363 28.9426 28.7758 28.855 28.8553 28.7819C28.9349 28.7088 29.0381 28.6719 29.1657 28.6719C29.2866 28.6719 29.3853 28.7088 29.4615 28.7819C29.5378 28.855 29.5759 28.9466 29.5759 29.0546V30.328C29.6588 30.2325 29.7699 30.1554 29.9106 30.0981C30.0506 30.0408 30.2005 30.0118 30.3597 30.0118C30.716 30.0118 31.0046 30.1172 31.2242 30.328C31.4438 30.5388 31.5536 30.8735 31.5536 31.3333V32.6258C31.5536 32.7279 31.5135 32.8123 31.434 32.8795C31.3544 32.9467 31.2538 32.9802 31.1329 32.9802C31.0119 32.9802 30.9113 32.9453 30.8317 32.8748C30.7522 32.8044 30.7121 32.7154 30.7121 32.6067V31.4387C30.7121 31.2029 30.6595 31.0336 30.5543 30.9315C30.4491 30.8294 30.3202 30.778 30.1677 30.778C30.0151 30.778 29.8777 30.8307 29.7758 30.9361C29.6739 31.0415 29.6068 31.1581 29.5753 31.2859V32.5975C29.5753 32.7062 29.5352 32.7971 29.4556 32.8702C29.3761 32.9434 29.2788 32.9802 29.1644 32.9802L29.1663 32.9796Z" fill="#808285"/>
<path d="M33.5897 32.9795C33.3155 32.9795 33.0643 32.9156 32.8349 32.7878C32.6054 32.66 32.4226 32.4828 32.2859 32.2568C32.1491 32.0302 32.0801 31.7733 32.0801 31.486C32.0801 31.1988 32.1485 30.9353 32.2859 30.7153C32.4226 30.4953 32.6061 30.3227 32.8349 30.1982C33.0643 30.0736 33.3161 30.0117 33.5897 30.0117C33.8632 30.0117 34.1229 30.0736 34.3491 30.1982C34.5752 30.3227 34.7554 30.4946 34.8889 30.7153C35.0223 30.9353 35.0894 31.1922 35.0894 31.486C35.0894 31.7799 35.0223 32.0302 34.8889 32.2568C34.7547 32.4834 34.5752 32.6606 34.3491 32.7878C34.1229 32.9156 33.8697 32.9795 33.5897 32.9795ZM33.5897 32.2041C33.7869 32.2041 33.948 32.1356 34.0723 31.9986C34.1965 31.8615 34.2583 31.6909 34.2583 31.486C34.2583 31.2812 34.1965 31.1066 34.0723 30.9788C33.948 30.851 33.7869 30.7871 33.5897 30.7871C33.3924 30.7871 33.2379 30.851 33.1071 30.9788C32.9762 31.1066 32.9111 31.2752 32.9111 31.486C32.9111 31.6969 32.9762 31.8609 33.1071 31.9986C33.2379 32.1356 33.3983 32.2041 33.5897 32.2041Z" fill="#808285"/>
<path d="M37.077 32.9795C36.8028 32.9795 36.5516 32.9156 36.3222 32.7878C36.0927 32.66 35.9099 32.4828 35.7732 32.2568C35.6364 32.0302 35.5674 31.7733 35.5674 31.486C35.5674 31.1988 35.6358 30.9353 35.7732 30.7153C35.9099 30.4953 36.0934 30.3227 36.3222 30.1982C36.5516 30.0736 36.8034 30.0117 37.077 30.0117C37.3505 30.0117 37.6102 30.0736 37.8364 30.1982C38.0625 30.3227 38.2427 30.4946 38.3762 30.7153C38.5096 30.9353 38.5767 31.1922 38.5767 31.486C38.5767 31.7799 38.5096 32.0302 38.3762 32.2568C38.242 32.4834 38.0625 32.6606 37.8364 32.7878C37.6102 32.9156 37.3571 32.9795 37.077 32.9795ZM37.077 32.2041C37.2742 32.2041 37.4353 32.1356 37.5596 31.9986C37.6838 31.8615 37.7456 31.6909 37.7456 31.486C37.7456 31.2812 37.6838 31.1066 37.5596 30.9788C37.4353 30.851 37.2742 30.7871 37.077 30.7871C36.8797 30.7871 36.7252 30.851 36.5944 30.9788C36.4635 31.1066 36.3984 31.2752 36.3984 31.486C36.3984 31.6969 36.4635 31.8609 36.5944 31.9986C36.7252 32.1356 36.8856 32.2041 37.077 32.2041Z" fill="#808285"/>
<path d="M39.5901 32.9796C39.4692 32.9796 39.3673 32.9447 39.2844 32.8742C39.2016 32.8037 39.1602 32.7148 39.1602 32.6061V29.0447C39.1602 28.9426 39.1996 28.855 39.2798 28.7819C39.3594 28.7088 39.4626 28.6719 39.5901 28.6719C39.7111 28.6719 39.8097 28.7088 39.886 28.7819C39.9623 28.855 40.0004 28.9466 40.0004 29.0546V32.5968C40.0004 32.7055 39.961 32.7964 39.8808 32.8696C39.8005 32.9427 39.7039 32.9796 39.5895 32.9796H39.5901Z" fill="#808285"/>
<path d="M5.08859 32.9795C4.66188 32.9795 4.31604 32.8438 4.05174 32.5724C3.78743 32.301 3.65527 31.9393 3.65527 31.486C3.65527 31.0328 3.78414 30.6738 4.04253 30.409C4.30027 30.1441 4.63953 30.0117 5.06032 30.0117C5.35947 30.0117 5.62115 30.1171 5.84404 30.3279C5.86968 30.2515 5.91702 30.1876 5.98737 30.1362C6.05772 30.0848 6.1399 30.0598 6.2359 30.0598C6.36345 30.0598 6.46667 30.0967 6.54623 30.1698C6.62579 30.2429 6.66589 30.3312 6.66589 30.4333V32.6066C6.66589 32.7153 6.62579 32.8049 6.54623 32.8747C6.46667 32.9452 6.36345 32.9801 6.2359 32.9801C6.0255 32.9801 5.89532 32.8873 5.84404 32.7028C5.64022 32.8879 5.3884 32.9801 5.08925 32.9801L5.08859 32.9795ZM5.15565 32.2041C5.35947 32.2041 5.52187 32.1356 5.64285 31.9986C5.76382 31.8615 5.82431 31.6909 5.82431 31.486C5.82431 31.2812 5.76382 31.1066 5.64285 30.9788C5.52187 30.851 5.35947 30.7871 5.15565 30.7871C4.95183 30.7871 4.79732 30.851 4.67306 30.9788C4.54879 31.1066 4.48699 31.2752 4.48699 31.486C4.48699 31.6969 4.54945 31.8609 4.67306 31.9986C4.79732 32.1356 4.95841 32.2041 5.15565 32.2041Z" fill="#383767"/>
<path d="M8.5765 32.98C8.30233 32.98 8.07616 32.9003 7.89798 32.7409C7.7198 32.5815 7.63038 32.3357 7.63038 32.0037V30.9695C7.63038 30.9056 7.59817 30.8739 7.53505 30.8739H7.39172C7.27731 30.8739 7.19118 30.839 7.13398 30.7685C7.07678 30.698 7.04785 30.6091 7.04785 30.5004C7.04785 30.3858 7.07678 30.2916 7.13398 30.2178C7.19118 30.1447 7.27731 30.1078 7.39172 30.1078H7.53505C7.59882 30.1078 7.63038 30.0762 7.63038 30.0123V29.3041C7.63038 29.1954 7.66852 29.1032 7.74478 29.0267C7.82105 28.9503 7.91968 28.9121 8.04065 28.9121C8.16163 28.9121 8.26222 28.949 8.34178 29.0221C8.42134 29.0952 8.46144 29.1895 8.46144 29.3047V30.0129C8.46144 30.0768 8.493 30.1084 8.55678 30.1084H8.9105C9.01899 30.1084 9.10972 30.1466 9.1827 30.2231C9.25568 30.2995 9.2925 30.3924 9.2925 30.5004C9.2925 30.6084 9.25568 30.698 9.1827 30.7685C9.10972 30.839 9.0157 30.8739 8.90064 30.8739H8.55678C8.493 30.8739 8.46144 30.9062 8.46144 30.9695V31.8693C8.46144 31.984 8.48182 32.0643 8.52324 32.1085C8.56467 32.1533 8.61727 32.1757 8.68104 32.1757C8.70603 32.1757 8.75731 32.1678 8.83358 32.1519C8.90985 32.1361 8.95784 32.1282 8.97691 32.1282C9.07882 32.1282 9.16495 32.1664 9.23464 32.2429C9.30499 32.3193 9.33984 32.4122 9.33984 32.5202C9.33984 32.6032 9.31617 32.6796 9.26817 32.7501C9.22018 32.8206 9.14523 32.8713 9.04331 32.9036C8.96047 32.9286 8.88092 32.9484 8.80465 32.9609C8.72838 32.9734 8.65211 32.98 8.57519 32.98H8.5765Z" fill="#383767"/>
<path d="M11.6999 30.4235C11.6999 30.3022 11.7394 30.2034 11.8196 30.1263C11.8991 30.0499 11.9997 30.0117 12.1207 30.0117C12.2417 30.0117 12.3416 30.0519 12.4218 30.1316C12.5014 30.2113 12.5408 30.3088 12.5408 30.4235V31.7733C12.5408 32.0348 12.4738 32.2568 12.3403 32.4386C12.2062 32.6205 12.0346 32.7562 11.8242 32.8458C11.6138 32.9347 11.3909 32.9801 11.1555 32.9801C10.9201 32.9801 10.7064 32.9353 10.4961 32.8458C10.2857 32.7562 10.1121 32.6205 9.97532 32.4386C9.83857 32.2568 9.76953 32.0348 9.76953 31.7733V30.4235C9.76953 30.3022 9.80898 30.2034 9.88919 30.1263C9.96875 30.0499 10.0693 30.0117 10.1903 30.0117C10.3113 30.0117 10.4119 30.0519 10.4914 30.1316C10.571 30.2113 10.6111 30.3088 10.6111 30.4235V31.7351C10.6111 31.8695 10.6617 31.9808 10.7636 32.0704C10.8656 32.16 10.9957 32.2048 11.1555 32.2048C11.3153 32.2048 11.4455 32.16 11.5474 32.0704C11.6493 31.9814 11.6999 31.8695 11.6999 31.7351V30.4235Z" fill="#383767"/>
<path d="M14.4613 34.272C14.2831 34.272 14.1108 34.2542 13.9451 34.2193C13.7795 34.1844 13.6295 34.1317 13.4961 34.0612C13.3435 33.9782 13.2666 33.8504 13.2666 33.6784C13.2666 33.5697 13.3048 33.4755 13.381 33.3958C13.4573 33.3161 13.5467 33.2759 13.6486 33.2759C13.7315 33.2759 13.8044 33.295 13.8682 33.3332C13.9701 33.3906 14.0766 33.4321 14.1884 33.4578C14.2995 33.4834 14.41 33.496 14.5178 33.496C14.7598 33.496 14.9399 33.4413 15.0576 33.3332C15.1753 33.2245 15.2345 33.0809 15.2345 32.9024V32.6824C15.0306 32.8807 14.7788 32.9795 14.4797 32.9795C14.053 32.9795 13.7104 32.8438 13.4527 32.5724C13.1943 32.301 13.0654 31.9393 13.0654 31.486C13.0654 31.0328 13.191 30.6738 13.4428 30.409C13.6946 30.1441 14.0306 30.0117 14.4507 30.0117C14.7565 30.0117 15.0208 30.1303 15.2437 30.3661C15.2627 30.2772 15.3088 30.2034 15.3824 30.1461C15.4554 30.0888 15.5461 30.0598 15.6546 30.0598C15.7822 30.0598 15.8841 30.098 15.9603 30.1744C16.0366 30.2509 16.0747 30.347 16.0747 30.4617V32.9222C16.0747 33.3306 15.9327 33.658 15.6493 33.9037C15.366 34.1495 14.9695 34.2727 14.46 34.2727L14.4613 34.272ZM14.5474 32.2041C14.7387 32.2041 14.8926 32.1356 15.0109 31.9986C15.1286 31.8615 15.1878 31.6909 15.1878 31.486C15.1878 31.2812 15.1286 31.1066 15.0109 30.9788C14.8932 30.851 14.7387 30.7871 14.5474 30.7871C14.3561 30.7871 14.1924 30.851 14.0747 30.9788C13.957 31.1066 13.8978 31.2752 13.8978 31.486C13.8978 31.6969 13.957 31.8609 14.0747 31.9986C14.1924 32.1356 14.3502 32.2041 14.5474 32.2041Z" fill="#383767"/>
<path d="M17.987 32.9795C17.5603 32.9795 17.2145 32.8438 16.9502 32.5724C16.6859 32.301 16.5537 31.9393 16.5537 31.486C16.5537 31.0328 16.6826 30.6738 16.941 30.409C17.1987 30.1441 17.538 30.0117 17.9588 30.0117C18.2579 30.0117 18.5196 30.1171 18.7425 30.3279C18.7681 30.2515 18.8155 30.1876 18.8858 30.1362C18.9562 30.0848 19.0383 30.0598 19.1343 30.0598C19.2619 30.0598 19.3651 30.0967 19.4447 30.1698C19.5242 30.2429 19.5643 30.3312 19.5643 30.4333V32.6066C19.5643 32.7153 19.5242 32.8049 19.4447 32.8747C19.3651 32.9452 19.2619 32.9801 19.1343 32.9801C18.9239 32.9801 18.7938 32.8873 18.7425 32.7028C18.5387 32.8879 18.2868 32.9801 17.9877 32.9801L17.987 32.9795ZM18.0541 32.2041C18.2579 32.2041 18.4203 32.1356 18.5413 31.9986C18.6623 31.8615 18.7228 31.6909 18.7228 31.486C18.7228 31.2812 18.6623 31.1066 18.5413 30.9788C18.4203 30.851 18.2579 30.7871 18.0541 30.7871C17.8503 30.7871 17.6958 30.851 17.5715 30.9788C17.4472 31.1066 17.3854 31.2752 17.3854 31.486C17.3854 31.6969 17.4479 31.8609 17.5715 31.9986C17.6958 32.1356 17.8568 32.2041 18.0541 32.2041Z" fill="#383767"/>
<path d="M2.03007 31.6243C2.40372 31.6243 2.70662 31.3208 2.70662 30.9464C2.70662 30.5721 2.40372 30.2686 2.03007 30.2686C1.65642 30.2686 1.35352 30.5721 1.35352 30.9464C1.35352 31.3208 1.65642 31.6243 2.03007 31.6243Z" fill="#383767"/>
<path d="M2.03007 30.2679C2.40372 30.2679 2.70662 29.9644 2.70662 29.59C2.70662 29.2156 2.40372 28.9121 2.03007 28.9121C1.65642 28.9121 1.35352 29.2156 1.35352 29.59C1.35352 29.9644 1.65642 30.2679 2.03007 30.2679Z" fill="#383767"/>
<path d="M3.38261 30.2679C3.75625 30.2679 4.05916 29.9644 4.05916 29.59C4.05916 29.2156 3.75625 28.9121 3.38261 28.9121C3.00896 28.9121 2.70605 29.2156 2.70605 29.59C2.70605 29.9644 3.00896 30.2679 3.38261 30.2679Z" fill="#9291E0"/>
<path d="M0.677527 28.9131C0.304077 28.9131 0.000976562 29.2161 0.000976562 29.591C0.000976562 29.9658 0.303419 30.2688 0.677527 30.2688C1.05164 30.2688 1.35408 29.9658 1.35408 29.591C1.35408 29.2161 1.05164 28.9131 0.677527 28.9131ZM0.677527 30.0646C0.416506 30.0646 0.204797 29.8525 0.204797 29.591C0.204797 29.3294 0.416506 29.1173 0.677527 29.1173C0.938549 29.1173 1.15026 29.3294 1.15026 29.591C1.15026 29.8525 0.938549 30.0646 0.677527 30.0646Z" fill="#9291E0"/>
</svg>
