<svg width="398" height="53" viewBox="0 0 398 53" fill="none" xmlns="http://www.w3.org/2000/svg">
<path d="M43.8329 52.4994C48.6196 52.4994 52.4999 48.619 52.4999 43.8322C52.4999 39.0455 48.6196 35.165 43.8329 35.165C39.0463 35.165 35.166 39.0455 35.166 43.8322C35.166 48.619 39.0463 52.4994 43.8329 52.4994Z" fill="white"/>
<path d="M43.8323 17.8326H26.5V35.1654H43.8323C48.6187 35.1654 52.4992 31.2848 52.4992 26.4982C52.4992 21.7117 48.6187 17.8311 43.8323 17.8311V17.8326Z" fill="white"/>
<path d="M26.5009 52.4994C31.2875 52.4994 35.1678 48.619 35.1678 43.8322C35.1678 39.0455 31.2875 35.165 26.5009 35.165C21.7143 35.165 17.834 39.0455 17.834 43.8322C17.834 48.619 21.7143 52.4994 26.5009 52.4994Z" fill="white"/>
<path d="M17.8338 26.5002C17.8338 21.7136 13.9533 17.833 9.16692 17.833C4.3805 17.833 0.5 21.7136 0.5 26.5002C0.5 26.6987 0.517331 26.8941 0.529935 27.0895H0.5V43.833H17.8323V27.0895H17.8023C17.8149 26.8941 17.8323 26.6987 17.8323 26.5002H17.8338Z" fill="white"/>
<path d="M26.5009 35.1674C31.2875 35.1674 35.1678 31.287 35.1678 26.5002C35.1678 21.7134 31.2875 17.833 26.5009 17.833C21.7143 17.833 17.834 21.7134 17.834 26.5002C17.834 31.287 21.7143 35.1674 26.5009 35.1674Z" fill="white"/>
<path d="M9.16692 52.4994C13.9535 52.4994 17.8338 48.619 17.8338 43.8322C17.8338 39.0455 13.9535 35.165 9.16692 35.165C4.38031 35.165 0.5 39.0455 0.5 43.8322C0.5 48.619 4.38031 52.4994 9.16692 52.4994Z" fill="white"/>
<path d="M26.4992 0.5H9.16692C4.3805 0.5 0.5 4.38062 0.5 9.16719C0.5 13.9538 4.3805 17.8344 9.16692 17.8344H26.4992C31.2856 17.8344 35.1661 13.9538 35.1661 9.16719C35.1661 4.38062 31.2856 0.5 26.4992 0.5Z" fill="white"/>
<path d="M43.8329 0.5C39.0465 0.5 35.166 4.38062 35.166 9.16719C35.166 13.9538 39.0465 17.8344 43.8329 17.8344C48.6194 17.8344 52.4999 13.9538 52.4999 9.16719C52.4999 4.38062 48.6194 0.5 43.8329 0.5ZM43.8329 15.2284C40.485 15.2284 37.7703 12.5137 37.7703 9.16562C37.7703 5.81754 40.485 3.10284 43.8329 3.10284C47.1809 3.10284 49.8955 5.81754 49.8955 9.16562C49.8955 12.5137 47.1809 15.2284 43.8329 15.2284Z" fill="white"/>
<path d="M80.5912 16.5215H86.638C88.3077 16.5215 89.6628 15.1666 89.6628 13.4907C89.6628 11.8178 88.3106 10.46 86.638 10.46H80.5912C78.9216 10.46 77.5664 11.8148 77.5664 13.4907C77.5664 15.1637 78.9186 16.5215 80.5912 16.5215Z" fill="white"/>
<path d="M77.5664 19.5513V25.6098C77.5664 27.2828 78.9186 28.6406 80.5912 28.6406C82.2609 28.6406 83.6161 27.2858 83.6161 25.6098V19.5513C83.6161 17.8783 82.2639 16.5205 80.5912 16.5205C78.9216 16.5205 77.5664 17.8754 77.5664 19.5513Z" fill="white"/>
<path d="M72.1653 41.7612C71.9713 41.7612 71.8155 41.7082 71.6949 41.6022C71.5744 41.4962 71.5156 41.3371 71.5156 41.125V37.1076C71.5156 36.9397 71.5715 36.8013 71.6802 36.6894C71.789 36.5804 71.9301 36.5244 72.0977 36.5244H74.2818C74.3788 36.5244 74.4493 36.5568 74.4934 36.6157C74.5375 36.6746 74.5581 36.7483 74.5581 36.8278C74.5581 36.8985 74.5316 36.9603 74.4787 37.0133C74.4258 37.0664 74.3582 37.0929 74.2788 37.0929H72.618C72.3093 37.0929 72.1565 37.249 72.1565 37.5582V38.3653C72.1565 38.6745 72.3093 38.8306 72.618 38.8306H74.0995C74.2847 38.8306 74.3758 38.9219 74.3758 39.1075C74.3758 39.2754 74.2847 39.3578 74.0995 39.3578H72.618C72.3093 39.3578 72.1565 39.5139 72.1565 39.8203V40.7215C72.1565 41.0308 72.3093 41.184 72.618 41.184H74.3523C74.4582 41.184 74.5316 41.2164 74.5699 41.2753C74.611 41.3371 74.6286 41.4049 74.6286 41.4755C74.6286 41.5374 74.6081 41.5992 74.564 41.6611C74.5199 41.723 74.4493 41.7524 74.3523 41.7524H72.1653V41.7612Z" fill="white"/>
<path d="M76.625 41.8922C76.5369 41.8922 76.4634 41.8628 76.4075 41.8068C76.3517 41.7479 76.3223 41.6772 76.3223 41.5889V38.2753C76.3223 38.1782 76.3517 38.1045 76.4134 38.0574C76.4751 38.0073 76.5457 37.9838 76.625 37.9838C76.6956 37.9838 76.7603 38.0073 76.822 38.0574C76.8837 38.1075 76.9131 38.1782 76.9131 38.2753V38.5522C77.063 38.3401 77.2541 38.1811 77.4893 38.0751C77.7244 37.969 77.9626 37.916 78.2095 37.916C78.5005 37.916 78.7621 37.9867 78.9973 38.1281C79.2325 38.2695 79.4088 38.4874 79.5323 38.779C79.6998 38.4432 79.9233 38.2164 80.1996 38.0957C80.4759 37.9749 80.7405 37.916 80.9874 37.916C81.4019 37.916 81.7517 38.0633 82.0398 38.3549C82.3278 38.6465 82.4689 39.1059 82.4689 39.7333V41.5889C82.4689 41.6772 82.4425 41.7509 82.3896 41.8068C82.3367 41.8628 82.2661 41.8922 82.1779 41.8922C82.0897 41.8922 82.0162 41.8628 81.9604 41.8068C81.9045 41.7509 81.8751 41.6772 81.8751 41.5889V39.7745C81.8751 39.3239 81.7899 38.997 81.6165 38.7937C81.446 38.5905 81.2079 38.4874 80.908 38.4874C80.6082 38.4874 80.3701 38.561 80.1937 38.7054C80.0173 38.8526 79.888 39.0294 79.8116 39.2414C79.7322 39.4535 79.691 39.6714 79.691 39.8894V41.5859C79.691 41.6743 79.6646 41.7479 79.6117 41.8039C79.5587 41.8598 79.4882 41.8893 79.4 41.8893C79.3118 41.8893 79.2383 41.8598 79.1825 41.8039C79.1237 41.745 79.0972 41.6743 79.0972 41.5859V39.7834C79.0972 39.3327 79.012 39.0028 78.8386 38.7967C78.6651 38.5905 78.4299 38.4845 78.1301 38.4845C77.8303 38.4845 77.5922 38.5581 77.4158 38.7024C77.2394 38.8497 77.1101 39.0294 77.0307 39.2473C76.9513 39.4653 76.9102 39.6773 76.9102 39.8894V41.5859C76.9102 41.6743 76.8837 41.7479 76.8308 41.8039C76.7779 41.8598 76.7074 41.8893 76.6192 41.8893L76.625 41.8922Z" fill="white"/>
<path d="M86.2556 41.8922C85.9734 41.8922 85.7147 41.8363 85.4825 41.7273C85.2473 41.6183 85.0533 41.4652 84.8946 41.2708V43.3119C84.8946 43.4002 84.8681 43.4739 84.8152 43.5298C84.7623 43.5888 84.6917 43.6153 84.6036 43.6153C84.5154 43.6153 84.4419 43.5858 84.386 43.5298C84.3302 43.4709 84.3008 43.4002 84.3008 43.3119V38.2753C84.3008 38.1782 84.3302 38.1045 84.3919 38.0574C84.4536 38.0073 84.5242 37.9838 84.6036 37.9838C84.6741 37.9838 84.7388 38.0073 84.8005 38.0574C84.8622 38.1075 84.8916 38.1782 84.8916 38.2753V38.5139C85.2356 38.1163 85.6912 37.916 86.2556 37.916C86.82 37.916 87.2521 38.0986 87.6049 38.4668C87.9576 38.832 88.134 39.3033 88.134 39.8776C88.134 40.452 87.9576 40.9527 87.6049 41.3297C87.2521 41.7067 86.8024 41.8922 86.2556 41.8922ZM86.2556 41.3473C86.6348 41.3473 86.9405 41.206 87.1757 40.9232C87.4079 40.6405 87.5255 40.29 87.5255 39.8747C87.5255 39.4594 87.4079 39.1413 87.1757 38.8674C86.9405 38.5934 86.6348 38.455 86.2556 38.455C85.8499 38.455 85.5207 38.5758 85.2708 38.8143C85.018 39.0529 84.8946 39.4064 84.8946 39.8747C84.8946 40.343 85.021 40.7288 85.2708 40.9762C85.5207 41.2236 85.8499 41.3473 86.2556 41.3473Z" fill="white"/>
<path d="M91.7097 41.8922C91.3393 41.8922 91.0071 41.8039 90.7161 41.6271C90.4251 41.4504 90.1929 41.2089 90.0224 40.9055C89.8489 40.5992 89.7637 40.2576 89.7637 39.8776C89.7637 39.4977 89.8489 39.1619 90.0224 38.8703C90.1929 38.5787 90.4251 38.346 90.7161 38.1752C91.0071 38.0014 91.3393 37.916 91.7097 37.916C92.0801 37.916 92.4122 38.0014 92.7091 38.1752C93.0031 38.349 93.2383 38.5787 93.4117 38.8703C93.5851 39.1619 93.6704 39.4977 93.6704 39.8776C93.6704 40.2576 93.5851 40.5992 93.4117 40.9055C93.2412 41.2119 93.006 41.4504 92.7091 41.6271C92.4152 41.8039 92.0801 41.8922 91.7097 41.8922ZM91.7097 41.3473C92.1242 41.3473 92.4563 41.206 92.7033 40.9232C92.9502 40.6405 93.0736 40.29 93.0736 39.8747C93.0736 39.4594 92.9502 39.1413 92.7033 38.8674C92.4563 38.5934 92.1242 38.455 91.7097 38.455C91.2952 38.455 90.9807 38.5934 90.7367 38.8674C90.4927 39.1413 90.3722 39.477 90.3722 39.8747C90.3722 40.2723 90.4927 40.6405 90.7367 40.9232C90.9807 41.206 91.304 41.3473 91.7097 41.3473Z" fill="white"/>
<path d="M96.3489 41.8952C96.0843 41.8952 95.9109 41.7626 95.8315 41.4976L94.8379 38.3284C94.8291 38.3019 94.8262 38.2636 94.8262 38.2076C94.8262 38.1281 94.8556 38.0603 94.9114 38.0014C94.9702 37.9455 95.0408 37.916 95.1289 37.916C95.2789 37.916 95.37 37.9838 95.4053 38.1163L96.2107 40.9674C96.2372 41.0558 96.2813 41.0999 96.343 41.0999C96.4047 41.0999 96.4488 41.0558 96.4753 40.9674L97.1896 38.4609C97.2072 38.3902 97.2543 38.3313 97.3336 38.2812C97.413 38.2341 97.5012 38.2076 97.5982 38.2076C97.6952 38.2076 97.7834 38.2312 97.8628 38.2812C97.9421 38.3313 97.9892 38.3902 98.0097 38.4609L98.7241 40.9674C98.7505 41.0558 98.7946 41.0999 98.8563 41.0999C98.9181 41.0999 98.9622 41.0558 98.9886 40.9674L99.797 38.131C99.8323 37.9897 99.9293 37.919 100.088 37.919C100.167 37.919 100.235 37.9425 100.294 37.9926C100.35 38.0427 100.379 38.1104 100.379 38.1988C100.379 38.2429 100.373 38.2783 100.364 38.3048L99.3737 41.5005C99.2943 41.7656 99.1209 41.8981 98.8563 41.8981C98.5918 41.8981 98.4095 41.7656 98.339 41.5005L97.704 39.1943C97.6864 39.1236 97.6511 39.0883 97.5982 39.0883C97.5541 39.0883 97.5188 39.1236 97.4924 39.1943L96.8574 41.5005C96.7869 41.7656 96.6134 41.8981 96.3401 41.8981L96.3489 41.8952Z" fill="white"/>
<path d="M103.725 41.8922C103.107 41.8922 102.613 41.7096 102.243 41.3414C101.873 40.9762 101.688 40.4696 101.688 39.8246C101.688 39.4712 101.767 39.1501 101.926 38.8644C102.084 38.5758 102.308 38.346 102.593 38.1752C102.878 38.0044 103.216 37.916 103.604 37.916C103.992 37.916 104.345 38.0014 104.609 38.1752C104.874 38.349 105.071 38.561 105.197 38.8114C105.324 39.0617 105.388 39.3121 105.388 39.5595C105.388 39.7097 105.356 39.8334 105.288 39.9306C105.224 40.0278 105.127 40.0779 105.003 40.0779H102.464C102.411 40.0779 102.372 40.0838 102.352 40.0897C102.331 40.0985 102.32 40.128 102.32 40.181C102.32 40.3312 102.369 40.4961 102.466 40.6729C102.563 40.8496 102.702 41.0027 102.884 41.1294C103.063 41.259 103.275 41.3297 103.513 41.3473C103.769 41.365 104.022 41.3385 104.268 41.2678C104.515 41.1971 104.736 41.0882 104.93 40.935C104.974 40.8997 105.021 40.882 105.077 40.882C105.139 40.882 105.197 40.9085 105.256 40.9615C105.312 41.0145 105.341 41.0823 105.341 41.1588C105.341 41.2354 105.303 41.3179 105.224 41.3974C105.012 41.5653 104.774 41.689 104.51 41.7685C104.245 41.848 103.983 41.8893 103.728 41.8893L103.725 41.8922ZM104.559 39.6125C104.63 39.6125 104.683 39.5831 104.718 39.5271C104.753 39.4712 104.762 39.3975 104.745 39.3092C104.718 39.0794 104.598 38.8732 104.386 38.6936C104.174 38.5139 103.913 38.4226 103.604 38.4226C103.375 38.4226 103.166 38.4786 102.975 38.5876C102.784 38.6965 102.631 38.8379 102.519 39.0058C102.405 39.1737 102.346 39.3504 102.346 39.536C102.346 39.5801 102.384 39.6008 102.466 39.6008L104.557 39.6125H104.559Z" fill="white"/>
<path d="M107.682 39.8923V41.5889C107.682 41.6772 107.655 41.7509 107.602 41.8068C107.549 41.8628 107.479 41.8922 107.391 41.8922C107.302 41.8922 107.229 41.8628 107.173 41.8068C107.117 41.7479 107.088 41.6772 107.088 41.5889V38.2753C107.088 38.1782 107.117 38.1045 107.179 38.0574C107.241 38.0073 107.311 37.9838 107.391 37.9838C107.461 37.9838 107.526 38.0073 107.588 38.0574C107.649 38.1075 107.679 38.1782 107.679 38.2753V38.5934C107.785 38.3725 107.961 38.2047 108.208 38.0898C108.455 37.9749 108.687 37.916 108.91 37.916C109.043 37.916 109.175 37.9396 109.307 37.9838C109.395 38.0103 109.46 38.0603 109.498 38.1281C109.54 38.1988 109.545 38.2783 109.519 38.3667C109.457 38.5434 109.337 38.6141 109.16 38.5787C109.002 38.5345 108.869 38.5139 108.763 38.5139C108.42 38.5139 108.152 38.6435 107.964 38.9056C107.773 39.1678 107.679 39.4947 107.679 39.8923H107.682Z" fill="white"/>
<path d="M111.289 37.043C111.148 37.043 111.036 37.0017 110.951 36.9163C110.868 36.8309 110.824 36.7249 110.824 36.5923C110.824 36.4509 110.865 36.339 110.951 36.2536C111.036 36.1682 111.148 36.127 111.289 36.127C111.43 36.127 111.541 36.1682 111.627 36.2536C111.712 36.339 111.753 36.4509 111.753 36.5923C111.753 36.7249 111.712 36.8338 111.627 36.9163C111.541 36.9988 111.43 37.043 111.289 37.043ZM111.327 41.8939C111.239 41.8939 111.165 41.8645 111.109 41.8085C111.054 41.7526 111.024 41.6789 111.024 41.5906V38.2093C111.024 38.1121 111.054 38.0385 111.115 37.9914C111.177 37.9413 111.248 37.9177 111.327 37.9177C111.397 37.9177 111.462 37.9413 111.524 37.9914C111.586 38.0414 111.615 38.1121 111.615 38.2093V41.5906C111.615 41.6789 111.589 41.7526 111.536 41.8085C111.483 41.8645 111.412 41.8939 111.324 41.8939H111.327Z" fill="white"/>
<path d="M116.791 41.8922C116.703 41.8922 116.63 41.8628 116.574 41.8068C116.518 41.7509 116.489 41.6772 116.489 41.5889V39.7863C116.489 39.3445 116.397 39.0176 116.212 38.8055C116.027 38.5934 115.765 38.4874 115.43 38.4874C115.122 38.4874 114.869 38.561 114.669 38.7054C114.469 38.8526 114.328 39.0323 114.24 39.2503C114.152 39.4682 114.107 39.6803 114.107 39.8923V41.5889C114.107 41.6772 114.081 41.7509 114.028 41.8068C113.975 41.8628 113.905 41.8922 113.816 41.8922C113.728 41.8922 113.655 41.8628 113.599 41.8068C113.543 41.7479 113.514 41.6772 113.514 41.5889V38.2753C113.514 38.1782 113.543 38.1045 113.605 38.0574C113.667 38.0073 113.737 37.9838 113.816 37.9838C113.887 37.9838 113.952 38.0073 114.013 38.0574C114.075 38.1075 114.105 38.1782 114.105 38.2753V38.5669C114.281 38.3637 114.493 38.2047 114.739 38.0898C114.986 37.9749 115.242 37.916 115.507 37.916C115.956 37.916 116.333 38.0633 116.633 38.3608C116.932 38.6582 117.082 39.1148 117.082 39.7333V41.5889C117.082 41.6772 117.056 41.7509 117.003 41.8068C116.95 41.8628 116.88 41.8922 116.791 41.8922Z" fill="white"/>
<path d="M120.461 43.5514C120.223 43.5514 119.973 43.519 119.715 43.4601C119.453 43.3983 119.236 43.3099 119.059 43.195C118.962 43.1332 118.915 43.0448 118.915 42.93C118.915 42.7444 118.997 42.6531 119.165 42.6531C119.227 42.6531 119.289 42.6708 119.35 42.7061C119.5 42.7856 119.682 42.8563 119.894 42.9182C120.106 42.98 120.309 43.0095 120.503 43.0095C120.864 43.0095 121.176 42.9123 121.434 42.7179C121.693 42.5235 121.825 42.2496 121.825 41.8961V41.2747C121.667 41.4691 121.47 41.6222 121.237 41.7312C121.005 41.8402 120.747 41.8961 120.464 41.8961C119.918 41.8961 119.468 41.7076 119.115 41.3336C118.762 40.9566 118.586 40.4735 118.586 39.8815C118.586 39.2895 118.762 38.8359 119.115 38.4707C119.468 38.1025 119.918 37.9199 120.464 37.9199C121.011 37.9199 121.481 38.1202 121.828 38.5178V38.2793C121.828 38.1821 121.858 38.1084 121.919 38.0613C121.981 38.0112 122.052 37.9877 122.131 37.9877C122.202 37.9877 122.266 38.0112 122.328 38.0613C122.39 38.1114 122.419 38.1821 122.419 38.2793V41.8196C122.419 42.3851 122.228 42.8151 121.849 43.1126C121.47 43.41 121.005 43.5573 120.461 43.5573V43.5514ZM120.461 41.3512C120.876 41.3512 121.208 41.2275 121.452 40.9801C121.699 40.7327 121.822 40.3646 121.822 39.8786C121.822 39.3926 121.699 39.0568 121.452 38.8183C121.205 38.5797 120.876 38.4589 120.461 38.4589C120.082 38.4589 119.776 38.5974 119.541 38.8713C119.306 39.1452 119.191 39.481 119.191 39.8786C119.191 40.2762 119.309 40.6444 119.541 40.9271C119.774 41.2099 120.082 41.3512 120.461 41.3512Z" fill="white"/>
<path d="M128.437 41.7612C128.243 41.7612 128.087 41.7082 127.966 41.6022C127.846 41.4962 127.787 41.3371 127.787 41.125V37.1076C127.787 36.9397 127.843 36.8013 127.952 36.6894C128.06 36.5804 128.202 36.5244 128.369 36.5244H130.553C130.65 36.5244 130.721 36.5568 130.765 36.6157C130.809 36.6746 130.83 36.7483 130.83 36.8278C130.83 36.8985 130.803 36.9603 130.75 37.0133C130.697 37.0664 130.63 37.0929 130.55 37.0929H128.884C128.575 37.0929 128.422 37.249 128.422 37.5582V38.3653C128.422 38.6745 128.575 38.8306 128.884 38.8306H130.365C130.55 38.8306 130.641 38.9219 130.641 39.1075C130.641 39.2754 130.55 39.3578 130.365 39.3578H128.884C128.575 39.3578 128.422 39.5139 128.422 39.8203V40.7215C128.422 41.0308 128.575 41.184 128.884 41.184H130.618C130.724 41.184 130.797 41.2164 130.835 41.2753C130.877 41.3371 130.894 41.4049 130.894 41.4755C130.894 41.5374 130.874 41.5992 130.83 41.6611C130.785 41.723 130.715 41.7524 130.618 41.7524H128.434L128.437 41.7612Z" fill="white"/>
<path d="M134.275 41.8923C133.728 41.8923 133.278 41.7038 132.926 41.3298C132.573 40.9528 132.396 40.4697 132.396 39.8777C132.396 39.2857 132.573 38.8321 132.926 38.4669C133.278 38.0987 133.728 37.9161 134.275 37.9161C134.822 37.9161 135.295 38.1164 135.639 38.514V36.3521C135.639 36.2549 135.671 36.1813 135.73 36.1342C135.789 36.0871 135.856 36.0605 135.93 36.0605C136.009 36.0605 136.08 36.0841 136.142 36.1342C136.203 36.1843 136.233 36.2549 136.233 36.3521V41.5212C136.233 41.6096 136.203 41.6832 136.147 41.7392C136.092 41.7951 136.018 41.8246 135.93 41.8246C135.842 41.8246 135.771 41.7951 135.718 41.7392C135.665 41.6832 135.639 41.6096 135.639 41.5212V41.2709C135.48 41.4653 135.283 41.6184 135.051 41.7274C134.816 41.8364 134.56 41.8923 134.278 41.8923H134.275ZM134.275 41.3474C134.689 41.3474 135.022 41.2237 135.268 40.9763C135.515 40.7289 135.639 40.3608 135.639 39.8748C135.639 39.3888 135.515 39.053 135.268 38.8144C135.022 38.5759 134.689 38.4551 134.275 38.4551C133.896 38.4551 133.59 38.5935 133.355 38.8675C133.12 39.1414 133.005 39.4772 133.005 39.8748C133.005 40.2724 133.123 40.6406 133.355 40.9233C133.59 41.2061 133.896 41.3474 134.275 41.3474Z" fill="white"/>
<path d="M140.899 38.2223C140.899 38.1251 140.932 38.0486 140.991 37.9955C141.052 37.9425 141.123 37.916 141.202 37.916C141.273 37.916 141.34 37.9425 141.402 37.9955C141.464 38.0486 141.493 38.1251 141.493 38.2223V40.0926C141.493 40.6405 141.335 41.0793 141.017 41.4063C140.7 41.7332 140.267 41.8981 139.721 41.8981C139.315 41.8981 138.983 41.8156 138.727 41.6478C138.471 41.4799 138.283 41.256 138.166 40.9792C138.045 40.7023 137.986 40.4019 137.986 40.0838V38.2282C137.986 38.131 138.019 38.0544 138.08 38.0014C138.142 37.9484 138.213 37.9219 138.292 37.9219C138.363 37.9219 138.43 37.9484 138.492 38.0014C138.554 38.0544 138.583 38.131 138.583 38.2282V40.1368C138.583 40.5698 138.698 40.879 138.927 41.0646C139.156 41.2501 139.421 41.3415 139.721 41.3415C140.003 41.3415 140.27 41.2501 140.52 41.0646C140.77 40.879 140.897 40.5786 140.897 40.1633V38.2282L140.899 38.2223Z" fill="white"/>
<path d="M145.05 41.8922C144.662 41.8922 144.321 41.8009 144.03 41.6213C143.739 41.4416 143.513 41.1971 143.357 40.8908C143.199 40.5845 143.119 40.2487 143.119 39.8776C143.119 39.5065 143.204 39.159 143.378 38.8644C143.548 38.5669 143.781 38.3372 144.072 38.1693C144.363 38.0014 144.689 37.916 145.05 37.916C145.588 37.916 146.021 38.0368 146.347 38.2753C146.426 38.3284 146.464 38.4079 146.464 38.5139C146.464 38.6906 146.376 38.779 146.2 38.779C146.182 38.779 146.159 38.779 146.135 38.7731C146.109 38.7672 146.082 38.7613 146.056 38.7525C145.941 38.6818 145.803 38.6111 145.638 38.5404C145.474 38.4697 145.291 38.4344 145.089 38.4344C144.683 38.4344 144.351 38.5728 144.095 38.8526C143.839 39.1324 143.713 39.477 143.713 39.8923C143.713 40.3076 143.833 40.6346 144.077 40.8938C144.318 41.1559 144.63 41.3061 145.009 41.3503C145.247 41.3591 145.48 41.3149 145.703 41.2177C145.929 41.1205 146.115 40.9998 146.264 40.8584C146.317 40.8142 146.373 40.7936 146.438 40.7936C146.508 40.7936 146.567 40.8231 146.617 40.879C146.667 40.9379 146.691 40.9998 146.691 41.0705C146.691 41.1412 146.653 41.2266 146.57 41.3238C146.376 41.5005 146.156 41.6389 145.909 41.742C145.662 41.8451 145.377 41.8952 145.05 41.8952V41.8922Z" fill="white"/>
<path d="M150.001 41.8922C149.455 41.8922 149.005 41.7037 148.652 41.3297C148.299 40.9527 148.123 40.4696 148.123 39.8776C148.123 39.2856 148.299 38.832 148.652 38.4668C149.005 38.0986 149.455 37.916 150.001 37.916C150.548 37.916 151.021 38.1163 151.365 38.5139V38.2753C151.365 38.1782 151.398 38.1045 151.457 38.0574C151.515 38.0103 151.583 37.9838 151.656 37.9838C151.736 37.9838 151.806 38.0073 151.868 38.0574C151.93 38.1075 151.959 38.1782 151.959 38.2753V41.5889C151.959 41.6772 151.93 41.7509 151.874 41.8068C151.815 41.8628 151.745 41.8922 151.656 41.8922C151.568 41.8922 151.498 41.8628 151.445 41.8068C151.392 41.7479 151.365 41.6772 151.365 41.5889V41.2708C151.207 41.4652 151.01 41.6183 150.777 41.7273C150.542 41.8363 150.287 41.8922 150.004 41.8922H150.001ZM150.001 41.3473C150.416 41.3473 150.748 41.2236 150.995 40.9762C151.242 40.7288 151.365 40.3607 151.365 39.8747C151.365 39.3887 151.242 39.0529 150.995 38.8143C150.748 38.5758 150.416 38.455 150.001 38.455C149.622 38.455 149.317 38.5934 149.081 38.8674C148.846 39.1413 148.732 39.477 148.732 39.8747C148.732 40.2723 148.849 40.6405 149.081 40.9232C149.317 41.206 149.622 41.3473 150.001 41.3473Z" fill="white"/>
<path d="M155.2 41.8915C154.838 41.8915 154.556 41.7826 154.353 41.5676C154.15 41.3496 154.047 41.0521 154.047 40.6722V38.7106C154.047 38.6222 154.003 38.578 153.915 38.578H153.583C153.512 38.578 153.451 38.5515 153.398 38.4985C153.345 38.4455 153.318 38.3836 153.318 38.3129C153.318 38.2423 153.345 38.1804 153.398 38.1274C153.451 38.0744 153.512 38.0479 153.583 38.0479H153.915C154.003 38.0479 154.047 38.0037 154.047 37.9153V36.6842C154.047 36.587 154.08 36.5133 154.139 36.4662C154.2 36.4161 154.268 36.3926 154.338 36.3926C154.418 36.3926 154.488 36.4161 154.55 36.4662C154.612 36.5163 154.641 36.587 154.641 36.6842V37.9153C154.641 38.0037 154.685 38.0479 154.773 38.0479H155.699C155.77 38.0479 155.832 38.0744 155.885 38.1274C155.938 38.1804 155.964 38.2423 155.964 38.3129C155.964 38.3836 155.938 38.4455 155.885 38.4985C155.832 38.5515 155.77 38.578 155.699 38.578H154.773C154.685 38.578 154.641 38.6222 154.641 38.7106V40.6339C154.641 41.0933 154.853 41.3231 155.276 41.3231C155.382 41.3231 155.467 41.3084 155.535 41.2819C155.602 41.2553 155.655 41.2436 155.699 41.2436C155.779 41.2436 155.843 41.276 155.89 41.3349C155.94 41.3967 155.964 41.4645 155.964 41.5351C155.964 41.6765 155.896 41.7649 155.764 41.8002C155.676 41.8356 155.582 41.8591 155.479 41.8739C155.376 41.8856 155.282 41.8945 155.194 41.8945L155.2 41.8915Z" fill="white"/>
<path d="M157.865 37.043C157.724 37.043 157.612 37.0017 157.527 36.9163C157.444 36.8309 157.4 36.7249 157.4 36.5923C157.4 36.4509 157.442 36.339 157.527 36.2536C157.612 36.1682 157.724 36.127 157.865 36.127C158.006 36.127 158.118 36.1682 158.203 36.2536C158.288 36.339 158.329 36.4509 158.329 36.5923C158.329 36.7249 158.288 36.8338 158.203 36.9163C158.118 36.9988 158.006 37.043 157.865 37.043ZM157.903 41.8939C157.815 41.8939 157.741 41.8645 157.686 41.8085C157.63 41.7526 157.6 41.6789 157.6 41.5906V38.2093C157.6 38.1121 157.63 38.0385 157.691 37.9914C157.753 37.9413 157.824 37.9177 157.903 37.9177C157.974 37.9177 158.038 37.9413 158.1 37.9914C158.162 38.0414 158.191 38.1121 158.191 38.2093V41.5906C158.191 41.6789 158.165 41.7526 158.112 41.8085C158.059 41.8645 157.988 41.8939 157.9 41.8939H157.903Z" fill="white"/>
<path d="M161.833 41.8922C161.462 41.8922 161.13 41.8039 160.839 41.6271C160.548 41.4504 160.316 41.2089 160.145 40.9055C159.972 40.5992 159.887 40.2576 159.887 39.8776C159.887 39.4977 159.972 39.1619 160.145 38.8703C160.316 38.5787 160.548 38.346 160.839 38.1752C161.13 38.0014 161.462 37.916 161.833 37.916C162.203 37.916 162.535 38.0014 162.832 38.1752C163.129 38.349 163.361 38.5787 163.535 38.8703C163.708 39.1619 163.793 39.4977 163.793 39.8776C163.793 40.2576 163.708 40.5992 163.535 40.9055C163.364 41.2119 163.129 41.4504 162.832 41.6271C162.538 41.8039 162.203 41.8922 161.833 41.8922ZM161.833 41.3473C162.247 41.3473 162.579 41.206 162.826 40.9232C163.073 40.6405 163.197 40.29 163.197 39.8747C163.197 39.4594 163.073 39.1413 162.826 38.8674C162.579 38.5934 162.247 38.455 161.833 38.455C161.418 38.455 161.104 38.5934 160.86 38.8674C160.616 39.1413 160.495 39.477 160.495 39.8747C160.495 40.2723 160.616 40.6405 160.86 40.9232C161.104 41.206 161.427 41.3473 161.833 41.3473Z" fill="white"/>
<path d="M168.76 41.8922C168.672 41.8922 168.598 41.8628 168.543 41.8068C168.487 41.7509 168.457 41.6772 168.457 41.5889V39.7863C168.457 39.3445 168.366 39.0176 168.181 38.8055C167.996 38.5934 167.734 38.4874 167.399 38.4874C167.09 38.4874 166.838 38.561 166.638 38.7054C166.438 38.8526 166.297 39.0323 166.208 39.2503C166.12 39.4682 166.076 39.6803 166.076 39.8923V41.5889C166.076 41.6772 166.05 41.7509 165.997 41.8068C165.944 41.8628 165.873 41.8922 165.785 41.8922C165.697 41.8922 165.624 41.8628 165.568 41.8068C165.512 41.7479 165.482 41.6772 165.482 41.5889V38.2753C165.482 38.1782 165.512 38.1045 165.574 38.0574C165.635 38.0073 165.706 37.9838 165.785 37.9838C165.856 37.9838 165.92 38.0073 165.982 38.0574C166.044 38.1075 166.073 38.1782 166.073 38.2753V38.5669C166.25 38.3637 166.461 38.2047 166.708 38.0898C166.955 37.9749 167.211 37.916 167.475 37.916C167.925 37.916 168.301 38.0633 168.601 38.3608C168.901 38.6582 169.051 39.1148 169.051 39.7333V41.5889C169.051 41.6772 169.025 41.7509 168.972 41.8068C168.919 41.8628 168.848 41.8922 168.76 41.8922Z" fill="white"/>
<path d="M171.449 42.7026C171.431 42.7645 171.399 42.8116 171.349 42.841C171.299 42.8705 171.255 42.8882 171.21 42.8882C171.069 42.8882 171.002 42.7968 171.011 42.6113L171.143 41.2712C171.16 41.1651 171.202 41.0885 171.269 41.0385C171.337 40.9914 171.407 40.9648 171.487 40.9648C171.593 40.9648 171.69 41.0031 171.778 41.0768C171.866 41.1504 171.892 41.2653 171.857 41.4155L171.446 42.7026H171.449Z" fill="white"/>
<path d="M177.746 41.8915C177.658 41.8915 177.584 41.8591 177.529 41.8002C177.47 41.7384 177.443 41.6677 177.443 41.5882V36.6959C177.443 36.5988 177.473 36.5251 177.529 36.4721C177.584 36.4191 177.658 36.3926 177.746 36.3926C177.843 36.3926 177.923 36.4191 177.984 36.4721C178.046 36.5251 178.075 36.6017 178.075 36.6959V41.5882C178.075 41.6677 178.043 41.7384 177.984 41.8002C177.923 41.8621 177.843 41.8915 177.746 41.8915Z" fill="white"/>
<path d="M183.381 41.8922C183.293 41.8922 183.219 41.8628 183.164 41.8068C183.108 41.7509 183.078 41.6772 183.078 41.5889V39.7863C183.078 39.3445 182.987 39.0176 182.802 38.8055C182.617 38.5934 182.355 38.4874 182.02 38.4874C181.711 38.4874 181.459 38.561 181.259 38.7054C181.059 38.8526 180.918 39.0323 180.83 39.2503C180.741 39.4682 180.697 39.6803 180.697 39.8923V41.5889C180.697 41.6772 180.671 41.7509 180.618 41.8068C180.565 41.8628 180.494 41.8922 180.406 41.8922C180.318 41.8922 180.245 41.8628 180.189 41.8068C180.133 41.7479 180.104 41.6772 180.104 41.5889V38.2753C180.104 38.1782 180.133 38.1045 180.195 38.0574C180.256 38.0073 180.327 37.9838 180.406 37.9838C180.477 37.9838 180.542 38.0073 180.603 38.0574C180.665 38.1075 180.694 38.1782 180.694 38.2753V38.5669C180.871 38.3637 181.082 38.2047 181.329 38.0898C181.576 37.9749 181.832 37.916 182.097 37.916C182.546 37.916 182.923 38.0633 183.222 38.3608C183.522 38.6582 183.672 39.1148 183.672 39.7333V41.5889C183.672 41.6772 183.646 41.7509 183.593 41.8068C183.54 41.8628 183.469 41.8922 183.381 41.8922Z" fill="white"/>
<path d="M186.786 41.8922C186.187 41.8922 185.702 41.7214 185.331 41.3738C185.27 41.312 185.24 41.2413 185.24 41.1618C185.24 41.0734 185.276 41.0027 185.346 40.9497C185.417 40.8967 185.475 40.8702 185.519 40.8702C185.59 40.8702 185.678 40.9144 185.784 41.0027C185.916 41.1176 186.069 41.206 186.24 41.2678C186.41 41.3297 186.607 41.3591 186.828 41.3591C187.136 41.3591 187.368 41.3002 187.521 41.1853C187.674 41.0705 187.754 40.9173 187.754 40.7229C187.754 40.5285 187.668 40.3724 187.501 40.2782C187.333 40.1869 187.095 40.1221 186.786 40.0867C186.619 40.0691 186.419 40.0367 186.184 39.9954C185.949 39.9542 185.746 39.8599 185.569 39.7245C185.393 39.589 185.305 39.3769 185.305 39.0942C185.305 38.7319 185.437 38.4462 185.702 38.2341C185.966 38.022 186.337 37.916 186.813 37.916C187.086 37.916 187.342 37.9484 187.58 38.0162C187.818 38.0839 187.992 38.1634 188.098 38.2606C188.168 38.3136 188.203 38.3843 188.203 38.4727C188.203 38.5345 188.177 38.5993 188.124 38.6641C188.071 38.7289 188.009 38.7643 187.939 38.7643C187.903 38.7643 187.868 38.7554 187.833 38.7378C187.798 38.7201 187.762 38.7024 187.727 38.6847C187.568 38.5964 187.424 38.5345 187.298 38.4992C187.169 38.4638 187.019 38.4462 186.842 38.4462C186.56 38.4462 186.334 38.4962 186.16 38.5993C185.99 38.7024 185.902 38.8526 185.902 39.0559C185.902 39.1972 185.96 39.3003 186.081 39.3681C186.201 39.4358 186.437 39.4888 186.789 39.533C186.913 39.5507 187.063 39.5772 187.239 39.6125C187.416 39.6479 187.586 39.7038 187.757 39.7775C187.924 39.854 188.065 39.963 188.18 40.1103C188.294 40.2546 188.35 40.449 188.35 40.6876C188.35 41.0499 188.215 41.3414 187.942 41.5623C187.668 41.7832 187.283 41.8952 186.789 41.8952L186.786 41.8922Z" fill="white"/>
<path d="M192 41.8922C191.718 41.8922 191.459 41.8363 191.227 41.7273C190.991 41.6183 190.797 41.4652 190.639 41.2708V43.3119C190.639 43.4002 190.612 43.4739 190.559 43.5298C190.506 43.5888 190.436 43.6153 190.348 43.6153C190.26 43.6153 190.186 43.5858 190.13 43.5298C190.074 43.4709 190.045 43.4002 190.045 43.3119V38.2753C190.045 38.1782 190.074 38.1045 190.136 38.0574C190.198 38.0073 190.268 37.9838 190.348 37.9838C190.418 37.9838 190.483 38.0073 190.545 38.0574C190.606 38.1075 190.636 38.1782 190.636 38.2753V38.5139C190.98 38.1163 191.435 37.916 192 37.916C192.564 37.916 192.996 38.0986 193.349 38.4668C193.702 38.832 193.878 39.3033 193.878 39.8776C193.878 40.452 193.702 40.9527 193.349 41.3297C192.996 41.7067 192.547 41.8922 192 41.8922ZM192 41.3473C192.379 41.3473 192.685 41.206 192.92 40.9232C193.152 40.6405 193.27 40.29 193.27 39.8747C193.27 39.4594 193.152 39.1413 192.92 38.8674C192.685 38.5934 192.379 38.455 192 38.455C191.594 38.455 191.265 38.5758 191.015 38.8143C190.762 39.0529 190.639 39.4064 190.639 39.8747C190.639 40.343 190.765 40.7288 191.015 40.9762C191.265 41.2236 191.594 41.3473 192 41.3473Z" fill="white"/>
<path d="M195.904 37.043C195.763 37.043 195.651 37.0017 195.566 36.9163C195.484 36.8309 195.439 36.7249 195.439 36.5923C195.439 36.4509 195.481 36.339 195.566 36.2536C195.651 36.1682 195.763 36.127 195.904 36.127C196.045 36.127 196.157 36.1682 196.242 36.2536C196.327 36.339 196.368 36.4509 196.368 36.5923C196.368 36.7249 196.327 36.8338 196.242 36.9163C196.157 36.9988 196.045 37.043 195.904 37.043ZM195.942 41.8939C195.854 41.8939 195.78 41.8645 195.725 41.8085C195.669 41.7526 195.639 41.6789 195.639 41.5906V38.2093C195.639 38.1121 195.669 38.0385 195.73 37.9914C195.792 37.9413 195.863 37.9177 195.942 37.9177C196.013 37.9177 196.077 37.9413 196.139 37.9914C196.201 38.0414 196.23 38.1121 196.23 38.2093V41.5906C196.23 41.6789 196.204 41.7526 196.151 41.8085C196.098 41.8645 196.027 41.8939 195.939 41.8939H195.942Z" fill="white"/>
<path d="M198.715 39.8923V41.5889C198.715 41.6772 198.688 41.7509 198.636 41.8068C198.583 41.8628 198.512 41.8922 198.424 41.8922C198.336 41.8922 198.262 41.8628 198.206 41.8068C198.15 41.7479 198.121 41.6772 198.121 41.5889V38.2753C198.121 38.1782 198.15 38.1045 198.212 38.0574C198.274 38.0073 198.345 37.9838 198.424 37.9838C198.494 37.9838 198.559 38.0073 198.621 38.0574C198.683 38.1075 198.712 38.1782 198.712 38.2753V38.5934C198.818 38.3725 198.994 38.2047 199.241 38.0898C199.488 37.9749 199.72 37.916 199.944 37.916C200.076 37.916 200.208 37.9396 200.34 37.9838C200.429 38.0103 200.493 38.0603 200.532 38.1281C200.573 38.1988 200.579 38.2783 200.552 38.3667C200.49 38.5434 200.37 38.6141 200.193 38.5787C200.035 38.5345 199.902 38.5139 199.797 38.5139C199.453 38.5139 199.185 38.6435 198.997 38.9056C198.806 39.1678 198.712 39.4947 198.712 39.8923H198.715Z" fill="white"/>
<path d="M202.33 37.043C202.189 37.043 202.077 37.0017 201.992 36.9163C201.909 36.8309 201.865 36.7249 201.865 36.5923C201.865 36.4509 201.906 36.339 201.992 36.2536C202.077 36.1682 202.189 36.127 202.33 36.127C202.471 36.127 202.582 36.1682 202.668 36.2536C202.753 36.339 202.794 36.4509 202.794 36.5923C202.794 36.7249 202.753 36.8338 202.668 36.9163C202.582 36.9988 202.471 37.043 202.33 37.043ZM202.368 41.8939C202.28 41.8939 202.206 41.8645 202.15 41.8085C202.095 41.7526 202.065 41.6789 202.065 41.5906V38.2093C202.065 38.1121 202.095 38.0385 202.156 37.9914C202.218 37.9413 202.289 37.9177 202.368 37.9177C202.438 37.9177 202.503 37.9413 202.565 37.9914C202.627 38.0414 202.656 38.1121 202.656 38.2093V41.5906C202.656 41.6789 202.63 41.7526 202.577 41.8085C202.524 41.8645 202.453 41.8939 202.365 41.8939H202.368Z" fill="white"/>
<path d="M207.832 41.8922C207.744 41.8922 207.671 41.8628 207.615 41.8068C207.559 41.7509 207.53 41.6772 207.53 41.5889V39.7863C207.53 39.3445 207.438 39.0176 207.253 38.8055C207.068 38.5934 206.806 38.4874 206.471 38.4874C206.163 38.4874 205.91 38.561 205.71 38.7054C205.51 38.8526 205.369 39.0323 205.281 39.2503C205.193 39.4682 205.148 39.6803 205.148 39.8923V41.5889C205.148 41.6772 205.122 41.7509 205.069 41.8068C205.016 41.8628 204.946 41.8922 204.857 41.8922C204.769 41.8922 204.696 41.8628 204.64 41.8068C204.584 41.7479 204.555 41.6772 204.555 41.5889V38.2753C204.555 38.1782 204.584 38.1045 204.646 38.0574C204.708 38.0073 204.778 37.9838 204.857 37.9838C204.928 37.9838 204.993 38.0073 205.054 38.0574C205.116 38.1075 205.146 38.1782 205.146 38.2753V38.5669C205.322 38.3637 205.534 38.2047 205.78 38.0898C206.027 37.9749 206.283 37.916 206.548 37.916C206.997 37.916 207.374 38.0633 207.674 38.3608C207.973 38.6582 208.123 39.1148 208.123 39.7333V41.5889C208.123 41.6772 208.097 41.7509 208.044 41.8068C207.991 41.8628 207.921 41.8922 207.832 41.8922Z" fill="white"/>
<path d="M211.502 43.5514C211.264 43.5514 211.014 43.519 210.756 43.4601C210.494 43.3983 210.277 43.3099 210.1 43.195C210.003 43.1332 209.956 43.0448 209.956 42.93C209.956 42.7444 210.038 42.6531 210.206 42.6531C210.268 42.6531 210.33 42.6708 210.391 42.7061C210.541 42.7856 210.723 42.8563 210.935 42.9182C211.147 42.98 211.35 43.0095 211.544 43.0095C211.905 43.0095 212.217 42.9123 212.475 42.7179C212.734 42.5235 212.866 42.2496 212.866 41.8961V41.2747C212.708 41.4691 212.511 41.6222 212.278 41.7312C212.043 41.8402 211.788 41.8961 211.505 41.8961C210.959 41.8961 210.509 41.7076 210.156 41.3336C209.803 40.9566 209.627 40.4735 209.627 39.8815C209.627 39.2895 209.803 38.8359 210.156 38.4707C210.509 38.1025 210.959 37.9199 211.505 37.9199C212.052 37.9199 212.522 38.1202 212.869 38.5178V38.2793C212.869 38.1821 212.899 38.1084 212.96 38.0613C213.022 38.0112 213.093 37.9877 213.172 37.9877C213.243 37.9877 213.307 38.0112 213.369 38.0613C213.431 38.1114 213.46 38.1821 213.46 38.2793V41.8196C213.46 42.3851 213.269 42.8151 212.89 43.1126C212.511 43.41 212.046 43.5573 211.502 43.5573V43.5514ZM211.502 41.3512C211.917 41.3512 212.249 41.2275 212.493 40.9801C212.74 40.7327 212.863 40.3646 212.863 39.8786C212.863 39.3926 212.74 39.0568 212.493 38.8183C212.246 38.5797 211.917 38.4589 211.502 38.4589C211.123 38.4589 210.817 38.5974 210.582 38.8713C210.347 39.1452 210.233 39.481 210.233 39.8786C210.233 40.2762 210.35 40.6444 210.582 40.9271C210.817 41.2099 211.123 41.3512 211.502 41.3512Z" fill="white"/>
<path d="M219.16 41.8938C219.072 41.8938 218.996 41.8614 218.928 41.7936C218.86 41.7259 218.828 41.6493 218.828 41.561V37.1076C218.828 36.9397 218.884 36.8013 218.993 36.6894C219.102 36.5804 219.243 36.5244 219.41 36.5244H221.594C221.691 36.5244 221.762 36.5568 221.806 36.6157C221.85 36.6776 221.871 36.7483 221.871 36.8278C221.871 36.8985 221.844 36.9603 221.791 37.0133C221.738 37.0664 221.671 37.0929 221.591 37.0929H219.925C219.616 37.0929 219.463 37.249 219.463 37.5582V38.3387C219.463 38.648 219.616 38.8041 219.925 38.8041H221.406C221.591 38.8041 221.682 38.8954 221.682 39.081C221.682 39.2489 221.591 39.3313 221.406 39.3313H219.925C219.616 39.3313 219.463 39.4874 219.463 39.7937L219.475 41.5433C219.475 41.6405 219.445 41.7229 219.39 41.7877C219.334 41.8525 219.254 41.8879 219.157 41.8879L219.16 41.8938Z" fill="white"/>
<path d="M225.141 41.8922C224.523 41.8922 224.029 41.7096 223.659 41.3414C223.289 40.9762 223.104 40.4696 223.104 39.8246C223.104 39.4712 223.183 39.1501 223.342 38.8644C223.5 38.5758 223.724 38.346 224.009 38.1752C224.297 38.0014 224.632 37.916 225.02 37.916C225.408 37.916 225.761 38.0014 226.025 38.1752C226.29 38.349 226.487 38.561 226.613 38.8114C226.74 39.0617 226.804 39.3121 226.804 39.5595C226.804 39.7097 226.772 39.8334 226.705 39.9306C226.637 40.0278 226.543 40.0779 226.419 40.0779H223.88C223.827 40.0779 223.788 40.0838 223.768 40.0897C223.747 40.0985 223.736 40.128 223.736 40.181C223.736 40.3312 223.786 40.4961 223.883 40.6729C223.98 40.8496 224.118 41.0027 224.3 41.1294C224.479 41.259 224.691 41.3297 224.929 41.3473C225.185 41.365 225.438 41.3385 225.684 41.2678C225.931 41.1971 226.152 41.0882 226.346 40.935C226.39 40.8997 226.437 40.882 226.493 40.882C226.555 40.882 226.613 40.9085 226.672 40.9615C226.728 41.0145 226.757 41.0823 226.757 41.1588C226.757 41.2354 226.719 41.3179 226.64 41.3974C226.428 41.5653 226.19 41.689 225.926 41.7685C225.661 41.848 225.399 41.8893 225.144 41.8893L225.141 41.8922ZM225.975 39.6125C226.046 39.6125 226.099 39.5831 226.134 39.5271C226.17 39.4712 226.178 39.3975 226.161 39.3092C226.134 39.0794 226.014 38.8732 225.802 38.6936C225.59 38.5139 225.329 38.4226 225.02 38.4226C224.791 38.4226 224.582 38.4786 224.391 38.5876C224.2 38.6965 224.047 38.8379 223.935 39.0058C223.821 39.1737 223.762 39.3504 223.762 39.536C223.762 39.5801 223.8 39.6008 223.883 39.6008L225.973 39.6125H225.975Z" fill="white"/>
<path d="M230.312 41.8922C229.765 41.8922 229.315 41.7037 228.963 41.3297C228.61 40.9527 228.434 40.4696 228.434 39.8776C228.434 39.2856 228.61 38.832 228.963 38.4668C229.315 38.0986 229.765 37.916 230.312 37.916C230.859 37.916 231.332 38.1163 231.676 38.5139V38.2753C231.676 38.1782 231.708 38.1045 231.767 38.0574C231.829 38.0073 231.893 37.9838 231.967 37.9838C232.046 37.9838 232.117 38.0073 232.179 38.0574C232.24 38.1075 232.27 38.1782 232.27 38.2753V41.5889C232.27 41.6772 232.24 41.7509 232.185 41.8068C232.126 41.8628 232.055 41.8922 231.967 41.8922C231.879 41.8922 231.808 41.8628 231.755 41.8068C231.702 41.7479 231.676 41.6772 231.676 41.5889V41.2708C231.517 41.4652 231.32 41.6183 231.088 41.7273C230.853 41.8363 230.597 41.8922 230.315 41.8922H230.312ZM230.312 41.3473C230.726 41.3473 231.059 41.2236 231.306 40.9762C231.553 40.7288 231.676 40.3607 231.676 39.8747C231.676 39.3887 231.553 39.0529 231.306 38.8143C231.059 38.5758 230.726 38.455 230.312 38.455C229.933 38.455 229.627 38.5934 229.392 38.8674C229.157 39.1413 229.042 39.477 229.042 39.8747C229.042 40.2723 229.16 40.6405 229.392 40.9232C229.627 41.206 229.933 41.3473 230.312 41.3473Z" fill="white"/>
<path d="M235.51 41.8915C235.149 41.8915 234.866 41.7826 234.664 41.5676C234.461 41.3496 234.358 41.0521 234.358 40.6722V38.7106C234.358 38.6222 234.314 38.578 234.226 38.578H233.893C233.823 38.578 233.761 38.5515 233.708 38.4985C233.655 38.4455 233.629 38.3836 233.629 38.3129C233.629 38.2423 233.655 38.1804 233.708 38.1274C233.761 38.0744 233.823 38.0479 233.893 38.0479H234.226C234.314 38.0479 234.358 38.0037 234.358 37.9153V36.6842C234.358 36.587 234.39 36.5133 234.449 36.4662C234.511 36.4161 234.578 36.3926 234.649 36.3926C234.728 36.3926 234.799 36.4161 234.861 36.4662C234.922 36.5163 234.952 36.587 234.952 36.6842V37.9153C234.952 38.0037 234.996 38.0479 235.084 38.0479H236.01C236.081 38.0479 236.142 38.0744 236.195 38.1274C236.248 38.1804 236.275 38.2423 236.275 38.3129C236.275 38.3836 236.248 38.4455 236.195 38.4985C236.142 38.5515 236.081 38.578 236.01 38.578H235.084C234.996 38.578 234.952 38.6222 234.952 38.7106V40.6339C234.952 41.0933 235.163 41.3231 235.587 41.3231C235.693 41.3231 235.778 41.3084 235.845 41.2819C235.913 41.2553 235.966 41.2436 236.01 41.2436C236.089 41.2436 236.154 41.276 236.201 41.3349C236.251 41.3967 236.275 41.4645 236.275 41.5351C236.275 41.6765 236.207 41.7649 236.075 41.8002C235.986 41.8356 235.892 41.8591 235.79 41.8739C235.687 41.8856 235.593 41.8945 235.504 41.8945L235.51 41.8915Z" fill="white"/>
<path d="M240.687 38.2223C240.687 38.1251 240.719 38.0486 240.778 37.9955C240.839 37.9425 240.91 37.916 240.989 37.916C241.06 37.916 241.128 37.9425 241.189 37.9955C241.251 38.0486 241.28 38.1251 241.28 38.2223V40.0926C241.28 40.6405 241.122 41.0793 240.804 41.4063C240.487 41.7332 240.055 41.8981 239.508 41.8981C239.102 41.8981 238.77 41.8156 238.514 41.6478C238.258 41.4799 238.07 41.256 237.953 40.9792C237.832 40.7023 237.773 40.4019 237.773 40.0838V38.2282C237.773 38.131 237.806 38.0544 237.868 38.0014C237.929 37.9484 238 37.9219 238.079 37.9219C238.15 37.9219 238.217 37.9484 238.279 38.0014C238.341 38.0544 238.37 38.131 238.37 38.2282V40.1368C238.37 40.5698 238.485 40.879 238.714 41.0646C238.943 41.2501 239.208 41.3415 239.508 41.3415C239.79 41.3415 240.057 41.2501 240.307 41.0646C240.557 40.879 240.684 40.5786 240.684 40.1633V38.2282L240.687 38.2223Z" fill="white"/>
<path d="M243.701 39.8923V41.5889C243.701 41.6772 243.675 41.7509 243.622 41.8068C243.569 41.8628 243.498 41.8922 243.41 41.8922C243.322 41.8922 243.249 41.8628 243.193 41.8068C243.137 41.7479 243.107 41.6772 243.107 41.5889V38.2753C243.107 38.1782 243.137 38.1045 243.199 38.0574C243.26 38.0073 243.331 37.9838 243.41 37.9838C243.481 37.9838 243.545 38.0073 243.607 38.0574C243.669 38.1075 243.698 38.1782 243.698 38.2753V38.5934C243.804 38.3725 243.98 38.2047 244.227 38.0898C244.474 37.9749 244.707 37.916 244.93 37.916C245.062 37.916 245.195 37.9396 245.327 37.9838C245.415 38.0103 245.48 38.0603 245.518 38.1281C245.559 38.1988 245.565 38.2783 245.538 38.3667C245.477 38.5434 245.356 38.6141 245.18 38.5787C245.021 38.5345 244.889 38.5139 244.783 38.5139C244.439 38.5139 244.172 38.6435 243.983 38.9056C243.792 39.1678 243.698 39.4947 243.698 39.8923H243.701Z" fill="white"/>
<path d="M248.689 41.8922C248.072 41.8922 247.578 41.7096 247.208 41.3414C246.838 40.9762 246.652 40.4696 246.652 39.8246C246.652 39.4712 246.732 39.1501 246.89 38.8644C247.049 38.5758 247.273 38.346 247.558 38.1752C247.846 38.0014 248.181 37.916 248.569 37.916C248.957 37.916 249.31 38.0014 249.574 38.1752C249.839 38.349 250.036 38.561 250.162 38.8114C250.289 39.0617 250.353 39.3121 250.353 39.5595C250.353 39.7097 250.321 39.8334 250.253 39.9306C250.189 40.0278 250.092 40.0779 249.968 40.0779H247.428C247.375 40.0779 247.337 40.0838 247.317 40.0897C247.296 40.0985 247.284 40.128 247.284 40.181C247.284 40.3312 247.334 40.4961 247.431 40.6729C247.528 40.8496 247.666 41.0027 247.849 41.1294C248.028 41.259 248.24 41.3297 248.478 41.3473C248.734 41.365 248.986 41.3385 249.233 41.2678C249.48 41.1971 249.701 41.0882 249.895 40.935C249.939 40.8997 249.986 40.882 250.042 40.882C250.103 40.882 250.162 40.9085 250.221 40.9615C250.277 41.0145 250.306 41.0823 250.306 41.1588C250.306 41.2354 250.268 41.3179 250.189 41.3974C249.977 41.5653 249.739 41.689 249.474 41.7685C249.21 41.848 248.948 41.8893 248.692 41.8893L248.689 41.8922ZM249.524 39.6125C249.595 39.6125 249.648 39.5831 249.683 39.5271C249.718 39.4712 249.727 39.3975 249.71 39.3092C249.683 39.0794 249.563 38.8732 249.351 38.6936C249.139 38.5139 248.878 38.4226 248.569 38.4226C248.34 38.4226 248.131 38.4786 247.94 38.5876C247.749 38.6965 247.596 38.8379 247.484 39.0058C247.37 39.1737 247.311 39.3504 247.311 39.536C247.311 39.5801 247.349 39.6008 247.431 39.6008L249.521 39.6125H249.524Z" fill="white"/>
<path d="M176.707 28.6446C175.396 28.6446 174.173 28.4237 173.032 27.9819C171.892 27.5401 170.995 26.948 170.339 26.2058C170.025 25.8642 169.869 25.4636 169.869 25.0071C169.869 24.5211 170.054 24.094 170.425 23.7229C170.795 23.3518 171.236 23.1662 171.748 23.1662C172.233 23.1662 172.644 23.3371 172.985 23.6787C173.47 24.1352 174.082 24.4916 174.822 24.7479C175.563 25.0041 176.289 25.1337 177.001 25.1337C177.712 25.1337 178.382 24.9688 178.923 24.6418C179.464 24.3149 179.734 23.7936 179.734 23.0808C179.734 22.48 179.485 22.0175 178.988 21.6906C178.488 21.3637 177.656 21.0986 176.489 20.8983C174.411 20.5567 172.844 19.9764 171.789 19.1635C170.736 18.3506 170.207 17.2019 170.207 15.7174C170.207 14.1211 170.819 12.8428 172.044 11.8856C173.267 10.9313 174.878 10.4512 176.871 10.4512C178.864 10.4512 180.56 10.9784 181.783 12.0358C182.268 12.4363 182.509 12.9076 182.509 13.4495C182.509 13.9061 182.33 14.2978 181.974 14.6277C181.619 14.9546 181.198 15.1195 180.713 15.1195C180.343 15.1195 180.002 15.0194 179.687 14.8191C178.606 14.1328 177.468 13.7912 176.269 13.7912C175.557 13.7912 174.958 13.9355 174.475 14.2183C173.99 14.504 173.749 14.931 173.749 15.5024C173.749 16.1033 174.126 16.5716 174.881 16.9162C175.637 17.2579 176.739 17.573 178.191 17.8587C178.988 18.003 179.778 18.2504 180.56 18.6068C181.342 18.9632 181.998 19.4993 182.527 20.212C183.053 20.9248 183.318 21.8968 183.318 23.122C183.318 24.7479 182.697 26.0762 181.46 27.1041C180.222 28.1321 178.632 28.6446 176.698 28.6446H176.707Z" fill="white"/>
<path d="M192.047 28.6438C190.851 28.6438 189.734 28.3728 188.693 27.8309C187.653 27.2889 186.821 26.5025 186.195 25.4775C185.568 24.4496 185.254 23.2243 185.254 21.7958C185.283 19.8283 185.921 18.2644 187.176 17.1098C188.429 15.9552 190.051 15.3779 192.047 15.3779C192.815 15.3779 193.57 15.4633 194.311 15.6342C195.052 15.805 195.692 16.1202 196.233 16.5767C196.66 16.9183 196.874 17.3631 196.874 17.9021C196.874 18.3586 196.709 18.7739 196.383 19.1421C196.057 19.5132 195.648 19.6988 195.166 19.6988C194.852 19.6988 194.567 19.6133 194.311 19.4425C193.885 19.2157 193.505 19.0567 193.179 18.9713C192.853 18.8858 192.488 18.8417 192.088 18.8417C191.148 18.8417 190.381 19.1126 189.781 19.6546C189.181 20.1965 188.884 20.924 188.884 21.8371C188.884 22.8944 189.211 23.7133 189.866 24.2994C190.522 24.8855 191.289 25.1771 192.174 25.1771C193.17 25.1771 194.111 24.806 194.993 24.0638C195.334 23.8075 195.66 23.6779 195.975 23.6779C196.43 23.6779 196.821 23.8635 197.15 24.2346C197.477 24.6057 197.641 25.0328 197.641 25.5188C197.641 25.719 197.6 25.9399 197.515 26.1815C197.43 26.423 197.271 26.6586 197.045 26.8883C196.274 27.5157 195.457 27.9663 194.587 28.2373C193.717 28.5083 192.87 28.6438 192.044 28.6438H192.047Z" fill="white"/>
<path d="M201.907 28.6444C201.366 28.6444 200.91 28.4883 200.54 28.1731C200.17 27.858 199.984 27.4604 199.984 26.9744V11.0518C199.984 10.5953 200.161 10.2036 200.516 9.87664C200.872 9.54971 201.334 9.38477 201.904 9.38477C202.445 9.38477 202.886 9.54971 203.227 9.87664C203.568 10.2036 203.738 10.613 203.738 11.096V16.7894C204.109 16.3623 204.605 16.0177 205.234 15.7614C205.861 15.5052 206.531 15.3756 207.242 15.3756C208.835 15.3756 210.126 15.8469 211.108 16.7894C212.09 17.7319 212.581 19.2281 212.581 21.284V27.0627C212.581 27.5193 212.401 27.8963 212.045 28.1967C211.69 28.4971 211.24 28.6473 210.699 28.6473C210.158 28.6473 209.709 28.4912 209.353 28.1761C208.997 27.8609 208.818 27.4633 208.818 26.9773V21.7552C208.818 20.7008 208.583 19.9438 208.112 19.4873C207.642 19.0308 207.066 18.801 206.384 18.801C205.702 18.801 205.087 19.0367 204.632 19.5079C204.176 19.9792 203.876 20.5005 203.735 21.0719V26.9361C203.735 27.4221 203.556 27.8285 203.2 28.1555C202.845 28.4824 202.41 28.6473 201.898 28.6473L201.907 28.6444Z" fill="white"/>
<path d="M221.691 28.6448C220.465 28.6448 219.342 28.3591 218.316 27.7877C217.29 27.2163 216.473 26.424 215.861 25.4137C215.25 24.4005 214.941 23.2518 214.941 21.9677C214.941 20.6835 215.247 19.5053 215.861 18.5216C216.473 17.5379 217.293 16.7662 218.316 16.2095C219.342 15.6528 220.468 15.376 221.691 15.376C222.914 15.376 224.075 15.6528 225.086 16.2095C226.097 16.7662 226.903 17.5349 227.499 18.5216C228.096 19.5053 228.396 20.654 228.396 21.9677C228.396 23.2813 228.096 24.4005 227.499 25.4137C226.9 26.4269 226.097 27.2192 225.086 27.7877C224.075 28.3591 222.943 28.6448 221.691 28.6448ZM221.691 25.1781C222.573 25.1781 223.293 24.8718 223.848 24.2591C224.404 23.6465 224.68 22.8837 224.68 21.9677C224.68 21.0517 224.404 20.2711 223.848 19.6997C223.293 19.1283 222.573 18.8426 221.691 18.8426C220.809 18.8426 220.118 19.1283 219.533 19.6997C218.948 20.2711 218.657 21.0251 218.657 21.9677C218.657 22.9102 218.948 23.6436 219.533 24.2591C220.118 24.8718 220.835 25.1781 221.691 25.1781Z" fill="white"/>
<path d="M237.277 28.6448C236.051 28.6448 234.928 28.3591 233.902 27.7877C232.876 27.2163 232.059 26.424 231.447 25.4137C230.836 24.4005 230.527 23.2518 230.527 21.9677C230.527 20.6835 230.833 19.5053 231.447 18.5216C232.059 17.5379 232.879 16.7662 233.902 16.2095C234.928 15.6528 236.054 15.376 237.277 15.376C238.499 15.376 239.661 15.6528 240.672 16.2095C241.683 16.7662 242.489 17.5349 243.085 18.5216C243.682 19.5053 243.982 20.654 243.982 21.9677C243.982 23.2813 243.682 24.4005 243.085 25.4137C242.486 26.4269 241.683 27.2192 240.672 27.7877C239.661 28.3591 238.529 28.6448 237.277 28.6448ZM237.277 25.1781C238.158 25.1781 238.879 24.8718 239.434 24.2591C239.99 23.6465 240.266 22.8837 240.266 21.9677C240.266 21.0517 239.99 20.2711 239.434 19.6997C238.879 19.1283 238.158 18.8426 237.277 18.8426C236.395 18.8426 235.704 19.1283 235.119 19.6997C234.534 20.2711 234.243 21.0251 234.243 21.9677C234.243 22.9102 234.534 23.6436 235.119 24.2591C235.704 24.8718 236.421 25.1781 237.277 25.1781Z" fill="white"/>
<path d="M248.518 28.6444C247.977 28.6444 247.522 28.4883 247.151 28.1731C246.781 27.858 246.596 27.4604 246.596 26.9744V11.0518C246.596 10.5953 246.772 10.2036 247.131 9.87664C247.486 9.54971 247.948 9.38477 248.518 9.38477C249.059 9.38477 249.5 9.54971 249.841 9.87664C250.182 10.2036 250.352 10.613 250.352 11.096V26.9331C250.352 27.4191 250.176 27.8256 249.817 28.1525C249.459 28.4794 249.027 28.6444 248.515 28.6444H248.518Z" fill="white"/>
<path d="M94.2677 28.6448C92.3599 28.6448 90.8137 28.038 89.6319 26.8245C88.4502 25.6111 87.8594 23.9941 87.8594 21.9677C87.8594 19.9413 88.4355 18.336 89.5908 17.152C90.7431 15.968 92.2599 15.376 94.1413 15.376C95.4788 15.376 96.6487 15.8472 97.6453 16.7897C97.7599 16.4481 97.9715 16.1624 98.2861 15.9326C98.6006 15.7029 98.9681 15.591 99.3972 15.591C99.9675 15.591 100.429 15.7559 100.785 16.0829C101.14 16.4098 101.32 16.8045 101.32 17.261V26.9777C101.32 27.4637 101.14 27.8642 100.785 28.1764C100.429 28.4916 99.9675 28.6477 99.3972 28.6477C98.4566 28.6477 97.8745 28.2324 97.6453 27.4077C96.734 28.2353 95.6081 28.6477 94.2706 28.6477L94.2677 28.6448ZM94.5675 25.1781C95.4788 25.1781 96.2049 24.8718 96.7457 24.2591C97.2866 23.6465 97.5571 22.8837 97.5571 21.9677C97.5571 21.0517 97.2866 20.2711 96.7457 19.6997C96.2049 19.1283 95.4788 18.8426 94.5675 18.8426C93.6562 18.8426 92.9654 19.1283 92.4099 19.6997C91.8543 20.2711 91.578 21.0251 91.578 21.9677C91.578 22.9102 91.8572 23.6436 92.4099 24.2591C92.9654 24.8718 93.6856 25.1781 94.5675 25.1781Z" fill="white"/>
<path d="M109.858 28.6436C108.632 28.6436 107.621 28.2872 106.824 27.5744C106.028 26.8616 105.628 25.763 105.628 24.2786V19.6544C105.628 19.3687 105.484 19.2273 105.202 19.2273H104.561C104.049 19.2273 103.664 19.0712 103.409 18.756C103.153 18.4409 103.023 18.0433 103.023 17.5573C103.023 17.0448 103.153 16.6236 103.409 16.2937C103.664 15.9668 104.049 15.8019 104.561 15.8019H105.202C105.487 15.8019 105.628 15.6605 105.628 15.3748V12.2085C105.628 11.7226 105.798 11.3102 106.139 10.9685C106.48 10.6269 106.921 10.4561 107.462 10.4561C108.003 10.4561 108.453 10.621 108.809 10.9479C109.164 11.2749 109.344 11.696 109.344 12.2115V15.3777C109.344 15.6634 109.485 15.8048 109.77 15.8048H111.351C111.836 15.8048 112.242 15.9756 112.568 16.3173C112.895 16.659 113.059 17.0742 113.059 17.5573C113.059 18.0403 112.895 18.4409 112.568 18.756C112.242 19.0712 111.822 19.2273 111.307 19.2273H109.77C109.485 19.2273 109.344 19.3716 109.344 19.6544V23.6777C109.344 24.1902 109.435 24.5495 109.62 24.7469C109.805 24.9472 110.04 25.0473 110.325 25.0473C110.437 25.0473 110.666 25.012 111.007 24.9413C111.348 24.8706 111.563 24.8352 111.648 24.8352C112.104 24.8352 112.489 25.0061 112.8 25.3477C113.115 25.6894 113.271 26.1047 113.271 26.5877C113.271 26.9588 113.165 27.3005 112.95 27.6156C112.736 27.9308 112.401 28.1576 111.945 28.3019C111.575 28.4138 111.219 28.5022 110.878 28.5581C110.537 28.6141 110.196 28.6436 109.852 28.6436H109.858Z" fill="white"/>
<path d="M123.83 17.2168C123.83 16.6749 124.006 16.2331 124.365 15.8885C124.721 15.5468 125.17 15.376 125.711 15.376C126.252 15.376 126.699 15.5556 127.058 15.912C127.413 16.2684 127.59 16.7043 127.59 17.2168V23.2518C127.59 24.4211 127.29 25.4137 126.693 26.2266C126.093 27.0395 125.326 27.6463 124.385 28.0469C123.445 28.4445 122.448 28.6477 121.396 28.6477C120.343 28.6477 119.388 28.4474 118.447 28.0469C117.507 27.6463 116.731 27.0395 116.119 26.2266C115.508 25.4137 115.199 24.4211 115.199 23.2518V17.2168C115.199 16.6749 115.376 16.2331 115.734 15.8885C116.09 15.5468 116.54 15.376 117.081 15.376C117.621 15.376 118.071 15.5556 118.427 15.912C118.783 16.2684 118.962 16.7043 118.962 17.2168V23.081C118.962 23.6818 119.188 24.1796 119.644 24.5802C120.1 24.9807 120.682 25.181 121.396 25.181C122.11 25.181 122.692 24.9807 123.148 24.5802C123.603 24.1826 123.83 23.6818 123.83 23.081V17.2168Z" fill="white"/>
<path d="M136.174 34.4235C135.378 34.4235 134.608 34.344 133.867 34.1879C133.126 34.0318 132.456 33.7962 131.859 33.481C131.177 33.1099 130.833 32.5385 130.833 31.7698C130.833 31.2838 131.004 30.8626 131.345 30.5062C131.686 30.1498 132.085 29.9702 132.541 29.9702C132.911 29.9702 133.238 30.0556 133.523 30.2264C133.978 30.4826 134.455 30.6682 134.954 30.7831C135.451 30.8979 135.945 30.9539 136.427 30.9539C137.509 30.9539 138.314 30.7094 138.841 30.2264C139.367 29.7404 139.631 29.0983 139.631 28.3001V27.3164C138.72 28.203 137.594 28.6448 136.257 28.6448C134.349 28.6448 132.817 28.038 131.665 26.8245C130.51 25.6111 129.934 23.9941 129.934 21.9677C129.934 19.9413 130.495 18.336 131.621 17.152C132.747 15.968 134.249 15.376 136.127 15.376C137.494 15.376 138.676 15.9061 139.672 16.9606C139.758 16.5629 139.963 16.2331 140.293 15.9768C140.619 15.7206 141.025 15.591 141.51 15.591C142.08 15.591 142.536 15.7618 142.877 16.1035C143.218 16.4451 143.388 16.8752 143.388 17.3876V28.3885C143.388 30.2146 142.753 31.6785 141.486 32.7771C140.219 33.8757 138.447 34.4265 136.168 34.4265L136.174 34.4235ZM136.559 25.1781C137.415 25.1781 138.103 24.8718 138.632 24.2591C139.158 23.6465 139.423 22.8837 139.423 21.9677C139.423 21.0517 139.158 20.2711 138.632 19.6997C138.106 19.1283 137.415 18.8426 136.559 18.8426C135.704 18.8426 134.972 19.1283 134.446 19.6997C133.92 20.2711 133.655 21.0251 133.655 21.9677C133.655 22.9102 133.92 23.6436 134.446 24.2591C134.972 24.8718 135.678 25.1781 136.559 25.1781Z" fill="white"/>
<path d="M151.936 28.6448C150.028 28.6448 148.482 28.038 147.3 26.8245C146.118 25.6111 145.527 23.9941 145.527 21.9677C145.527 19.9413 146.104 18.336 147.259 17.152C148.411 15.968 149.928 15.376 151.809 15.376C153.147 15.376 154.317 15.8472 155.313 16.7897C155.428 16.4481 155.64 16.1624 155.954 15.9326C156.269 15.7029 156.636 15.591 157.065 15.591C157.636 15.591 158.097 15.7559 158.453 16.0829C158.808 16.4098 158.988 16.8045 158.988 17.261V26.9777C158.988 27.4637 158.808 27.8642 158.453 28.1764C158.097 28.4916 157.636 28.6477 157.065 28.6477C156.125 28.6477 155.543 28.2324 155.313 27.4077C154.402 28.2353 153.276 28.6477 151.939 28.6477L151.936 28.6448ZM152.235 25.1781C153.147 25.1781 153.873 24.8718 154.414 24.2591C154.955 23.6465 155.225 22.8837 155.225 21.9677C155.225 21.0517 154.955 20.2711 154.414 19.6997C153.873 19.1283 153.147 18.8426 152.235 18.8426C151.324 18.8426 150.633 19.1283 150.078 19.6997C149.522 20.2711 149.246 21.0251 149.246 21.9677C149.246 22.9102 149.525 23.6436 150.078 24.2591C150.633 24.8718 151.354 25.1781 152.235 25.1781Z" fill="white"/>
<path d="M80.5912 22.582C82.2618 22.582 83.6161 21.2251 83.6161 19.5513C83.6161 17.8774 82.2618 16.5205 80.5912 16.5205C78.9207 16.5205 77.5664 17.8774 77.5664 19.5513C77.5664 21.2251 78.9207 22.582 80.5912 22.582Z" fill="white"/>
<path d="M80.5912 16.5215C82.2618 16.5215 83.6161 15.1646 83.6161 13.4907C83.6161 11.8169 82.2618 10.46 80.5912 10.46C78.9207 10.46 77.5664 11.8169 77.5664 13.4907C77.5664 15.1646 78.9207 16.5215 80.5912 16.5215Z" fill="white"/>
<path d="M86.642 16.5215C88.3126 16.5215 89.6669 15.1646 89.6669 13.4907C89.6669 11.8169 88.3126 10.46 86.642 10.46C84.9715 10.46 83.6172 11.8169 83.6172 13.4907C83.6172 15.1646 84.9715 16.5215 86.642 16.5215Z" fill="white"/>
<path d="M74.5405 10.4639C72.8708 10.4639 71.5156 11.8187 71.5156 13.4946C71.5156 15.1705 72.8678 16.5254 74.5405 16.5254C76.2131 16.5254 77.5653 15.1705 77.5653 13.4946C77.5653 11.8187 76.2131 10.4639 74.5405 10.4639ZM74.5405 15.6123C73.3734 15.6123 72.4269 14.6639 72.4269 13.4946C72.4269 12.3253 73.3734 11.3769 74.5405 11.3769C75.7075 11.3769 76.654 12.3253 76.654 13.4946C76.654 14.6639 75.7075 15.6123 74.5405 15.6123Z" fill="white"/>
</svg>
