<svg width="64" height="64" viewBox="0 0 64 64" fill="none" xmlns="http://www.w3.org/2000/svg">
<rect width="64" height="64" rx="9" fill="#383767"/>
<path d="M46.4579 51.7502C50.4851 51.7502 53.7498 48.4855 53.7498 44.4581C53.7498 40.4308 50.4851 37.166 46.4579 37.166C42.4307 37.166 39.166 40.4308 39.166 44.4581C39.166 48.4855 42.4307 51.7502 46.4579 51.7502Z" fill="#9291E0"/>
<path d="M46.4575 22.5829H31.875V37.1658H46.4575C50.4845 37.1658 53.7493 33.9008 53.7493 29.8737C53.7493 25.8465 50.4845 22.5815 46.4575 22.5815V22.5829Z" fill="#9291E0"/>
<path d="M31.8759 51.7502C35.9031 51.7502 39.1678 48.4855 39.1678 44.4581C39.1678 40.4308 35.9031 37.166 31.8759 37.166C27.8487 37.166 24.584 40.4308 24.584 44.4581C24.584 48.4855 27.8487 51.7502 31.8759 51.7502Z" fill="white"/>
<path d="M24.5838 29.8751C24.5838 25.848 21.3189 22.583 17.2919 22.583C13.2648 22.583 10 25.848 10 29.8751C10 30.0421 10.0146 30.2065 10.0252 30.3709H10V44.458H24.5824V30.3709H24.5573C24.5679 30.2065 24.5824 30.0421 24.5824 29.8751H24.5838Z" fill="#9291E0"/>
<path d="M31.8759 37.1672C35.9031 37.1672 39.1678 33.9024 39.1678 29.8751C39.1678 25.8478 35.9031 22.583 31.8759 22.583C27.8487 22.583 24.584 25.8478 24.584 29.8751C24.584 33.9024 27.8487 37.1672 31.8759 37.1672Z" fill="white"/>
<path d="M17.2938 51.7502C21.321 51.7502 24.5857 48.4855 24.5857 44.4581C24.5857 40.4308 21.321 37.166 17.2938 37.166C13.2666 37.166 10.002 40.4308 10.002 44.4581C10.002 48.4855 13.2666 51.7502 17.2938 51.7502Z" fill="#9291E0"/>
<path d="M31.8763 8H17.2938C13.2668 8 10.002 11.2649 10.002 15.2921C10.002 19.3193 13.2668 22.5842 17.2938 22.5842H31.8763C35.9033 22.5842 39.1682 19.3193 39.1682 15.2921C39.1682 11.2649 35.9033 8 31.8763 8Z" fill="white"/>
<path d="M46.4579 8C42.4309 8 39.166 11.2649 39.166 15.2921C39.166 19.3193 42.4309 22.5842 46.4579 22.5842C50.4849 22.5842 53.7498 19.3193 53.7498 15.2921C53.7498 11.2649 50.4849 8 46.4579 8ZM46.4579 20.3917C43.6411 20.3917 41.3572 18.1077 41.3572 15.2908C41.3572 12.4739 43.6411 10.1899 46.4579 10.1899C49.2747 10.1899 51.5586 12.4739 51.5586 15.2908C51.5586 18.1077 49.2747 20.3917 46.4579 20.3917Z" fill="white"/>
</svg>
