<svg width="27" height="27" viewBox="0 0 27 27" fill="none" xmlns="http://www.w3.org/2000/svg">
<path fill-rule="evenodd" clip-rule="evenodd" d="M12.0195 4.5C8.74681 4.5 5.99744 7.02345 5.63603 10.359L5.39048 12.6252L5.38458 12.6793C5.27455 13.6625 4.96246 14.6106 4.46889 15.4611L4.44164 15.5077L3.87796 16.4711L3.85441 16.5114C3.61889 16.9138 3.4055 17.2785 3.26337 17.5879C3.11893 17.9024 2.96449 18.3286 3.03883 18.8117C3.11231 19.2893 3.35198 19.7233 3.7135 20.0337C4.07926 20.3476 4.51504 20.431 4.85234 20.4658C5.18426 20.5001 5.59895 20.5 6.05668 20.5L6.10242 20.5H8.26329C8.46691 21.5356 8.8849 22.4971 9.50245 23.2259C10.1562 23.9975 11.0343 24.5 12.0195 24.5C13.0048 24.5 13.8829 23.9975 14.5366 23.2259C15.1542 22.4971 15.5722 21.5356 15.7758 20.5H17.9366L17.9824 20.5C18.4401 20.5 18.8548 20.5001 19.1867 20.4658C19.524 20.431 19.9598 20.3476 20.3256 20.0337C20.6871 19.7233 20.9268 19.2893 21.0002 18.8117C21.0746 18.3286 20.9201 17.9024 20.7757 17.5879C20.6336 17.2785 20.4202 16.9138 20.1846 16.5114L20.1611 16.4711L19.5974 15.5077L19.5702 15.4611C19.0766 14.6106 18.7645 13.6625 18.6545 12.6793L18.6486 12.6252L18.403 10.359C18.0416 7.02346 15.2923 4.5 12.0195 4.5ZM13.7703 20.5H10.2687C10.4323 21.086 10.683 21.5699 10.9747 21.9142C11.3429 22.3487 11.7167 22.5 12.0195 22.5C12.3223 22.5 12.6962 22.3487 13.0643 21.9142C13.356 21.57 13.6068 21.086 13.7703 20.5ZM7.57444 10.5798C7.8261 8.25718 9.7406 6.5 12.0195 6.5C14.2985 6.5 16.213 8.25719 16.4646 10.5799L16.7102 12.8461L16.7169 12.9073C16.8583 14.1714 17.2596 15.3904 17.8942 16.4839L17.925 16.5367L18.4887 17.5001C18.7554 17.956 18.9161 18.233 19.0112 18.4401C19.0164 18.4514 19.0212 18.4621 19.0256 18.472C19.015 18.4733 19.0036 18.4746 18.9915 18.4759C18.7694 18.4988 18.455 18.5 17.9366 18.5H6.10242C5.58403 18.5 5.26966 18.4988 5.04757 18.4759C5.03542 18.4746 5.02407 18.4733 5.01347 18.472C5.01785 18.4621 5.02262 18.4514 5.02782 18.4401C5.12292 18.233 5.28365 17.956 5.55036 17.5001L6.11404 16.5367L6.14489 16.4839C6.77948 15.3904 7.18074 14.1714 7.3222 12.9073L7.32889 12.8461L7.57444 10.5798Z" fill="#637381"/>
<rect x="12.25" y="0.5" width="14" height="14" rx="7" fill="#F04438"/>
<path d="M19.8477 4.78125V10.5H19.125V5.68359L17.668 6.21484V5.5625L19.7344 4.78125H19.8477Z" fill="white"/>
</svg>
