<svg width="51" height="50" viewBox="0 0 51 50" fill="none" xmlns="http://www.w3.org/2000/svg">
<path d="M34.2128 31.9336C36.7298 31.9336 38.7703 29.8931 38.7703 27.376C38.7703 24.8589 36.7298 22.8185 34.2128 22.8185C31.6958 22.8185 29.6554 24.8589 29.6554 27.376C29.6554 29.8931 31.6958 31.9336 34.2128 31.9336Z" fill="#DF91B5"/>
<path d="M34.2128 13.7041H25.0988V22.8184H34.2128C36.7297 22.8184 38.7702 20.7778 38.7702 18.2608C38.7702 15.7438 36.7297 13.7032 34.2128 13.7032V13.7041Z" fill="#9291E0"/>
<path d="M25.0988 31.9336C27.6158 31.9336 29.6562 29.8931 29.6562 27.376C29.6562 24.8589 27.6158 22.8185 25.0988 22.8185C22.5818 22.8185 20.5414 24.8589 20.5414 27.376C20.5414 29.8931 22.5818 31.9336 25.0988 31.9336Z" fill="#383767"/>
<path d="M20.5414 18.2617C20.5414 15.7447 18.5008 13.7041 15.9839 13.7041C13.467 13.7041 11.4265 15.7447 11.4265 18.2617C11.4265 18.3661 11.4356 18.4688 11.4423 18.5715H11.4265V27.376H20.5405V18.5715H20.5248C20.5314 18.4688 20.5405 18.3661 20.5405 18.2617H20.5414Z" fill="#808285"/>
<path d="M25.0988 22.8192C27.6158 22.8192 29.6562 20.7788 29.6562 18.2617C29.6562 15.7446 27.6158 13.7041 25.0988 13.7041C22.5818 13.7041 20.5414 15.7446 20.5414 18.2617C20.5414 20.7788 22.5818 22.8192 25.0988 22.8192Z" fill="#383767"/>
<path d="M15.9847 31.9336C18.5017 31.9336 20.5421 29.8931 20.5421 27.376C20.5421 24.8589 18.5017 22.8185 15.9847 22.8185C13.4677 22.8185 11.4272 24.8589 11.4272 27.376C11.4272 29.8931 13.4677 31.9336 15.9847 31.9336Z" fill="#9291E0"/>
<path d="M25.0987 4.58984H15.9847C13.4678 4.58984 11.4272 6.63044 11.4272 9.14742C11.4272 11.6644 13.4678 13.705 15.9847 13.705H25.0987C27.6156 13.705 29.6561 11.6644 29.6561 9.14742C29.6561 6.63044 27.6156 4.58984 25.0987 4.58984Z" fill="#383767"/>
<path d="M34.2128 4.58984C31.6959 4.58984 29.6554 6.63044 29.6554 9.14742C29.6554 11.6644 31.6959 13.705 34.2128 13.705C36.7297 13.705 38.7703 11.6644 38.7703 9.14742C38.7703 6.63044 36.7297 4.58984 34.2128 4.58984ZM34.2128 12.3347C32.4523 12.3347 31.0249 10.9071 31.0249 9.14659C31.0249 7.38603 32.4523 5.95852 34.2128 5.95852C35.9733 5.95852 37.4008 7.38603 37.4008 9.14659C37.4008 10.9071 35.9733 12.3347 34.2128 12.3347Z" fill="#383767"/>
<path d="M2.63548 37.8352H4.32604C4.79285 37.8352 5.17173 37.4564 5.17173 36.9878C5.17173 36.5201 4.79367 36.1405 4.32604 36.1405H2.63548C2.16867 36.1405 1.78979 36.5193 1.78979 36.9878C1.78979 37.4555 2.16785 37.8352 2.63548 37.8352Z" fill="#9291E0"/>
<path d="M1.78979 38.6825V40.3763C1.78979 40.8441 2.16785 41.2237 2.63548 41.2237C3.1023 41.2237 3.48117 40.8449 3.48117 40.3763V38.6825C3.48117 38.2147 3.10312 37.8351 2.63548 37.8351C2.16867 37.8351 1.78979 38.2139 1.78979 38.6825Z" fill="#383767"/>
<path d="M0.280019 44.8914C0.225776 44.8914 0.182218 44.8766 0.148522 44.8469C0.114826 44.8173 0.0983887 44.7728 0.0983887 44.7135V43.5903C0.0983887 43.5434 0.114004 43.5047 0.144413 43.4734C0.174821 43.4429 0.21427 43.4273 0.261116 43.4273H0.871754C0.898875 43.4273 0.9186 43.4363 0.930928 43.4528C0.943255 43.4693 0.949008 43.4899 0.949008 43.5121C0.949008 43.5319 0.941612 43.5491 0.926818 43.564C0.912025 43.5788 0.893122 43.5862 0.870932 43.5862H0.406584C0.320289 43.5862 0.277553 43.6298 0.277553 43.7163V43.9419C0.277553 44.0284 0.320289 44.072 0.406584 44.072H0.820799C0.872576 44.072 0.898053 44.0976 0.898053 44.1495C0.898053 44.1964 0.872576 44.2194 0.820799 44.2194H0.406584C0.320289 44.2194 0.277553 44.2631 0.277553 44.3487V44.6007C0.277553 44.6872 0.320289 44.73 0.406584 44.73H0.891479C0.921065 44.73 0.941612 44.7391 0.952296 44.7555C0.963802 44.7728 0.968733 44.7918 0.968733 44.8115C0.968733 44.8288 0.96298 44.8461 0.950652 44.8634C0.938324 44.8807 0.9186 44.8889 0.891479 44.8889H0.280019V44.8914Z" fill="#707072"/>
<path d="M1.52691 44.9284C1.50226 44.9284 1.48171 44.9202 1.46609 44.9045C1.45048 44.8881 1.44226 44.8683 1.44226 44.8436V43.9172C1.44226 43.89 1.45048 43.8694 1.46774 43.8563C1.485 43.8423 1.50472 43.8357 1.52691 43.8357C1.54664 43.8357 1.56472 43.8423 1.58198 43.8563C1.59924 43.8703 1.60745 43.89 1.60745 43.9172V43.9946C1.64937 43.9353 1.70279 43.8909 1.76854 43.8612C1.83429 43.8316 1.90086 43.8167 1.96989 43.8167C2.05126 43.8167 2.1244 43.8365 2.19015 43.876C2.2559 43.9156 2.30521 43.9765 2.33973 44.058C2.38657 43.9641 2.44903 43.9007 2.52629 43.867C2.60354 43.8332 2.67751 43.8167 2.74654 43.8167C2.86243 43.8167 2.96023 43.8579 3.04077 43.9394C3.12131 44.021 3.16076 44.1494 3.16076 44.3248V44.8436C3.16076 44.8683 3.15336 44.8889 3.13857 44.9045C3.12378 44.9202 3.10405 44.9284 3.0794 44.9284C3.05474 44.9284 3.03419 44.9202 3.01858 44.9045C3.00296 44.8889 2.99474 44.8683 2.99474 44.8436V44.3363C2.99474 44.2104 2.97091 44.119 2.92242 44.0621C2.87475 44.0053 2.80818 43.9765 2.72435 43.9765C2.64052 43.9765 2.57395 43.9971 2.52464 44.0374C2.47533 44.0786 2.43917 44.128 2.4178 44.1873C2.39561 44.2466 2.38411 44.3075 2.38411 44.3685V44.8428C2.38411 44.8675 2.37671 44.8881 2.36192 44.9037C2.34712 44.9194 2.3274 44.9276 2.30274 44.9276C2.27809 44.9276 2.25754 44.9194 2.24193 44.9037C2.22549 44.8872 2.21809 44.8675 2.21809 44.8428V44.3388C2.21809 44.2128 2.19426 44.1206 2.14577 44.063C2.09728 44.0053 2.03153 43.9757 1.9477 43.9757C1.86387 43.9757 1.7973 43.9963 1.74799 44.0366C1.69868 44.0778 1.66252 44.128 1.64033 44.1889C1.61814 44.2499 1.60663 44.3092 1.60663 44.3685V44.8428C1.60663 44.8675 1.59923 44.8881 1.58444 44.9037C1.56965 44.9194 1.54992 44.9276 1.52527 44.9276L1.52691 44.9284Z" fill="#707072"/>
<path d="M4.22012 44.9284C4.14122 44.9284 4.0689 44.9128 4.00397 44.8823C3.93822 44.8518 3.88398 44.809 3.8396 44.7547V45.3253C3.8396 45.35 3.8322 45.3706 3.81741 45.3863C3.80262 45.4027 3.78289 45.4101 3.75823 45.4101C3.73358 45.4101 3.71303 45.4019 3.69742 45.3863C3.6818 45.3698 3.67358 45.35 3.67358 45.3253V43.9172C3.67358 43.89 3.6818 43.8694 3.69906 43.8563C3.71632 43.8423 3.73604 43.8357 3.75823 43.8357C3.77796 43.8357 3.79604 43.8423 3.8133 43.8563C3.83056 43.8703 3.83878 43.89 3.83878 43.9172V43.9839C3.93493 43.8727 4.06232 43.8167 4.22012 43.8167C4.37791 43.8167 4.49873 43.8678 4.59735 43.9707C4.69597 44.0728 4.74528 44.2046 4.74528 44.3652C4.74528 44.5257 4.69597 44.6657 4.59735 44.7711C4.49873 44.8765 4.37298 44.9284 4.22012 44.9284ZM4.22012 44.7761C4.32614 44.7761 4.41161 44.7366 4.47736 44.6575C4.54228 44.5784 4.57516 44.4805 4.57516 44.3643C4.57516 44.2482 4.54228 44.1593 4.47736 44.0827C4.41161 44.0061 4.32614 43.9674 4.22012 43.9674C4.1067 43.9674 4.01465 44.0012 3.9448 44.0679C3.87412 44.1346 3.8396 44.2334 3.8396 44.3643C3.8396 44.4953 3.87494 44.6031 3.9448 44.6723C4.01465 44.7415 4.1067 44.7761 4.22012 44.7761Z" fill="#707072"/>
<path d="M5.7439 44.9284C5.64034 44.9284 5.54747 44.9037 5.46611 44.8543C5.38475 44.8049 5.31982 44.7374 5.27215 44.6526C5.22366 44.5669 5.19983 44.4714 5.19983 44.3652C5.19983 44.2589 5.22366 44.1651 5.27215 44.0835C5.31982 44.002 5.38475 43.937 5.46611 43.8892C5.54747 43.8406 5.64034 43.8167 5.7439 43.8167C5.84745 43.8167 5.94032 43.8406 6.02333 43.8892C6.10551 43.9378 6.17126 44.002 6.21975 44.0835C6.26824 44.1651 6.29207 44.2589 6.29207 44.3652C6.29207 44.4714 6.26824 44.5669 6.21975 44.6526C6.17208 44.7382 6.10633 44.8049 6.02333 44.8543C5.94114 44.9037 5.84745 44.9284 5.7439 44.9284ZM5.7439 44.7761C5.85978 44.7761 5.95265 44.7366 6.02168 44.6575C6.09072 44.5784 6.12524 44.4805 6.12524 44.3643C6.12524 44.2482 6.09072 44.1593 6.02168 44.0827C5.95265 44.0061 5.85978 43.9674 5.7439 43.9674C5.62802 43.9674 5.54008 44.0061 5.47186 44.0827C5.40365 44.1593 5.36995 44.2532 5.36995 44.3643C5.36995 44.4755 5.40365 44.5784 5.47186 44.6575C5.54008 44.7366 5.63048 44.7761 5.7439 44.7761Z" fill="#707072"/>
<path d="M7.0423 44.9285C6.96833 44.9285 6.91984 44.8914 6.89765 44.8173L6.61986 43.9313C6.6174 43.9239 6.61658 43.9131 6.61658 43.8975C6.61658 43.8753 6.6248 43.8563 6.64041 43.8399C6.65685 43.8242 6.67657 43.816 6.70123 43.816C6.74314 43.816 6.76862 43.8349 6.77848 43.872L7.00367 44.6691C7.01107 44.6938 7.02339 44.7061 7.04065 44.7061C7.05791 44.7061 7.07024 44.6938 7.07764 44.6691L7.27735 43.9683C7.28228 43.9486 7.29543 43.9321 7.31762 43.9181C7.33981 43.9049 7.36446 43.8975 7.39159 43.8975C7.41871 43.8975 7.44336 43.9041 7.46555 43.9181C7.48774 43.9321 7.50089 43.9486 7.50665 43.9683L7.70636 44.6691C7.71375 44.6938 7.72608 44.7061 7.74334 44.7061C7.7606 44.7061 7.77293 44.6938 7.78032 44.6691L8.00633 43.8761C8.0162 43.8366 8.04332 43.8168 8.0877 43.8168C8.10989 43.8168 8.12879 43.8234 8.14523 43.8374C8.16084 43.8514 8.16906 43.8703 8.16906 43.895C8.16906 43.9074 8.16742 43.9173 8.16495 43.9247L7.88799 44.8181C7.8658 44.8922 7.81731 44.9293 7.74334 44.9293C7.66937 44.9293 7.61842 44.8922 7.59869 44.8181L7.42117 44.1734C7.41624 44.1536 7.40638 44.1437 7.39159 44.1437C7.37926 44.1437 7.3694 44.1536 7.362 44.1734L7.18448 44.8181C7.16475 44.8922 7.11626 44.9293 7.03983 44.9293L7.0423 44.9285Z" fill="#707072"/>
<path d="M9.10263 44.9284C8.93004 44.9284 8.79197 44.8774 8.68841 44.7744C8.58486 44.6723 8.53308 44.5307 8.53308 44.3503C8.53308 44.2515 8.55527 44.1618 8.59965 44.0819C8.64403 44.0012 8.70649 43.937 8.78621 43.8892C8.86593 43.8414 8.96045 43.8167 9.06893 43.8167C9.17741 43.8167 9.27604 43.8406 9.35 43.8892C9.42397 43.9378 9.47904 43.9971 9.51438 44.0671C9.54971 44.1371 9.5678 44.2071 9.5678 44.2762C9.5678 44.3182 9.55876 44.3528 9.53985 44.38C9.52177 44.4072 9.49465 44.4212 9.46013 44.4212H8.75005C8.73526 44.4212 8.72457 44.4228 8.71882 44.4245C8.71307 44.4269 8.70978 44.4352 8.70978 44.45C8.70978 44.492 8.72375 44.5381 8.75087 44.5875C8.77799 44.6369 8.81662 44.6797 8.86758 44.7151C8.91771 44.7514 8.97688 44.7711 9.04345 44.7761C9.11495 44.781 9.18563 44.7736 9.25467 44.7538C9.32371 44.7341 9.38534 44.7036 9.43959 44.6608C9.45191 44.6509 9.46506 44.646 9.48068 44.646C9.49794 44.646 9.51438 44.6534 9.53081 44.6682C9.54643 44.683 9.55465 44.702 9.55465 44.7234C9.55465 44.7448 9.54396 44.7678 9.52177 44.7901C9.4626 44.837 9.39603 44.8716 9.32206 44.8938C9.24809 44.9161 9.17495 44.9276 9.10345 44.9276L9.10263 44.9284ZM9.33603 44.2911C9.35576 44.2911 9.37055 44.2828 9.38041 44.2672C9.39028 44.2515 9.39274 44.2309 9.38781 44.2062C9.38041 44.142 9.34672 44.0844 9.28754 44.0341C9.22837 43.9839 9.15522 43.9584 9.06893 43.9584C9.00483 43.9584 8.94647 43.974 8.89305 44.0045C8.83963 44.035 8.7969 44.0745 8.76567 44.1214C8.73361 44.1684 8.71718 44.2178 8.71718 44.2696C8.71718 44.282 8.72786 44.2878 8.75087 44.2878L9.33521 44.2911H9.33603Z" fill="#707072"/>
<path d="M10.209 44.3685V44.8428C10.209 44.8675 10.2016 44.8881 10.1868 44.9038C10.172 44.9194 10.1523 44.9277 10.1276 44.9277C10.103 44.9277 10.0824 44.9194 10.0668 44.9038C10.0512 44.8873 10.043 44.8675 10.043 44.8428V43.9164C10.043 43.8893 10.0512 43.8687 10.0684 43.8555C10.0857 43.8415 10.1054 43.8349 10.1276 43.8349C10.1473 43.8349 10.1654 43.8415 10.1827 43.8555C10.1999 43.8695 10.2082 43.8893 10.2082 43.9164V44.0054C10.2377 43.9436 10.2871 43.8967 10.3561 43.8646C10.4251 43.8324 10.4901 43.816 10.5525 43.816C10.5895 43.816 10.6265 43.8226 10.6635 43.8349C10.6881 43.8423 10.7062 43.8563 10.7169 43.8753C10.7284 43.895 10.73 43.9173 10.7226 43.942C10.7054 43.9914 10.6717 44.0111 10.6224 44.0013C10.578 43.9889 10.541 43.9831 10.5114 43.9831C10.4153 43.9831 10.3405 44.0194 10.2879 44.0927C10.2345 44.166 10.2082 44.2574 10.2082 44.3685H10.209Z" fill="#707072"/>
<path d="M11.2187 43.5722C11.1793 43.5722 11.148 43.5606 11.1242 43.5368C11.1012 43.5129 11.0889 43.4832 11.0889 43.4462C11.0889 43.4067 11.1004 43.3754 11.1242 43.3515C11.148 43.3276 11.1793 43.3161 11.2187 43.3161C11.2582 43.3161 11.2894 43.3276 11.3132 43.3515C11.3371 43.3754 11.3486 43.4067 11.3486 43.4462C11.3486 43.4832 11.3371 43.5137 11.3132 43.5368C11.2894 43.5598 11.2582 43.5722 11.2187 43.5722ZM11.2294 44.9284C11.2047 44.9284 11.1842 44.9202 11.1686 44.9045C11.153 44.8889 11.1448 44.8683 11.1448 44.8436V43.8983C11.1448 43.8711 11.153 43.8505 11.1702 43.8373C11.1875 43.8233 11.2072 43.8167 11.2294 43.8167C11.2491 43.8167 11.2672 43.8233 11.2845 43.8373C11.3017 43.8513 11.3099 43.8711 11.3099 43.8983V44.8436C11.3099 44.8683 11.3025 44.8889 11.2878 44.9045C11.273 44.9202 11.2532 44.9284 11.2286 44.9284H11.2294Z" fill="#707072"/>
<path d="M12.7576 44.9284C12.7329 44.9284 12.7124 44.9202 12.6967 44.9045C12.6811 44.8889 12.6729 44.8683 12.6729 44.8436V44.3396C12.6729 44.2161 12.6474 44.1247 12.5956 44.0654C12.5439 44.0061 12.4707 43.9765 12.377 43.9765C12.2907 43.9765 12.2201 43.9971 12.1642 44.0374C12.1083 44.0786 12.0688 44.1288 12.0442 44.1898C12.0195 44.2507 12.0072 44.31 12.0072 44.3693V44.8436C12.0072 44.8683 11.9998 44.8889 11.985 44.9045C11.9702 44.9202 11.9505 44.9284 11.9258 44.9284C11.9012 44.9284 11.8806 44.9202 11.865 44.9045C11.8494 44.8881 11.8412 44.8683 11.8412 44.8436V43.9172C11.8412 43.89 11.8494 43.8694 11.8667 43.8563C11.8839 43.8423 11.9036 43.8357 11.9258 43.8357C11.9456 43.8357 11.9636 43.8423 11.9809 43.8563C11.9982 43.8703 12.0064 43.89 12.0064 43.9172V43.9987C12.0557 43.9419 12.1149 43.8974 12.1839 43.8653C12.2529 43.8332 12.3244 43.8167 12.3984 43.8167C12.5241 43.8167 12.6293 43.8579 12.7132 43.9411C12.797 44.0243 12.8389 44.1519 12.8389 44.3248V44.8436C12.8389 44.8683 12.8315 44.8889 12.8167 44.9045C12.8019 44.9202 12.7822 44.9284 12.7576 44.9284Z" fill="#707072"/>
<path d="M13.7823 45.3921C13.7157 45.3921 13.6458 45.383 13.5735 45.3665C13.5004 45.3492 13.4396 45.3245 13.3903 45.2924C13.3631 45.2751 13.35 45.2504 13.35 45.2183C13.35 45.1664 13.373 45.1409 13.4198 45.1409C13.4371 45.1409 13.4544 45.1458 13.4716 45.1557C13.5135 45.178 13.5645 45.1977 13.6237 45.215C13.6828 45.2323 13.7395 45.2405 13.7938 45.2405C13.8949 45.2405 13.982 45.2134 14.0543 45.159C14.1266 45.1047 14.1636 45.0281 14.1636 44.9293V44.7555C14.1192 44.8099 14.0642 44.8527 13.9992 44.8832C13.9343 44.9136 13.862 44.9293 13.7831 44.9293C13.6302 44.9293 13.5045 44.8766 13.4059 44.772C13.3072 44.6666 13.2579 44.5315 13.2579 44.366C13.2579 44.2005 13.3072 44.0737 13.4059 43.9716C13.5045 43.8687 13.6302 43.8176 13.7831 43.8176C13.936 43.8176 14.0675 43.8736 14.1644 43.9848V43.9181C14.1644 43.8909 14.1727 43.8703 14.1899 43.8571C14.2072 43.8431 14.2269 43.8365 14.2491 43.8365C14.2688 43.8365 14.2869 43.8431 14.3042 43.8571C14.3214 43.8711 14.3296 43.8909 14.3296 43.9181V44.9079C14.3296 45.066 14.2762 45.1862 14.1702 45.2694C14.0642 45.3525 13.9343 45.3937 13.7823 45.3937V45.3921ZM13.7823 44.7769C13.8982 44.7769 13.991 44.7423 14.0592 44.6732C14.1283 44.604 14.1628 44.5011 14.1628 44.3652C14.1628 44.2293 14.1283 44.1355 14.0592 44.0688C13.9902 44.0021 13.8982 43.9683 13.7823 43.9683C13.6763 43.9683 13.5908 44.007 13.525 44.0836C13.4593 44.1602 13.4272 44.254 13.4272 44.3652C13.4272 44.4764 13.4601 44.5793 13.525 44.6584C13.59 44.7374 13.6763 44.7769 13.7823 44.7769Z" fill="#707072"/>
<path d="M16.0126 44.8914C15.9583 44.8914 15.9148 44.8766 15.8811 44.8469C15.8474 44.8173 15.8309 44.7728 15.8309 44.7135V43.5903C15.8309 43.5434 15.8465 43.5047 15.877 43.4734C15.9074 43.4429 15.9468 43.4273 15.9937 43.4273H16.6043C16.6314 43.4273 16.6511 43.4363 16.6635 43.4528C16.6758 43.4693 16.6816 43.4899 16.6816 43.5121C16.6816 43.5319 16.6742 43.5491 16.6594 43.564C16.6446 43.5788 16.6257 43.5862 16.6035 43.5862H16.1375C16.0512 43.5862 16.0085 43.6298 16.0085 43.7163V43.9419C16.0085 44.0284 16.0512 44.072 16.1375 44.072H16.5517C16.6035 44.072 16.629 44.0976 16.629 44.1495C16.629 44.1964 16.6035 44.2194 16.5517 44.2194H16.1375C16.0512 44.2194 16.0085 44.2631 16.0085 44.3487V44.6007C16.0085 44.6872 16.0512 44.73 16.1375 44.73H16.6224C16.652 44.73 16.6725 44.7391 16.6832 44.7555C16.6947 44.7728 16.6996 44.7918 16.6996 44.8115C16.6996 44.8288 16.6939 44.8461 16.6816 44.8634C16.6692 44.8807 16.6495 44.8889 16.6224 44.8889H16.0117L16.0126 44.8914Z" fill="#707072"/>
<path d="M17.6443 44.9284C17.4914 44.9284 17.3657 44.8757 17.2671 44.7711C17.1685 44.6657 17.1191 44.5307 17.1191 44.3652C17.1191 44.1996 17.1685 44.0728 17.2671 43.9707C17.3657 43.8678 17.4914 43.8167 17.6443 43.8167C17.7972 43.8167 17.9295 43.8727 18.0256 43.9839V43.3795C18.0256 43.3523 18.0347 43.3317 18.0511 43.3185C18.0676 43.3054 18.0865 43.2979 18.107 43.2979C18.1292 43.2979 18.1489 43.3045 18.1662 43.3185C18.1834 43.3325 18.1917 43.3523 18.1917 43.3795V44.8246C18.1917 44.8494 18.1834 44.8699 18.1678 44.8856C18.1522 44.9012 18.1317 44.9095 18.107 44.9095C18.0824 44.9095 18.0626 44.9012 18.0478 44.8856C18.033 44.8699 18.0256 44.8494 18.0256 44.8246V44.7547C17.9813 44.809 17.9262 44.8518 17.8613 44.8823C17.7955 44.9128 17.724 44.9284 17.6451 44.9284H17.6443ZM17.6443 44.7761C17.7602 44.7761 17.8531 44.7415 17.9221 44.6723C17.9911 44.6031 18.0256 44.5002 18.0256 44.3643C18.0256 44.2285 17.9911 44.1346 17.9221 44.0679C17.8531 44.0012 17.7602 43.9674 17.6443 43.9674C17.5383 43.9674 17.4528 44.0061 17.3871 44.0827C17.3213 44.1593 17.2893 44.2532 17.2893 44.3643C17.2893 44.4755 17.3221 44.5784 17.3871 44.6575C17.4528 44.7365 17.5383 44.7761 17.6443 44.7761Z" fill="#707072"/>
<path d="M19.4966 43.9016C19.4966 43.8744 19.5056 43.853 19.5221 43.8382C19.5393 43.8234 19.559 43.816 19.5812 43.816C19.601 43.816 19.6199 43.8234 19.6371 43.8382C19.6544 43.853 19.6626 43.8744 19.6626 43.9016V44.4245C19.6626 44.5777 19.6182 44.7004 19.5295 44.7918C19.4407 44.8832 19.3199 44.9293 19.167 44.9293C19.0536 44.9293 18.9607 44.9062 18.8892 44.8593C18.8177 44.8124 18.7651 44.7498 18.7323 44.6724C18.6986 44.595 18.6821 44.511 18.6821 44.422V43.9033C18.6821 43.8761 18.6912 43.8547 18.7084 43.8399C18.7257 43.825 18.7454 43.8176 18.7676 43.8176C18.7873 43.8176 18.8062 43.825 18.8235 43.8399C18.8407 43.8547 18.849 43.8761 18.849 43.9033V44.4369C18.849 44.5579 18.881 44.6444 18.9451 44.6963C19.0092 44.7481 19.0832 44.7737 19.167 44.7737C19.2459 44.7737 19.3207 44.7481 19.3906 44.6963C19.4604 44.6444 19.4958 44.5604 19.4958 44.4443V43.9033L19.4966 43.9016Z" fill="#707072"/>
<path d="M20.6586 44.9284C20.5501 44.9284 20.4548 44.9029 20.3734 44.8527C20.2921 44.8024 20.2288 44.7341 20.1852 44.6484C20.1408 44.5628 20.1187 44.4689 20.1187 44.3652C20.1187 44.2614 20.1425 44.1642 20.191 44.0819C20.2386 43.9987 20.3036 43.9345 20.3849 43.8876C20.4663 43.8406 20.5575 43.8167 20.6586 43.8167C20.809 43.8167 20.9298 43.8505 21.021 43.9172C21.0432 43.932 21.0539 43.9543 21.0539 43.9839C21.0539 44.0333 21.0293 44.058 20.98 44.058C20.975 44.058 20.9685 44.058 20.9619 44.0564C20.9545 44.0547 20.9471 44.0531 20.9397 44.0506C20.9076 44.0308 20.869 44.0111 20.823 43.9913C20.777 43.9716 20.726 43.9617 20.6693 43.9617C20.5559 43.9617 20.463 44.0004 20.3915 44.0786C20.32 44.1568 20.2847 44.2532 20.2847 44.3693C20.2847 44.4854 20.3184 44.5768 20.3866 44.6493C20.454 44.7226 20.5411 44.7645 20.6471 44.7769C20.7137 44.7794 20.7786 44.767 20.8411 44.7398C20.9043 44.7127 20.9561 44.6789 20.998 44.6394C21.0128 44.627 21.0284 44.6213 21.0465 44.6213C21.0663 44.6213 21.0827 44.6295 21.0967 44.6451C21.1106 44.6616 21.1172 44.6789 21.1172 44.6987C21.1172 44.7184 21.1065 44.7423 21.0835 44.7695C21.0293 44.8189 20.9676 44.8576 20.8986 44.8864C20.8296 44.9152 20.7498 44.9292 20.6586 44.9292V44.9284Z" fill="#707072"/>
<path d="M22.0419 44.9284C21.889 44.9284 21.7633 44.8757 21.6647 44.7711C21.566 44.6657 21.5167 44.5307 21.5167 44.3652C21.5167 44.1997 21.566 44.0728 21.6647 43.9707C21.7633 43.8678 21.889 43.8167 22.0419 43.8167C22.1948 43.8167 22.3271 43.8727 22.4232 43.9839V43.9172C22.4232 43.89 22.4323 43.8694 22.4487 43.8563C22.4651 43.8431 22.484 43.8357 22.5046 43.8357C22.5268 43.8357 22.5465 43.8423 22.5638 43.8563C22.581 43.8703 22.5892 43.89 22.5892 43.9172V44.8436C22.5892 44.8683 22.581 44.8889 22.5654 44.9045C22.549 44.9202 22.5292 44.9284 22.5046 44.9284C22.4799 44.9284 22.4602 44.9202 22.4454 44.9045C22.4306 44.8881 22.4232 44.8683 22.4232 44.8436V44.7547C22.3788 44.809 22.3238 44.8518 22.2589 44.8823C22.1931 44.9128 22.1216 44.9284 22.0427 44.9284H22.0419ZM22.0419 44.7761C22.1578 44.7761 22.2506 44.7415 22.3197 44.6723C22.3887 44.6031 22.4232 44.5002 22.4232 44.3643C22.4232 44.2285 22.3887 44.1346 22.3197 44.0679C22.2506 44.0012 22.1578 43.9674 22.0419 43.9674C21.9359 43.9674 21.8504 44.0061 21.7846 44.0827C21.7189 44.1593 21.6868 44.2532 21.6868 44.3643C21.6868 44.4755 21.7197 44.5784 21.7846 44.6575C21.8504 44.7366 21.9359 44.7761 22.0419 44.7761Z" fill="#707072"/>
<path d="M23.4957 44.9284C23.3946 44.9284 23.3157 44.898 23.259 44.8379C23.2023 44.7769 23.1735 44.6937 23.1735 44.5875V44.0391C23.1735 44.0144 23.1612 44.002 23.1366 44.002H23.0437C23.024 44.002 23.0067 43.9946 22.9919 43.9798C22.9771 43.965 22.9697 43.9477 22.9697 43.9279C22.9697 43.9082 22.9771 43.8909 22.9919 43.876C23.0067 43.8612 23.024 43.8538 23.0437 43.8538H23.1366C23.1612 43.8538 23.1735 43.8415 23.1735 43.8168V43.4725C23.1735 43.4454 23.1826 43.4248 23.199 43.4116C23.2163 43.3976 23.2352 43.391 23.2549 43.391C23.2771 43.391 23.2968 43.3976 23.3141 43.4116C23.3313 43.4256 23.3396 43.4454 23.3396 43.4725V43.8168C23.3396 43.8415 23.3519 43.8538 23.3765 43.8538H23.6354C23.6552 43.8538 23.6724 43.8612 23.6872 43.876C23.702 43.8909 23.7094 43.9082 23.7094 43.9279C23.7094 43.9477 23.702 43.965 23.6872 43.9798C23.6724 43.9946 23.6552 44.002 23.6354 44.002H23.3765C23.3519 44.002 23.3396 44.0144 23.3396 44.0391V44.5768C23.3396 44.7053 23.3987 44.7695 23.5171 44.7695C23.5467 44.7695 23.5705 44.7654 23.5894 44.758C23.6083 44.7506 23.6231 44.7473 23.6354 44.7473C23.6576 44.7473 23.6757 44.7563 23.6888 44.7728C23.7028 44.7901 23.7094 44.809 23.7094 44.8288C23.7094 44.8683 23.6905 44.893 23.6535 44.9029C23.6289 44.9128 23.6026 44.9194 23.5738 44.9235C23.545 44.9268 23.5187 44.9293 23.4941 44.9293L23.4957 44.9284Z" fill="#707072"/>
<path d="M24.2395 43.5722C24.2 43.5722 24.1688 43.5606 24.145 43.5368C24.1219 43.5129 24.1096 43.4832 24.1096 43.4462C24.1096 43.4067 24.1211 43.3754 24.145 43.3515C24.1688 43.3276 24.2 43.3161 24.2395 43.3161C24.2789 43.3161 24.3102 43.3276 24.334 43.3515C24.3578 43.3754 24.3693 43.4067 24.3693 43.4462C24.3693 43.4832 24.3578 43.5137 24.334 43.5368C24.3102 43.5598 24.2789 43.5722 24.2395 43.5722ZM24.2502 44.9284C24.2255 44.9284 24.205 44.9202 24.1893 44.9045C24.1737 44.8889 24.1655 44.8683 24.1655 44.8436V43.8983C24.1655 43.8711 24.1737 43.8505 24.191 43.8373C24.2082 43.8233 24.228 43.8167 24.2502 43.8167C24.2699 43.8167 24.288 43.8233 24.3052 43.8373C24.3225 43.8513 24.3307 43.8711 24.3307 43.8983V44.8436C24.3307 44.8683 24.3233 44.8889 24.3085 44.9045C24.2937 44.9202 24.274 44.9284 24.2493 44.9284H24.2502Z" fill="#707072"/>
<path d="M25.3491 44.9284C25.2456 44.9284 25.1527 44.9037 25.0713 44.8543C24.99 44.8049 24.925 44.7374 24.8774 44.6526C24.8289 44.5669 24.8051 44.4714 24.8051 44.3652C24.8051 44.2589 24.8289 44.1651 24.8774 44.0835C24.925 44.002 24.99 43.937 25.0713 43.8892C25.1527 43.8406 25.2456 43.8167 25.3491 43.8167C25.4527 43.8167 25.5455 43.8406 25.6286 43.8892C25.7116 43.9378 25.7765 44.002 25.825 44.0835C25.8735 44.1651 25.8973 44.2589 25.8973 44.3652C25.8973 44.4714 25.8735 44.5669 25.825 44.6526C25.7773 44.7382 25.7116 44.8049 25.6286 44.8543C25.5464 44.9037 25.4527 44.9284 25.3491 44.9284ZM25.3491 44.7761C25.465 44.7761 25.5579 44.7366 25.6269 44.6575C25.6959 44.5784 25.7305 44.4805 25.7305 44.3643C25.7305 44.2482 25.6959 44.1593 25.6269 44.0827C25.5579 44.0061 25.465 43.9674 25.3491 43.9674C25.2332 43.9674 25.1453 44.0061 25.0771 44.0827C25.0089 44.1593 24.9752 44.2532 24.9752 44.3643C24.9752 44.4755 25.0089 44.5784 25.0771 44.6575C25.1453 44.7366 25.2357 44.7761 25.3491 44.7761Z" fill="#707072"/>
<path d="M27.287 44.9284C27.2623 44.9284 27.2418 44.9202 27.2262 44.9045C27.2105 44.8889 27.2023 44.8683 27.2023 44.8436V44.3396C27.2023 44.2161 27.1768 44.1247 27.1251 44.0654C27.0733 44.0061 27.0001 43.9765 26.9065 43.9765C26.8202 43.9765 26.7495 43.9971 26.6936 44.0374C26.6377 44.0786 26.5983 44.1288 26.5736 44.1898C26.5489 44.2507 26.5366 44.31 26.5366 44.3693V44.8436C26.5366 44.8683 26.5292 44.8889 26.5144 44.9045C26.4996 44.9202 26.4799 44.9284 26.4553 44.9284C26.4306 44.9284 26.4101 44.9202 26.3944 44.9045C26.3788 44.8881 26.3706 44.8683 26.3706 44.8436V43.9172C26.3706 43.89 26.3788 43.8694 26.3961 43.8563C26.4133 43.8423 26.4331 43.8357 26.4553 43.8357C26.475 43.8357 26.4931 43.8423 26.5103 43.8563C26.5276 43.8703 26.5358 43.89 26.5358 43.9172V43.9987C26.5851 43.9419 26.6443 43.8974 26.7133 43.8653C26.7824 43.8332 26.8539 43.8167 26.9278 43.8167C27.0536 43.8167 27.1588 43.8579 27.2426 43.9411C27.3264 44.0243 27.3683 44.1519 27.3683 44.3248V44.8436C27.3683 44.8683 27.3609 44.8889 27.3461 44.9045C27.3314 44.9202 27.3116 44.9284 27.287 44.9284Z" fill="#707072"/>
<path d="M28.0382 45.1549C28.0333 45.1722 28.0242 45.1854 28.0103 45.1936C27.9963 45.2019 27.984 45.2068 27.9716 45.2068C27.9322 45.2068 27.9133 45.1813 27.9157 45.1294L27.9527 44.7547C27.9577 44.7251 27.9692 44.7037 27.9881 44.6897C28.007 44.6765 28.0267 44.6691 28.0489 44.6691C28.0785 44.6691 28.1056 44.6798 28.1302 44.7004C28.1549 44.7209 28.1623 44.7531 28.1524 44.7951L28.0374 45.1549H28.0382Z" fill="#707072"/>
<path d="M29.7984 44.9284C29.7737 44.9284 29.7532 44.9194 29.7376 44.9029C29.7211 44.8856 29.7137 44.8658 29.7137 44.8436V43.4758C29.7137 43.4487 29.722 43.4281 29.7376 43.4133C29.7532 43.3984 29.7737 43.391 29.7984 43.391C29.8255 43.391 29.8477 43.3984 29.865 43.4133C29.8822 43.4281 29.8904 43.4495 29.8904 43.4758V44.8436C29.8904 44.8658 29.8814 44.8856 29.865 44.9029C29.8477 44.9202 29.8255 44.9284 29.7984 44.9284Z" fill="#707072"/>
<path d="M31.3747 44.9284C31.3501 44.9284 31.3295 44.9202 31.3139 44.9045C31.2983 44.8889 31.2901 44.8683 31.2901 44.8436V44.3396C31.2901 44.2161 31.2646 44.1247 31.2128 44.0654C31.1611 44.0061 31.0879 43.9765 30.9942 43.9765C30.9079 43.9765 30.8372 43.9971 30.7814 44.0374C30.7255 44.0786 30.686 44.1288 30.6614 44.1898C30.6367 44.2507 30.6244 44.31 30.6244 44.3693V44.8436C30.6244 44.8683 30.617 44.8889 30.6022 44.9045C30.5874 44.9202 30.5677 44.9284 30.543 44.9284C30.5184 44.9284 30.4978 44.9202 30.4822 44.9045C30.4666 44.8881 30.4584 44.8683 30.4584 44.8436V43.9172C30.4584 43.89 30.4666 43.8694 30.4839 43.8563C30.5011 43.8423 30.5208 43.8357 30.543 43.8357C30.5627 43.8357 30.5808 43.8423 30.5981 43.8563C30.6153 43.8703 30.6236 43.89 30.6236 43.9172V43.9987C30.6729 43.9419 30.7321 43.8974 30.8011 43.8653C30.8701 43.8332 30.9416 43.8167 31.0156 43.8167C31.1413 43.8167 31.2465 43.8579 31.3304 43.9411C31.4142 44.0243 31.4561 44.1519 31.4561 44.3248V44.8436C31.4561 44.8683 31.4487 44.8889 31.4339 44.9045C31.4191 44.9202 31.3994 44.9284 31.3747 44.9284Z" fill="#707072"/>
<path d="M32.325 44.9284C32.1573 44.9284 32.0217 44.8807 31.9182 44.7835C31.9009 44.7662 31.8927 44.7464 31.8927 44.7242C31.8927 44.6995 31.9026 44.6797 31.9223 44.6649C31.942 44.6501 31.9584 44.6427 31.9708 44.6427C31.9905 44.6427 32.0152 44.655 32.0447 44.6797C32.0817 44.7118 32.1245 44.7366 32.1721 44.7538C32.2198 44.7711 32.2749 44.7794 32.3365 44.7794C32.4228 44.7794 32.4877 44.7629 32.5305 44.7308C32.5732 44.6987 32.5954 44.6559 32.5954 44.6015C32.5954 44.5472 32.5716 44.5035 32.5247 44.4772C32.4779 44.4516 32.4113 44.4335 32.325 44.4236C32.2781 44.4187 32.2223 44.4096 32.1565 44.3981C32.0908 44.3866 32.0341 44.3602 31.9847 44.3223C31.9354 44.2845 31.9108 44.2252 31.9108 44.1461C31.9108 44.0448 31.9478 43.965 32.0217 43.9057C32.0957 43.8464 32.1993 43.8167 32.3324 43.8167C32.4088 43.8167 32.4803 43.8258 32.5469 43.8447C32.6135 43.8637 32.662 43.8859 32.6915 43.9131C32.7113 43.9279 32.7211 43.9477 32.7211 43.9724C32.7211 43.9897 32.7137 44.0078 32.6989 44.0259C32.6841 44.044 32.6669 44.0539 32.6472 44.0539C32.6373 44.0539 32.6274 44.0514 32.6176 44.0465C32.6077 44.0415 32.5979 44.0366 32.588 44.0317C32.5436 44.007 32.5033 43.9897 32.468 43.9798C32.4318 43.9699 32.3899 43.965 32.3406 43.965C32.2617 43.965 32.1984 43.979 32.1499 44.0078C32.1023 44.0366 32.0776 44.0786 32.0776 44.1354C32.0776 44.1749 32.0941 44.2038 32.1277 44.2227C32.1614 44.2416 32.2272 44.2565 32.3258 44.2688C32.3603 44.2738 32.4022 44.2812 32.4516 44.2911C32.5009 44.3009 32.5485 44.3166 32.5962 44.3372C32.6431 44.3586 32.6825 44.389 32.7146 44.4302C32.7466 44.4706 32.7622 44.5249 32.7622 44.5916C32.7622 44.6929 32.7244 44.7744 32.648 44.8362C32.5716 44.8979 32.4639 44.9292 32.3258 44.9292L32.325 44.9284Z" fill="#707072"/>
<path d="M33.7829 44.9284C33.704 44.9284 33.6316 44.9128 33.5667 44.8823C33.501 44.8518 33.4467 44.809 33.4023 44.7547V45.3253C33.4023 45.35 33.3949 45.3706 33.3802 45.3863C33.3654 45.4027 33.3456 45.4101 33.321 45.4101C33.2963 45.4101 33.2758 45.4019 33.2602 45.3863C33.2445 45.3698 33.2363 45.35 33.2363 45.3253V43.9172C33.2363 43.89 33.2445 43.8694 33.2618 43.8563C33.2791 43.8423 33.2988 43.8357 33.321 43.8357C33.3407 43.8357 33.3588 43.8423 33.376 43.8563C33.3933 43.8703 33.4015 43.89 33.4015 43.9172V43.9839C33.4977 43.8727 33.6251 43.8167 33.7829 43.8167C33.9407 43.8167 34.0615 43.8678 34.1601 43.9707C34.2587 44.0728 34.308 44.2046 34.308 44.3652C34.308 44.5257 34.2587 44.6657 34.1601 44.7711C34.0615 44.8765 33.9357 44.9284 33.7829 44.9284ZM33.7829 44.7761C33.8889 44.7761 33.9744 44.7366 34.0401 44.6575C34.105 44.5784 34.1379 44.4805 34.1379 44.3643C34.1379 44.2482 34.105 44.1593 34.0401 44.0827C33.9744 44.0061 33.8889 43.9674 33.7829 43.9674C33.6694 43.9674 33.5774 44.0012 33.5075 44.0679C33.4369 44.1346 33.4023 44.2334 33.4023 44.3643C33.4023 44.4953 33.4377 44.6031 33.5075 44.6723C33.5774 44.7415 33.6694 44.7761 33.7829 44.7761Z" fill="#707072"/>
<path d="M34.8745 43.5722C34.835 43.5722 34.8038 43.5606 34.78 43.5368C34.757 43.5129 34.7446 43.4832 34.7446 43.4462C34.7446 43.4067 34.7561 43.3754 34.78 43.3515C34.8038 43.3276 34.835 43.3161 34.8745 43.3161C34.9139 43.3161 34.9452 43.3276 34.969 43.3515C34.9928 43.3754 35.0043 43.4067 35.0043 43.4462C35.0043 43.4832 34.9928 43.5137 34.969 43.5368C34.9452 43.5598 34.9139 43.5722 34.8745 43.5722ZM34.8852 44.9284C34.8605 44.9284 34.84 44.9202 34.8243 44.9045C34.8087 44.8889 34.8005 44.8683 34.8005 44.8436V43.8983C34.8005 43.8711 34.8087 43.8505 34.826 43.8373C34.8433 43.8233 34.863 43.8167 34.8852 43.8167C34.9049 43.8167 34.923 43.8233 34.9402 43.8373C34.9575 43.8513 34.9657 43.8711 34.9657 43.8983V44.8436C34.9657 44.8683 34.9583 44.8889 34.9435 44.9045C34.9287 44.9202 34.909 44.9284 34.8843 44.9284H34.8852Z" fill="#707072"/>
<path d="M35.6617 44.3685V44.8428C35.6617 44.8675 35.6543 44.8881 35.6396 44.9038C35.6248 44.9194 35.605 44.9277 35.5804 44.9277C35.5557 44.9277 35.5352 44.9194 35.5196 44.9038C35.5039 44.8873 35.4957 44.8675 35.4957 44.8428V43.9164C35.4957 43.8893 35.5039 43.8687 35.5212 43.8555C35.5385 43.8415 35.5582 43.8349 35.5804 43.8349C35.6001 43.8349 35.6182 43.8415 35.6354 43.8555C35.6527 43.8695 35.6609 43.8893 35.6609 43.9164V44.0054C35.6905 43.9436 35.7398 43.8967 35.8089 43.8646C35.8779 43.8324 35.9428 43.816 36.0053 43.816C36.0423 43.816 36.0792 43.8226 36.1162 43.8349C36.1409 43.8423 36.159 43.8563 36.1696 43.8753C36.1812 43.895 36.1828 43.9173 36.1754 43.942C36.1581 43.9914 36.1244 44.0111 36.0751 44.0013C36.0308 43.9889 35.9938 43.9831 35.9642 43.9831C35.868 43.9831 35.7932 44.0194 35.7406 44.0927C35.6872 44.166 35.6609 44.2574 35.6609 44.3685H35.6617Z" fill="#707072"/>
<path d="M36.6716 43.5722C36.6322 43.5722 36.6009 43.5606 36.5771 43.5368C36.5541 43.5129 36.5417 43.4832 36.5417 43.4462C36.5417 43.4067 36.5533 43.3754 36.5771 43.3515C36.6009 43.3276 36.6322 43.3161 36.6716 43.3161C36.711 43.3161 36.7423 43.3276 36.7661 43.3515C36.7899 43.3754 36.8015 43.4067 36.8015 43.4462C36.8015 43.4832 36.7899 43.5137 36.7661 43.5368C36.7423 43.5598 36.711 43.5722 36.6716 43.5722ZM36.6823 44.9284C36.6576 44.9284 36.6371 44.9202 36.6215 44.9045C36.6059 44.8889 36.5976 44.8683 36.5976 44.8436V43.8983C36.5976 43.8711 36.6059 43.8505 36.6231 43.8373C36.6404 43.8233 36.6601 43.8167 36.6823 43.8167C36.702 43.8167 36.7201 43.8233 36.7373 43.8373C36.7546 43.8513 36.7628 43.8711 36.7628 43.8983V44.8436C36.7628 44.8683 36.7554 44.8889 36.7406 44.9045C36.7258 44.9202 36.7061 44.9284 36.6815 44.9284H36.6823Z" fill="#707072"/>
<path d="M38.2103 44.9284C38.1857 44.9284 38.1651 44.9202 38.1495 44.9045C38.1339 44.8889 38.1257 44.8683 38.1257 44.8436V44.3396C38.1257 44.2161 38.1002 44.1247 38.0484 44.0654C37.9966 44.0061 37.9235 43.9765 37.8298 43.9765C37.7435 43.9765 37.6728 43.9971 37.6169 44.0374C37.561 44.0786 37.5216 44.1288 37.4969 44.1898C37.4723 44.2507 37.46 44.31 37.46 44.3693V44.8436C37.46 44.8683 37.4526 44.8889 37.4378 44.9045C37.423 44.9202 37.4033 44.9284 37.3786 44.9284C37.3539 44.9284 37.3334 44.9202 37.3178 44.9045C37.3022 44.8881 37.2939 44.8683 37.2939 44.8436V43.9172C37.2939 43.89 37.3022 43.8694 37.3194 43.8563C37.3367 43.8423 37.3564 43.8357 37.3786 43.8357C37.3983 43.8357 37.4164 43.8423 37.4337 43.8563C37.4509 43.8703 37.4591 43.89 37.4591 43.9172V43.9987C37.5084 43.9419 37.5676 43.8974 37.6367 43.8653C37.7057 43.8332 37.7772 43.8167 37.8512 43.8167C37.9769 43.8167 38.0821 43.8579 38.1659 43.9411C38.2498 44.0243 38.2917 44.1519 38.2917 44.3248V44.8436C38.2917 44.8683 38.2843 44.8889 38.2695 44.9045C38.2547 44.9202 38.235 44.9284 38.2103 44.9284Z" fill="#707072"/>
<path d="M39.235 45.3921C39.1685 45.3921 39.0986 45.383 39.0263 45.3665C38.9531 45.3492 38.8923 45.3245 38.843 45.2924C38.8159 45.2751 38.8027 45.2504 38.8027 45.2183C38.8027 45.1664 38.8258 45.1409 38.8726 45.1409C38.8899 45.1409 38.9071 45.1458 38.9244 45.1557C38.9663 45.178 39.0172 45.1977 39.0764 45.215C39.1356 45.2323 39.1923 45.2405 39.2465 45.2405C39.3476 45.2405 39.4347 45.2134 39.5071 45.159C39.5794 45.1047 39.6164 45.0281 39.6164 44.9293V44.7555C39.572 44.8099 39.5169 44.8527 39.452 44.8832C39.3863 44.9136 39.3148 44.9293 39.2359 44.9293C39.083 44.9293 38.9572 44.8766 38.8586 44.772C38.76 44.6666 38.7107 44.5315 38.7107 44.366C38.7107 44.2005 38.76 44.0737 38.8586 43.9716C38.9572 43.8687 39.083 43.8176 39.2359 43.8176C39.3887 43.8176 39.5202 43.8736 39.6172 43.9848V43.9181C39.6172 43.8909 39.6254 43.8703 39.6427 43.8571C39.6599 43.8431 39.6797 43.8365 39.7019 43.8365C39.7216 43.8365 39.7397 43.8431 39.7569 43.8571C39.7742 43.8711 39.7824 43.8909 39.7824 43.9181V44.9079C39.7824 45.066 39.729 45.1862 39.623 45.2694C39.5169 45.3525 39.3871 45.3937 39.235 45.3937V45.3921ZM39.235 44.7769C39.3509 44.7769 39.4438 44.7423 39.512 44.6732C39.581 44.604 39.6156 44.5011 39.6156 44.3652C39.6156 44.2293 39.581 44.1355 39.512 44.0688C39.443 44.0021 39.3509 43.9683 39.235 43.9683C39.129 43.9683 39.0435 44.007 38.9778 44.0836C38.912 44.1602 38.88 44.254 38.88 44.3652C38.88 44.4764 38.9129 44.5793 38.9778 44.6584C39.0435 44.7374 39.129 44.7769 39.235 44.7769Z" fill="#707072"/>
<path d="M41.377 44.9285C41.3524 44.9285 41.331 44.9194 41.3121 44.9005C41.2932 44.8815 41.2842 44.8601 41.2842 44.8354V43.5903C41.2842 43.5434 41.2998 43.5047 41.3302 43.4734C41.3606 43.4429 41.4001 43.4273 41.4469 43.4273H42.0575C42.0847 43.4273 42.1044 43.4363 42.1167 43.4528C42.129 43.4701 42.1348 43.4899 42.1348 43.5121C42.1348 43.5319 42.1274 43.5491 42.1126 43.564C42.0978 43.5788 42.0789 43.5862 42.0567 43.5862H41.5907C41.5044 43.5862 41.4617 43.6298 41.4617 43.7163V43.9345C41.4617 44.021 41.5044 44.0646 41.5907 44.0646H42.0049C42.0567 44.0646 42.0822 44.0902 42.0822 44.142C42.0822 44.189 42.0567 44.212 42.0049 44.212H41.5907C41.5044 44.212 41.4617 44.2557 41.4617 44.3413L41.465 44.8305C41.465 44.8576 41.4568 44.8807 41.4412 44.8988C41.4255 44.9169 41.4033 44.9268 41.3762 44.9268L41.377 44.9285Z" fill="#707072"/>
<path d="M43.0484 44.9284C42.8758 44.9284 42.7378 44.8774 42.6342 44.7744C42.5307 44.6723 42.4789 44.5307 42.4789 44.3503C42.4789 44.2515 42.5011 44.1618 42.5455 44.0819C42.5898 44.0012 42.6523 43.937 42.732 43.8892C42.8126 43.8406 42.9062 43.8167 43.0147 43.8167C43.1232 43.8167 43.2218 43.8406 43.2958 43.8892C43.3698 43.9378 43.4248 43.9971 43.4602 44.0671C43.4955 44.1371 43.5136 44.2071 43.5136 44.2762C43.5136 44.3182 43.5046 44.3528 43.4857 44.38C43.4668 44.4072 43.4405 44.4212 43.4059 44.4212H42.6959C42.6811 44.4212 42.6704 44.4228 42.6646 44.4245C42.6589 44.4269 42.6556 44.4352 42.6556 44.45C42.6556 44.492 42.6696 44.5381 42.6967 44.5875C42.7238 44.6369 42.7624 44.6797 42.8134 44.7151C42.8635 44.7514 42.9227 44.7711 42.9893 44.7761C43.0608 44.781 43.1314 44.7736 43.2005 44.7538C43.2695 44.7341 43.3311 44.7036 43.3854 44.6608C43.3977 44.6509 43.4109 44.646 43.4265 44.646C43.4437 44.646 43.4602 44.6534 43.4766 44.6682C43.4922 44.683 43.5005 44.702 43.5005 44.7234C43.5005 44.7448 43.4898 44.7678 43.4676 44.7901C43.4084 44.837 43.3418 44.8716 43.2679 44.8938C43.1939 44.9161 43.1208 44.9276 43.0492 44.9276L43.0484 44.9284ZM43.2818 44.2911C43.3016 44.2911 43.3164 44.2828 43.3262 44.2672C43.3361 44.2515 43.3385 44.2309 43.3336 44.2062C43.3262 44.142 43.2925 44.0844 43.2333 44.0341C43.1742 43.9839 43.101 43.9584 43.0147 43.9584C42.9506 43.9584 42.8923 43.974 42.8389 44.0045C42.7854 44.035 42.7427 44.0745 42.7115 44.1214C42.6794 44.1684 42.663 44.2178 42.663 44.2696C42.663 44.282 42.6737 44.2878 42.6967 44.2878L43.281 44.2911H43.2818Z" fill="#707072"/>
<path d="M44.4949 44.9284C44.342 44.9284 44.2163 44.8757 44.1177 44.7711C44.019 44.6657 43.9697 44.5307 43.9697 44.3652C43.9697 44.1997 44.019 44.0728 44.1177 43.9707C44.2163 43.8678 44.342 43.8167 44.4949 43.8167C44.6478 43.8167 44.7801 43.8727 44.8762 43.9839V43.9172C44.8762 43.89 44.8853 43.8694 44.9017 43.8563C44.919 43.8423 44.9371 43.8357 44.9576 43.8357C44.9798 43.8357 44.9995 43.8423 45.0168 43.8563C45.034 43.8703 45.0422 43.89 45.0422 43.9172V44.8436C45.0422 44.8683 45.034 44.8889 45.0184 44.9045C45.002 44.9202 44.9823 44.9284 44.9576 44.9284C44.9329 44.9284 44.9132 44.9202 44.8984 44.9045C44.8836 44.8881 44.8762 44.8683 44.8762 44.8436V44.7547C44.8319 44.809 44.7768 44.8518 44.7119 44.8823C44.6461 44.9128 44.5746 44.9284 44.4957 44.9284H44.4949ZM44.4949 44.7761C44.6108 44.7761 44.7036 44.7415 44.7727 44.6723C44.8417 44.6031 44.8762 44.5002 44.8762 44.3643C44.8762 44.2285 44.8417 44.1346 44.7727 44.0679C44.7036 44.0012 44.6108 43.9674 44.4949 43.9674C44.3889 43.9674 44.3034 44.0061 44.2377 44.0827C44.1719 44.1593 44.1399 44.2532 44.1399 44.3643C44.1399 44.4755 44.1727 44.5784 44.2377 44.6575C44.3034 44.7366 44.3889 44.7761 44.4949 44.7761Z" fill="#707072"/>
<path d="M45.9487 44.9284C45.8476 44.9284 45.7687 44.898 45.712 44.8379C45.6553 44.7769 45.6266 44.6937 45.6266 44.5875V44.0391C45.6266 44.0144 45.6142 44.002 45.5896 44.002H45.4967C45.477 44.002 45.4597 43.9946 45.4449 43.9798C45.4301 43.965 45.4227 43.9477 45.4227 43.9279C45.4227 43.9082 45.4301 43.8909 45.4449 43.876C45.4597 43.8612 45.477 43.8538 45.4967 43.8538H45.5896C45.6142 43.8538 45.6266 43.8415 45.6266 43.8168V43.4725C45.6266 43.4454 45.6356 43.4248 45.652 43.4116C45.6693 43.3976 45.6882 43.391 45.7079 43.391C45.7301 43.391 45.7498 43.3976 45.7671 43.4116C45.7843 43.4256 45.7926 43.4454 45.7926 43.4725V43.8168C45.7926 43.8415 45.8049 43.8538 45.8295 43.8538H46.0884C46.1082 43.8538 46.1254 43.8612 46.1402 43.876C46.155 43.8909 46.1624 43.9082 46.1624 43.9279C46.1624 43.9477 46.155 43.965 46.1402 43.9798C46.1254 43.9946 46.1082 44.002 46.0884 44.002H45.8295C45.8049 44.002 45.7926 44.0144 45.7926 44.0391V44.5768C45.7926 44.7053 45.8517 44.7695 45.9701 44.7695C45.9997 44.7695 46.0235 44.7654 46.0424 44.758C46.0613 44.7506 46.0761 44.7473 46.0884 44.7473C46.1106 44.7473 46.1287 44.7563 46.1419 44.7728C46.1558 44.7901 46.1624 44.809 46.1624 44.8288C46.1624 44.8683 46.1435 44.893 46.1065 44.9029C46.0819 44.9128 46.0556 44.9194 46.0268 44.9235C45.998 44.9268 45.9717 44.9293 45.9471 44.9293L45.9487 44.9284Z" fill="#707072"/>
<path d="M47.3953 43.9016C47.3953 43.8744 47.4043 43.853 47.4207 43.8382C47.438 43.8234 47.4577 43.816 47.4799 43.816C47.4996 43.816 47.5185 43.8234 47.5358 43.8382C47.5531 43.853 47.5613 43.8744 47.5613 43.9016V44.4245C47.5613 44.5777 47.5169 44.7004 47.4281 44.7918C47.3394 44.8832 47.2186 44.9293 47.0657 44.9293C46.9523 44.9293 46.8594 44.9062 46.7879 44.8593C46.7164 44.8124 46.6638 44.7498 46.6309 44.6724C46.5972 44.595 46.5808 44.511 46.5808 44.422V43.9033C46.5808 43.8761 46.5899 43.8547 46.6071 43.8399C46.6244 43.825 46.6441 43.8176 46.6663 43.8176C46.686 43.8176 46.7049 43.825 46.7222 43.8399C46.7394 43.8547 46.7476 43.8761 46.7476 43.9033V44.4369C46.7476 44.5579 46.7797 44.6444 46.8438 44.6963C46.9079 44.7481 46.9819 44.7737 47.0657 44.7737C47.1446 44.7737 47.2194 44.7481 47.2892 44.6963C47.3591 44.6444 47.3944 44.5604 47.3944 44.4443V43.9033L47.3953 43.9016Z" fill="#707072"/>
<path d="M48.2384 44.3685V44.8428C48.2384 44.8675 48.231 44.8881 48.2162 44.9038C48.2014 44.9194 48.1817 44.9277 48.157 44.9277C48.1324 44.9277 48.1118 44.9194 48.0962 44.9038C48.0806 44.8873 48.0724 44.8675 48.0724 44.8428V43.9164C48.0724 43.8893 48.0806 43.8687 48.0979 43.8555C48.1151 43.8415 48.1349 43.8349 48.157 43.8349C48.1768 43.8349 48.1948 43.8415 48.2121 43.8555C48.2294 43.8695 48.2376 43.8893 48.2376 43.9164V44.0054C48.2672 43.9436 48.3165 43.8967 48.3855 43.8646C48.4546 43.8324 48.5195 43.816 48.5819 43.816C48.6189 43.816 48.6559 43.8226 48.6929 43.8349C48.7175 43.8423 48.7356 43.8563 48.7463 43.8753C48.7578 43.895 48.7595 43.9173 48.7521 43.942C48.7348 43.9914 48.7011 44.0111 48.6518 44.0013C48.6074 43.9889 48.5704 43.9831 48.5408 43.9831C48.4447 43.9831 48.3699 44.0194 48.3173 44.0927C48.2639 44.166 48.2376 44.2574 48.2376 44.3685H48.2384Z" fill="#707072"/>
<path d="M49.6334 44.9284C49.4608 44.9284 49.3227 44.8774 49.2192 44.7744C49.1156 44.6723 49.0638 44.5307 49.0638 44.3503C49.0638 44.2515 49.086 44.1618 49.1304 44.0819C49.1748 44.0012 49.2373 43.937 49.317 43.8892C49.3975 43.8406 49.4912 43.8167 49.5997 43.8167C49.7082 43.8167 49.8068 43.8406 49.8808 43.8892C49.9547 43.9378 50.0098 43.9971 50.0451 44.0671C50.0805 44.1371 50.0986 44.2071 50.0986 44.2762C50.0986 44.3182 50.0895 44.3528 50.0706 44.38C50.0525 44.4072 50.0254 44.4212 49.9909 44.4212H49.2808C49.266 44.4212 49.2553 44.4228 49.2496 44.4245C49.2438 44.4269 49.2405 44.4352 49.2405 44.45C49.2405 44.492 49.2545 44.5381 49.2816 44.5875C49.3088 44.6369 49.3474 44.6797 49.3983 44.7151C49.4485 44.7514 49.5076 44.7711 49.5742 44.7761C49.6457 44.781 49.7164 44.7736 49.7854 44.7538C49.8545 44.7341 49.9161 44.7036 49.9703 44.6608C49.9827 44.6509 49.9958 44.646 50.0114 44.646C50.0287 44.646 50.0451 44.6534 50.0616 44.6682C50.0772 44.683 50.0854 44.702 50.0854 44.7234C50.0854 44.7448 50.0747 44.7678 50.0525 44.7901C49.9934 44.837 49.9268 44.8716 49.8528 44.8938C49.7789 44.9161 49.7057 44.9276 49.6342 44.9276L49.6334 44.9284ZM49.8668 44.2911C49.8865 44.2911 49.9013 44.2828 49.9112 44.2672C49.921 44.2515 49.9235 44.2309 49.9186 44.2062C49.9112 44.142 49.8775 44.0844 49.8183 44.0341C49.7591 43.9839 49.686 43.9584 49.5997 43.9584C49.5356 43.9584 49.4772 43.974 49.4238 44.0045C49.3704 44.035 49.3277 44.0745 49.2964 44.1214C49.2644 44.1684 49.2479 44.2178 49.2479 44.2696C49.2479 44.282 49.2586 44.2878 49.2816 44.2878L49.866 44.2911H49.8668Z" fill="#707072"/>
<path d="M29.5094 41.2245C29.1429 41.2245 28.801 41.1628 28.4821 41.0392C28.1632 40.9157 27.9125 40.7502 27.7293 40.5427C27.6413 40.4472 27.5978 40.3352 27.5978 40.2075C27.5978 40.0717 27.6496 39.9523 27.7531 39.8485C27.8567 39.7447 27.9799 39.6929 28.1229 39.6929C28.2586 39.6929 28.3736 39.7406 28.4689 39.8361C28.6046 39.9638 28.7755 40.0634 28.9826 40.1351C29.1897 40.2067 29.3927 40.2429 29.5916 40.2429C29.7905 40.2429 29.9779 40.1968 30.1291 40.1054C30.2803 40.014 30.3559 39.8683 30.3559 39.669C30.3559 39.501 30.2861 39.3717 30.1472 39.2803C30.0075 39.1889 29.7749 39.1148 29.4486 39.0588C28.8675 38.9633 28.4295 38.8011 28.1344 38.5738C27.8402 38.3465 27.6923 38.0254 27.6923 37.6103C27.6923 37.164 27.8632 36.8066 28.206 36.539C28.5478 36.2722 28.9982 36.138 29.5554 36.138C30.1127 36.138 30.5869 36.2854 30.9288 36.581C31.0644 36.693 31.1318 36.8247 31.1318 36.9763C31.1318 37.1039 31.0816 37.2134 30.9822 37.3056C30.8827 37.397 30.7652 37.4432 30.6296 37.4432C30.526 37.4432 30.4307 37.4152 30.3428 37.3592C30.0403 37.1673 29.7223 37.0718 29.387 37.0718C29.1881 37.0718 29.0204 37.1121 28.8856 37.1912C28.75 37.2711 28.6826 37.3905 28.6826 37.5502C28.6826 37.7182 28.7878 37.8491 28.999 37.9455C29.2103 38.041 29.5185 38.1291 29.9244 38.209C30.1472 38.2493 30.3683 38.3185 30.5869 38.4181C30.8055 38.5178 30.9888 38.6677 31.1367 38.8669C31.2838 39.0662 31.3578 39.338 31.3578 39.6805C31.3578 40.1351 31.1844 40.5065 30.8384 40.7938C30.4924 41.0812 30.0477 41.2245 29.5069 41.2245H29.5094Z" fill="#808285"/>
<path d="M33.797 41.2244C33.4625 41.2244 33.1502 41.1487 32.8593 40.9971C32.5683 40.8456 32.3358 40.6258 32.1607 40.3392C31.9856 40.0518 31.8977 39.7092 31.8977 39.3099C31.9059 38.7598 32.0843 38.3225 32.4352 37.9997C32.7853 37.6769 33.239 37.5155 33.797 37.5155C34.0115 37.5155 34.2227 37.5394 34.4298 37.5872C34.6369 37.6349 34.8161 37.723 34.9673 37.8507C35.0865 37.9462 35.1465 38.0705 35.1465 38.2212C35.1465 38.3489 35.1005 38.465 35.0092 38.5679C34.918 38.6717 34.8038 38.7236 34.669 38.7236C34.5811 38.7236 34.5013 38.6997 34.4298 38.6519C34.3107 38.5885 34.2047 38.544 34.1134 38.5202C34.0222 38.4963 33.9203 38.4839 33.8085 38.4839C33.5455 38.4839 33.331 38.5597 33.1634 38.7112C32.9957 38.8627 32.9127 39.0661 32.9127 39.3214C32.9127 39.617 33.0039 39.8459 33.1872 40.0098C33.3705 40.1737 33.585 40.2552 33.8324 40.2552C34.111 40.2552 34.374 40.1514 34.6205 39.9439C34.7158 39.8723 34.8071 39.8361 34.895 39.8361C35.0224 39.8361 35.1317 39.8879 35.2238 39.9917C35.315 40.0955 35.361 40.2149 35.361 40.3507C35.361 40.4067 35.3495 40.4685 35.3257 40.536C35.3018 40.6035 35.2574 40.6694 35.1942 40.7336C34.9788 40.909 34.7504 41.035 34.5071 41.1108C34.2638 41.1865 34.0271 41.2244 33.7962 41.2244H33.797Z" fill="#808285"/>
<path d="M36.5558 41.2245C36.4046 41.2245 36.2772 41.1808 36.1736 41.0927C36.0701 41.0046 36.0183 40.8934 36.0183 40.7576V36.3059C36.0183 36.1783 36.0676 36.0688 36.1671 35.9774C36.2665 35.886 36.3955 35.8398 36.555 35.8398C36.7062 35.8398 36.8295 35.886 36.9248 35.9774C37.0202 36.0688 37.0678 36.1832 37.0678 36.3183V37.91C37.1714 37.7906 37.3103 37.6943 37.4861 37.6226C37.6612 37.551 37.8486 37.5148 38.0475 37.5148C38.4929 37.5148 38.8537 37.6465 39.1282 37.91C39.4027 38.1735 39.54 38.5919 39.54 39.1666V40.7823C39.54 40.9099 39.4898 41.0153 39.3904 41.0993C39.2909 41.1833 39.1652 41.2253 39.014 41.2253C38.8628 41.2253 38.737 41.1817 38.6376 41.0936C38.5381 41.0054 38.488 40.8943 38.488 40.7584V39.2984C38.488 39.0036 38.4222 38.792 38.2907 38.6643C38.1592 38.5367 37.9982 38.4725 37.8075 38.4725C37.6168 38.4725 37.4451 38.5383 37.3177 38.6701C37.1903 38.8019 37.1064 38.9476 37.067 39.1074V40.7469C37.067 40.8827 37.0169 40.9964 36.9174 41.0878C36.818 41.1792 36.6963 41.2253 36.5533 41.2253L36.5558 41.2245Z" fill="#808285"/>
<path d="M42.0855 41.2245C41.7428 41.2245 41.4288 41.1446 41.142 40.9849C40.8551 40.8251 40.6267 40.6036 40.4557 40.3211C40.2848 40.0379 40.1985 39.7167 40.1985 39.3577C40.1985 38.9987 40.284 38.6693 40.4557 38.3942C40.6267 38.1192 40.856 37.9034 41.142 37.7478C41.4288 37.5922 41.7436 37.5148 42.0855 37.5148C42.4274 37.5148 42.752 37.5922 43.0347 37.7478C43.3174 37.9034 43.5426 38.1184 43.7094 38.3942C43.8763 38.6693 43.9601 38.9904 43.9601 39.3577C43.9601 39.7249 43.8763 40.0379 43.7094 40.3211C43.5418 40.6044 43.3174 40.8259 43.0347 40.9849C42.752 41.1446 42.4356 41.2245 42.0855 41.2245ZM42.0855 40.2553C42.332 40.2553 42.5334 40.1696 42.6887 39.9983C42.844 39.8271 42.9213 39.6138 42.9213 39.3577C42.9213 39.1016 42.844 38.8834 42.6887 38.7236C42.5334 38.5639 42.332 38.484 42.0855 38.484C41.8389 38.484 41.6458 38.5639 41.4822 38.7236C41.3187 38.8834 41.2373 39.0942 41.2373 39.3577C41.2373 39.6212 41.3187 39.8262 41.4822 39.9983C41.6458 40.1696 41.8463 40.2553 42.0855 40.2553Z" fill="#808285"/>
<path d="M46.4445 41.2245C46.1018 41.2245 45.7878 41.1446 45.501 40.9849C45.2142 40.8251 44.9857 40.6036 44.8147 40.3211C44.6438 40.0379 44.5575 39.7167 44.5575 39.3577C44.5575 38.9987 44.643 38.6693 44.8147 38.3942C44.9857 38.1192 45.215 37.9034 45.501 37.7478C45.7878 37.5922 46.1026 37.5148 46.4445 37.5148C46.7864 37.5148 47.111 37.5922 47.3937 37.7478C47.6764 37.9034 47.9016 38.1184 48.0685 38.3942C48.2353 38.6693 48.3191 38.9904 48.3191 39.3577C48.3191 39.7249 48.2353 40.0379 48.0685 40.3211C47.9008 40.6044 47.6764 40.8259 47.3937 40.9849C47.111 41.1446 46.7946 41.2245 46.4445 41.2245ZM46.4445 40.2553C46.691 40.2553 46.8924 40.1696 47.0477 39.9983C47.203 39.8271 47.2803 39.6138 47.2803 39.3577C47.2803 39.1016 47.203 38.8834 47.0477 38.7236C46.8924 38.5639 46.691 38.484 46.4445 38.484C46.1979 38.484 46.0048 38.5639 45.8412 38.7236C45.6777 38.8834 45.5963 39.0942 45.5963 39.3577C45.5963 39.6212 45.6777 39.8262 45.8412 39.9983C46.0048 40.1696 46.2053 40.2553 46.4445 40.2553Z" fill="#808285"/>
<path d="M49.5857 41.2245C49.4345 41.2245 49.3071 41.1808 49.2035 41.0927C49.1 41.0046 49.0482 40.8934 49.0482 40.7576V36.3059C49.0482 36.1783 49.0975 36.0688 49.1978 35.9774C49.2972 35.886 49.4263 35.8398 49.5857 35.8398C49.7369 35.8398 49.8602 35.886 49.9555 35.9774C50.0509 36.0688 50.0985 36.1832 50.0985 36.3183V40.7461C50.0985 40.8819 50.0492 40.9956 49.949 41.087C49.8487 41.1784 49.7279 41.2245 49.5849 41.2245H49.5857Z" fill="#808285"/>
<path d="M6.45888 41.2245C5.9255 41.2245 5.4932 41.0548 5.16281 40.7156C4.83243 40.3763 4.66724 39.9242 4.66724 39.3577C4.66724 38.7911 4.82832 38.3424 5.15131 38.0113C5.47348 37.6803 5.89755 37.5148 6.42354 37.5148C6.79748 37.5148 7.12458 37.6465 7.40319 37.91C7.43524 37.8145 7.49442 37.7346 7.58236 37.6704C7.67029 37.6062 7.77303 37.5749 7.89302 37.5749C8.05246 37.5749 8.18149 37.621 8.28093 37.7124C8.38038 37.8038 8.43051 37.9142 8.43051 38.0418V40.7584C8.43051 40.8943 8.38038 41.0063 8.28093 41.0935C8.18149 41.1817 8.05246 41.2253 7.89302 41.2253C7.63002 41.2253 7.4673 41.1092 7.40319 40.8786C7.14842 41.11 6.83365 41.2253 6.4597 41.2253L6.45888 41.2245ZM6.54271 40.2553C6.79748 40.2553 7.00048 40.1696 7.1517 39.9983C7.30292 39.8271 7.37854 39.6138 7.37854 39.3577C7.37854 39.1016 7.30292 38.8834 7.1517 38.7236C7.00048 38.5639 6.79748 38.484 6.54271 38.484C6.28793 38.484 6.0948 38.5639 5.93947 38.7236C5.78414 38.8834 5.70688 39.0942 5.70688 39.3577C5.70688 39.6212 5.78496 39.8262 5.93947 39.9983C6.0948 40.1696 6.29615 40.2553 6.54271 40.2553Z" fill="#383767"/>
<path d="M10.8185 41.2245C10.4758 41.2245 10.1931 41.1248 9.97037 40.9256C9.74765 40.7263 9.63588 40.4191 9.63588 40.0041V38.7113C9.63588 38.6314 9.59561 38.5919 9.51671 38.5919H9.33755C9.19454 38.5919 9.08688 38.5482 9.01538 38.4601C8.94388 38.372 8.90771 38.2608 8.90771 38.125C8.90771 37.9817 8.94388 37.8639 9.01538 37.7717C9.08688 37.6803 9.19454 37.6342 9.33755 37.6342H9.51671C9.59643 37.6342 9.63588 37.5947 9.63588 37.5148V36.6296C9.63588 36.4937 9.68355 36.3784 9.77888 36.2829C9.87422 36.1873 9.99749 36.1396 10.1487 36.1396C10.2999 36.1396 10.4257 36.1857 10.5251 36.2771C10.6246 36.3685 10.6747 36.4863 10.6747 36.6304V37.5156C10.6747 37.5955 10.7142 37.635 10.7939 37.635H11.236C11.3716 37.635 11.4851 37.6828 11.5763 37.7783C11.6675 37.8738 11.7135 37.9899 11.7135 38.125C11.7135 38.26 11.6675 38.372 11.5763 38.4601C11.4851 38.5482 11.3675 38.5919 11.2237 38.5919H10.7939C10.7142 38.5919 10.6747 38.6322 10.6747 38.7113V39.8361C10.6747 39.9794 10.7002 40.0799 10.752 40.135C10.8037 40.191 10.8695 40.219 10.9492 40.219C10.9804 40.219 11.0445 40.2092 11.1399 40.1894C11.2352 40.1696 11.2952 40.1597 11.319 40.1597C11.4464 40.1597 11.5541 40.2075 11.6412 40.303C11.7291 40.3985 11.7727 40.5147 11.7727 40.6497C11.7727 40.7535 11.7431 40.849 11.6831 40.9371C11.6231 41.0252 11.5294 41.0886 11.402 41.129C11.2985 41.1603 11.199 41.185 11.1037 41.2006C11.0084 41.2162 10.913 41.2245 10.8169 41.2245H10.8185Z" fill="#383767"/>
<path d="M14.7234 38.0294C14.7234 37.8779 14.7727 37.7544 14.873 37.6581C14.9724 37.5625 15.0982 37.5148 15.2494 37.5148C15.4006 37.5148 15.5255 37.565 15.6258 37.6646C15.7252 37.7643 15.7745 37.8862 15.7745 38.0294V39.7167C15.7745 40.0436 15.6907 40.3211 15.5239 40.5484C15.3562 40.7757 15.1417 40.9453 14.8787 41.0573C14.6157 41.1685 14.3371 41.2253 14.0429 41.2253C13.7487 41.2253 13.4816 41.1693 13.2186 41.0573C12.9556 40.9453 12.7386 40.7757 12.5677 40.5484C12.3967 40.3211 12.3104 40.0436 12.3104 39.7167V38.0294C12.3104 37.8779 12.3597 37.7544 12.46 37.6581C12.5594 37.5625 12.6852 37.5148 12.8364 37.5148C12.9876 37.5148 13.1134 37.565 13.2128 37.6646C13.3123 37.7643 13.3624 37.8862 13.3624 38.0294V39.669C13.3624 39.8369 13.4257 39.9761 13.5531 40.0881C13.6805 40.2001 13.8432 40.2561 14.0429 40.2561C14.2426 40.2561 14.4053 40.2001 14.5327 40.0881C14.6601 39.9769 14.7234 39.8369 14.7234 39.669V38.0294Z" fill="#383767"/>
<path d="M18.1751 42.8401C17.9524 42.8401 17.737 42.8179 17.5299 42.7742C17.3228 42.7306 17.1354 42.6647 16.9686 42.5766C16.7779 42.4729 16.6818 42.3131 16.6818 42.0982C16.6818 41.9623 16.7295 41.8445 16.8248 41.7449C16.9201 41.6453 17.0319 41.595 17.1593 41.595C17.2628 41.595 17.3541 41.6189 17.4338 41.6667C17.5612 41.7383 17.6943 41.7902 17.834 41.8223C17.9729 41.8544 18.111 41.8701 18.2458 41.8701C18.5482 41.8701 18.7734 41.8017 18.9205 41.6667C19.0676 41.5308 19.1416 41.3513 19.1416 41.1281V40.8531C18.8868 41.101 18.5721 41.2245 18.1981 41.2245C17.6647 41.2245 17.2365 41.0548 16.9144 40.7156C16.5914 40.3763 16.4303 39.9242 16.4303 39.3577C16.4303 38.7911 16.5873 38.3424 16.902 38.0113C17.2168 37.6803 17.6368 37.5148 18.1619 37.5148C18.5441 37.5148 18.8745 37.663 19.1531 37.9578C19.1769 37.8466 19.2345 37.7544 19.3265 37.6828C19.4177 37.6111 19.5312 37.5749 19.6668 37.5749C19.8262 37.5749 19.9536 37.6226 20.0489 37.7182C20.1443 37.8137 20.1919 37.9339 20.1919 38.0772V41.1528C20.1919 41.6634 20.0144 42.0726 19.6602 42.3798C19.306 42.687 18.8104 42.8409 18.1735 42.8409L18.1751 42.8401ZM18.2828 40.2553C18.5219 40.2553 18.7142 40.1696 18.8622 39.9983C19.0093 39.8271 19.0832 39.6138 19.0832 39.3577C19.0832 39.1016 19.0093 38.8834 18.8622 38.7236C18.7151 38.5639 18.5219 38.484 18.2828 38.484C18.0436 38.484 17.839 38.5639 17.6918 38.7236C17.5447 38.8834 17.4708 39.0942 17.4708 39.3577C17.4708 39.6212 17.5447 39.8262 17.6918 39.9983C17.839 40.1696 18.0362 40.2553 18.2828 40.2553Z" fill="#383767"/>
<path d="M22.5817 41.2245C22.0483 41.2245 21.616 41.0548 21.2856 40.7156C20.9552 40.3763 20.79 39.9242 20.79 39.3577C20.79 38.7911 20.9511 38.3424 21.2741 38.0113C21.5963 37.6803 22.0204 37.5148 22.5463 37.5148C22.9203 37.5148 23.2474 37.6465 23.526 37.91C23.558 37.8145 23.6172 37.7346 23.7052 37.6704C23.7931 37.6062 23.8958 37.5749 24.0158 37.5749C24.1753 37.5749 24.3043 37.621 24.4037 37.7124C24.5032 37.8038 24.5533 37.9142 24.5533 38.0418V40.7584C24.5533 40.8943 24.5032 41.0063 24.4037 41.0935C24.3043 41.1817 24.1753 41.2253 24.0158 41.2253C23.7528 41.2253 23.5901 41.1092 23.526 40.8786C23.2712 41.11 22.9564 41.2253 22.5825 41.2253L22.5817 41.2245ZM22.6655 40.2553C22.9203 40.2553 23.1233 40.1696 23.2745 39.9983C23.4257 39.8271 23.5013 39.6138 23.5013 39.3577C23.5013 39.1016 23.4257 38.8834 23.2745 38.7236C23.1233 38.5639 22.9203 38.484 22.6655 38.484C22.4107 38.484 22.2176 38.5639 22.0623 38.7236C21.9069 38.8834 21.8297 39.0942 21.8297 39.3577C21.8297 39.6212 21.9078 39.8262 22.0623 39.9983C22.2176 40.1696 22.419 40.2553 22.6655 40.2553Z" fill="#383767"/>
<path d="M2.63548 39.5298C3.10254 39.5298 3.48117 39.1504 3.48117 38.6825C3.48117 38.2145 3.10254 37.8351 2.63548 37.8351C2.16842 37.8351 1.78979 38.2145 1.78979 38.6825C1.78979 39.1504 2.16842 39.5298 2.63548 39.5298Z" fill="#383767"/>
<path d="M2.63548 37.8352C3.10254 37.8352 3.48117 37.4558 3.48117 36.9878C3.48117 36.5198 3.10254 36.1405 2.63548 36.1405C2.16842 36.1405 1.78979 36.5198 1.78979 36.9878C1.78979 37.4558 2.16842 37.8352 2.63548 37.8352Z" fill="#383767"/>
<path d="M4.32616 37.8352C4.79322 37.8352 5.17185 37.4558 5.17185 36.9878C5.17185 36.5198 4.79322 36.1405 4.32616 36.1405C3.8591 36.1405 3.48047 36.5198 3.48047 36.9878C3.48047 37.4558 3.8591 37.8352 4.32616 37.8352Z" fill="#9291E0"/>
<path d="M0.94481 36.1412C0.477996 36.1412 0.0991211 36.52 0.0991211 36.9886C0.0991211 37.4571 0.477174 37.8359 0.94481 37.8359C1.41245 37.8359 1.7905 37.4571 1.7905 36.9886C1.7905 36.52 1.41245 36.1412 0.94481 36.1412ZM0.94481 37.5807C0.618533 37.5807 0.353896 37.3155 0.353896 36.9886C0.353896 36.6617 0.618533 36.3965 0.94481 36.3965C1.27109 36.3965 1.53572 36.6617 1.53572 36.9886C1.53572 37.3155 1.27109 37.5807 0.94481 37.5807Z" fill="#9291E0"/>
</svg>
