<svg width="212" height="167" viewBox="0 0 212 167" fill="none" xmlns="http://www.w3.org/2000/svg">
<g opacity="0.4">
<mask id="path-1-inside-1_246_2526" fill="white">
<path d="M113.665 165.052C90.1857 165.052 68.9685 148.764 63.6938 124.912C58.8106 102.832 72.8016 80.8956 94.882 76.0124C103.394 74.1298 112.306 75.7059 119.656 80.3939C127.007 85.0819 132.194 92.4978 134.076 101.01C137.202 115.221 128.235 129.281 114.031 132.44C104.323 134.547 94.4506 129.651 90.2536 120.647C90.2065 120.546 90.2171 120.428 90.2813 120.337C90.3456 120.246 90.4537 120.196 90.5646 120.206C90.6756 120.217 90.7725 120.286 90.8186 120.387C94.8919 129.126 104.474 133.878 113.896 131.832C127.765 128.749 136.521 115.02 133.469 101.144C129.623 83.7537 112.407 72.7737 95.0162 76.6197C73.2515 81.4589 59.5111 103.003 64.301 124.778C70.3217 152.002 97.3672 169.252 124.592 163.231C142.798 159.217 158.303 147.369 166.959 130.857C167.011 130.758 167.111 130.695 167.222 130.69C167.333 130.686 167.439 130.741 167.498 130.835C167.557 130.929 167.562 131.048 167.51 131.146C158.769 147.821 143.111 159.785 124.726 163.838C121.094 164.644 117.385 165.051 113.665 165.052Z"/>
<path d="M174.172 95.0467C174.013 95.0467 173.88 94.9267 173.863 94.7688C173.61 92.4182 173.228 90.0834 172.717 87.7749C164.596 51.0514 131.452 24.926 93.9078 25.6896C93.7361 25.693 93.5941 25.5565 93.5906 25.3848C93.5873 25.2131 93.7237 25.0711 93.8954 25.0676C131.89 24.3621 165.116 50.5367 173.325 87.6407C173.84 89.9716 174.226 92.3291 174.482 94.7026C174.491 94.7846 174.466 94.8667 174.415 94.9309C174.363 94.9951 174.288 95.0361 174.206 95.0449C174.195 95.0467 174.183 95.0467 174.172 95.0467Z"/>
<path d="M2.6715 146.046C2.52573 146.046 2.39964 145.944 2.3682 145.802C-5.60722 109.863 6.8926 72.4556 34.8717 48.531C34.9559 48.4579 35.0729 48.4355 35.1782 48.4724C35.2835 48.5092 35.361 48.5996 35.3813 48.7093C35.4016 48.819 35.3616 48.9312 35.2765 49.0033C7.47176 72.7787 -4.95022 109.953 2.97541 145.668C2.99586 145.76 2.97337 145.856 2.91426 145.93C2.85515 146.003 2.76584 146.046 2.6715 146.046Z"/>
</mask>
<path d="M113.665 165.052V165.552H113.665L113.665 165.052ZM63.6938 124.912L64.182 124.804L63.6938 124.912ZM94.882 76.0124L94.9899 76.5006L94.882 76.0124ZM119.656 80.3939L119.387 80.8154L119.656 80.3939ZM134.076 101.01L134.564 100.903L134.564 100.902L134.076 101.01ZM114.031 132.44L114.137 132.928L114.139 132.928L114.031 132.44ZM90.2536 120.647L89.8004 120.858L89.8004 120.859L90.2536 120.647ZM90.2813 120.337L90.6899 120.625L90.2813 120.337ZM90.5646 120.206L90.5177 120.704L90.5646 120.206ZM90.8186 120.387L90.3633 120.594L90.3654 120.599L90.8186 120.387ZM113.896 131.832L114.002 132.321L114.005 132.32L113.896 131.832ZM133.469 101.144L133.957 101.037L133.957 101.036L133.469 101.144ZM95.0162 76.6197L94.9082 76.1315L94.9077 76.1317L95.0162 76.6197ZM64.301 124.778L63.8127 124.886L63.8128 124.886L64.301 124.778ZM124.592 163.231L124.484 162.743L124.484 162.743L124.592 163.231ZM166.959 130.857L167.402 131.089L167.402 131.089L166.959 130.857ZM167.222 130.69L167.242 131.19L167.222 130.69ZM167.498 130.835L167.075 131.102L167.498 130.835ZM167.51 131.146L167.068 130.913L167.067 130.914L167.51 131.146ZM124.726 163.838L124.618 163.35L124.618 163.35L124.726 163.838ZM173.863 94.7688L174.36 94.7155L174.36 94.7153L173.863 94.7688ZM172.717 87.7749L173.206 87.667V87.6669L172.717 87.7749ZM93.9078 25.6896L93.9177 26.1895L93.918 26.1895L93.9078 25.6896ZM93.5906 25.3848L93.0907 25.3946L93.0907 25.395L93.5906 25.3848ZM93.8954 25.0676L93.8861 24.5677L93.8853 24.5677L93.8954 25.0676ZM173.325 87.6407L173.813 87.5327L173.813 87.5327L173.325 87.6407ZM174.482 94.7026L174.979 94.6494L174.979 94.6491L174.482 94.7026ZM174.415 94.9309L174.804 95.2448L174.415 94.9309ZM174.206 95.0449L174.153 94.5477L174.139 94.5492L174.125 94.5514L174.206 95.0449ZM2.3682 145.802L2.85643 145.694L2.85632 145.694L2.3682 145.802ZM34.8717 48.531L35.1966 48.9111L35.1994 48.9087L34.8717 48.531ZM35.1782 48.4724L35.0131 48.9443L35.1782 48.4724ZM35.3813 48.7093L34.8896 48.8003V48.8003L35.3813 48.7093ZM35.2765 49.0033L34.9533 48.6217L34.9515 48.6232L35.2765 49.0033ZM2.97541 145.668L2.48728 145.776L2.4873 145.776L2.97541 145.668ZM2.91426 145.93L3.30397 146.243H3.30397L2.91426 145.93ZM113.665 164.552C113.346 164.552 113.028 164.549 112.711 164.543L112.692 165.543C113.016 165.549 113.34 165.552 113.665 165.552V164.552ZM108.91 164.326C108.277 164.266 107.646 164.194 107.018 164.11L106.886 165.101C107.526 165.187 108.169 165.26 108.815 165.322L108.91 164.326ZM103.265 163.464C102.643 163.332 102.024 163.189 101.409 163.035L101.166 164.005C101.793 164.162 102.424 164.308 103.058 164.442L103.265 163.464ZM97.7529 161.969C97.15 161.768 96.5514 161.557 95.9574 161.334L95.6063 162.27C96.212 162.497 96.8224 162.713 97.4371 162.918L97.7529 161.969ZM92.4438 159.864C91.8674 159.598 91.2962 159.32 90.7306 159.032L90.277 159.923C90.8537 160.217 91.4361 160.5 92.0238 160.772L92.4438 159.864ZM87.403 157.179C86.8601 156.85 86.3234 156.51 85.7932 156.161L85.243 156.996C85.7836 157.352 86.3308 157.698 86.8843 158.034L87.403 157.179ZM82.693 153.949C82.1904 153.561 81.695 153.164 81.2069 152.757L80.567 153.526C81.0646 153.94 81.5698 154.345 82.0822 154.74L82.693 153.949ZM78.3733 150.213C77.9174 149.771 77.4695 149.321 77.0298 148.863L76.3079 149.555C76.7562 150.022 77.2129 150.481 77.6777 150.931L78.3733 150.213ZM74.4995 146.016C74.0964 145.526 73.7019 145.029 73.3165 144.523L72.5212 145.129C72.9143 145.645 73.3165 146.152 73.7277 146.652L74.4995 146.016ZM71.1243 141.41C70.7794 140.878 70.4439 140.339 70.1181 139.793L69.2593 140.306C69.5916 140.863 69.9337 141.412 70.2855 141.954L71.1243 141.41ZM68.2929 136.451C68.0107 135.885 67.7384 135.311 67.4765 134.731L66.5651 135.142C66.8322 135.734 67.1099 136.319 67.3978 136.897L68.2929 136.451ZM66.0414 131.202C65.8254 130.607 65.6199 130.007 65.4251 129.401L64.473 129.706C64.6717 130.325 64.8812 130.937 65.1015 131.543L66.0414 131.202ZM64.3969 125.735C64.3226 125.426 64.2509 125.116 64.182 124.804L63.2056 125.02C63.2759 125.338 63.3489 125.654 63.4247 125.969L64.3969 125.735ZM64.182 124.804C64.1122 124.489 64.0463 124.173 63.9843 123.858L63.0031 124.051C63.0666 124.374 63.1341 124.697 63.2056 125.02L64.182 124.804ZM63.4204 120.045C63.3564 119.403 63.308 118.762 63.275 118.123L62.2764 118.175C62.3102 118.83 62.3597 119.486 62.4253 120.144L63.4204 120.045ZM63.261 114.269C63.2896 113.625 63.3336 112.984 63.3927 112.346L62.397 112.254C62.3364 112.908 62.2913 113.565 62.262 114.225L63.261 114.269ZM63.9319 108.53C64.0524 107.898 64.1878 107.269 64.3378 106.645L63.3656 106.412C63.2118 107.051 63.073 107.695 62.9495 108.343L63.9319 108.53ZM65.4169 102.945C65.6262 102.337 65.8498 101.734 66.0872 101.137L65.1581 100.767C64.9148 101.379 64.6858 101.996 64.4713 102.62L65.4169 102.945ZM67.6806 97.6268C67.9738 97.0546 68.2803 96.4894 68.5999 95.9319L67.7324 95.4346C67.4049 96.0057 67.0909 96.5846 66.7906 97.1709L67.6806 97.6268ZM70.673 92.6815C71.0437 92.1566 71.4269 91.6404 71.8222 91.1332L71.0335 90.5185C70.6285 91.038 70.236 91.5669 69.8562 92.1046L70.673 92.6815ZM74.3333 88.2082C74.7742 87.7413 75.2264 87.2844 75.6898 86.8381L74.9961 86.1179C74.5213 86.5752 74.0579 87.0432 73.6062 87.5216L74.3333 88.2082ZM78.5902 84.2992C79.0925 83.9001 79.6051 83.5123 80.1278 83.1364L79.5438 82.3246C79.0082 82.7099 78.4829 83.1072 77.9681 83.5162L78.5902 84.2992ZM83.3608 81.0383C83.9144 80.7156 84.4772 80.4054 85.0489 80.108L84.5874 79.2208C84.0015 79.5256 83.4247 79.8436 82.8572 80.1743L83.3608 81.0383ZM88.5492 78.4956C89.1427 78.256 89.7441 78.0296 90.3532 77.8169L90.0235 76.8728C89.3994 77.0908 88.783 77.3228 88.1748 77.5683L88.5492 78.4956ZM94.0482 76.7205C94.3604 76.6437 94.6743 76.5704 94.9899 76.5006L94.774 75.5242C94.4507 75.5957 94.1292 75.6708 93.8093 75.7495L94.0482 76.7205ZM94.9899 76.5006C95.3354 76.4242 95.6814 76.3536 96.0281 76.2887L95.8442 75.3058C95.4868 75.3726 95.1301 75.4454 94.774 75.5242L94.9899 76.5006ZM100.232 75.7839C100.939 75.7457 101.645 75.7308 102.35 75.7388L102.361 74.7389C101.634 74.7306 100.906 74.746 100.178 74.7854L100.232 75.7839ZM106.572 76.0641C107.271 76.1643 107.967 76.2873 108.658 76.433L108.864 75.4545C108.152 75.3044 107.434 75.1775 106.714 75.0742L106.572 76.0641ZM112.735 77.5755C113.4 77.8098 114.059 78.0661 114.709 78.3442L115.102 77.4248C114.432 77.138 113.753 76.8738 113.067 76.6323L112.735 77.5755ZM118.485 80.2604C118.788 80.4402 119.089 80.6252 119.387 80.8154L119.925 79.9723C119.618 79.7762 119.307 79.5855 118.995 79.4001L118.485 80.2604ZM119.387 80.8154C119.686 81.0057 119.98 81.2005 120.271 81.3997L120.836 80.5746C120.536 80.3692 120.233 80.1684 119.925 79.9723L119.387 80.8154ZM123.601 84.0155C124.127 84.488 124.637 84.9768 125.13 85.4812L125.845 84.7822C125.337 84.2623 124.812 83.7583 124.269 83.2713L123.601 84.0155ZM127.886 88.6965C128.309 89.2617 128.714 89.8406 129.1 90.4323L129.937 89.8863C129.54 89.2763 129.122 88.6795 128.686 88.0968L127.886 88.6965ZM131.175 94.1233C131.48 94.7593 131.764 95.406 132.027 96.0626L132.955 95.6905C132.684 95.0136 132.391 94.3469 132.077 93.6912L131.175 94.1233ZM133.342 100.088C133.43 100.429 133.511 100.773 133.588 101.118L134.564 100.902C134.486 100.546 134.401 100.192 134.311 99.8398L133.342 100.088ZM133.588 101.118C133.657 101.434 133.721 101.751 133.778 102.067L134.762 101.889C134.703 101.56 134.637 101.231 134.564 100.903L133.588 101.118ZM134.186 105.91C134.205 106.558 134.201 107.202 134.173 107.843L135.172 107.887C135.201 107.222 135.206 106.552 135.185 105.879L134.186 105.91ZM133.712 111.679C133.587 112.313 133.438 112.941 133.266 113.56L134.23 113.827C134.408 113.183 134.563 112.531 134.693 111.873L133.712 111.679ZM131.961 117.197C131.699 117.787 131.414 118.366 131.109 118.933L131.99 119.407C132.307 118.818 132.602 118.216 132.875 117.604L131.961 117.197ZM129.031 122.192C128.645 122.708 128.24 123.209 127.816 123.696L128.571 124.353C129.011 123.847 129.431 123.326 129.832 122.79L129.031 122.192ZM125.069 126.413C124.579 126.83 124.073 127.229 123.551 127.61L124.14 128.418C124.682 128.023 125.208 127.608 125.717 127.175L125.069 126.413ZM120.267 129.646C119.698 129.942 119.115 130.218 118.52 130.473L118.913 131.392C119.532 131.127 120.137 130.84 120.728 130.533L120.267 129.646ZM114.864 131.724C114.553 131.805 114.239 131.881 113.922 131.952L114.139 132.928C114.468 132.855 114.793 132.776 115.116 132.692L114.864 131.724ZM113.925 131.951C113.619 132.017 113.314 132.076 113.008 132.129L113.177 133.114C113.497 133.06 113.817 132.998 114.137 132.928L113.925 131.951ZM109.293 132.424C108.668 132.418 108.047 132.383 107.431 132.32L107.33 133.315C107.976 133.381 108.627 133.417 109.282 133.424L109.293 132.424ZM103.772 131.612C103.173 131.44 102.584 131.24 102.005 131.015L101.642 131.947C102.249 132.183 102.867 132.392 103.494 132.573L103.772 131.612ZM98.6654 129.359C98.1357 129.034 97.6202 128.686 97.1205 128.314L96.5235 129.116C97.0472 129.506 97.5876 129.871 98.1427 130.212L98.6654 129.359ZM94.3428 125.829C93.9201 125.376 93.5163 124.903 93.1329 124.41L92.3433 125.023C92.7453 125.541 93.1687 126.037 93.6117 126.512L94.3428 125.829ZM91.1198 121.273C90.9765 120.998 90.8387 120.719 90.7067 120.436L89.8004 120.859C89.9387 121.155 90.083 121.447 90.2331 121.735L91.1198 121.273ZM90.7068 120.436C90.7114 120.446 90.7152 120.456 90.718 120.467L89.7519 120.725C89.7641 120.771 89.7802 120.815 89.8004 120.858L90.7068 120.436ZM90.7065 120.596C90.7018 120.606 90.6963 120.616 90.6899 120.625L89.8727 120.048C89.8452 120.087 89.8214 120.128 89.8015 120.171L90.7065 120.596ZM90.6899 120.625C90.6835 120.634 90.6764 120.642 90.6686 120.65L89.9643 119.94C89.9309 119.973 89.9003 120.009 89.8727 120.048L90.6899 120.625ZM90.5507 120.704C90.5397 120.705 90.5287 120.705 90.5177 120.704L90.6116 119.709C90.564 119.704 90.5166 119.704 90.4698 119.708L90.5507 120.704ZM90.5177 120.704C90.5067 120.703 90.4958 120.701 90.4852 120.698L90.751 119.734C90.7057 119.722 90.6591 119.713 90.6116 119.709L90.5177 120.704ZM90.3795 120.623C90.3733 120.614 90.3679 120.604 90.3633 120.594L91.2738 120.181C91.2541 120.137 91.2307 120.096 91.2041 120.057L90.3795 120.623ZM90.3654 120.599C90.4997 120.887 90.6398 121.171 90.7857 121.45L91.6723 120.988C91.5333 120.721 91.3998 120.451 91.2718 120.176L90.3654 120.599ZM92.8351 124.644C93.2255 125.146 93.6367 125.628 94.0671 126.089L94.7981 125.407C94.3882 124.968 93.9966 124.509 93.6247 124.03L92.8351 124.644ZM96.8952 128.619C97.4039 128.997 97.9287 129.352 98.4679 129.683L98.9906 128.831C98.4768 128.516 97.9768 128.177 97.4922 127.817L96.8952 128.619ZM101.867 131.369C102.456 131.598 103.057 131.801 103.666 131.977L103.943 131.016C103.363 130.848 102.791 130.655 102.229 130.437L101.867 131.369ZM107.391 132.697C108.019 132.761 108.651 132.796 109.287 132.803L109.298 131.803C108.692 131.797 108.089 131.763 107.492 131.702L107.391 132.697ZM113.07 132.502C113.381 132.449 113.692 132.388 114.002 132.321L113.79 131.344C113.494 131.408 113.198 131.465 112.902 131.516L113.07 132.502ZM114.005 132.32C114.326 132.249 114.644 132.172 114.96 132.09L114.707 131.122C114.403 131.201 114.097 131.276 113.788 131.344L114.005 132.32ZM118.668 130.82C119.273 130.561 119.864 130.281 120.441 129.981L119.98 129.094C119.425 129.383 118.856 129.652 118.275 129.901L118.668 130.82ZM123.774 127.915C124.304 127.529 124.818 127.124 125.315 126.701L124.667 125.939C124.189 126.346 123.695 126.736 123.185 127.107L123.774 127.915ZM128.102 123.944C128.532 123.45 128.943 122.941 129.334 122.418L128.533 121.819C128.157 122.323 127.761 122.812 127.348 123.287L128.102 123.944ZM131.442 119.113C131.752 118.537 132.04 117.95 132.307 117.352L131.393 116.945C131.137 117.52 130.859 118.085 130.562 118.639L131.442 119.113ZM133.631 113.662C133.805 113.033 133.956 112.396 134.083 111.753L133.101 111.559C132.979 112.178 132.834 112.79 132.667 113.395L133.631 113.662ZM134.55 107.86C134.579 107.21 134.584 106.556 134.563 105.898L133.564 105.929C133.583 106.561 133.579 107.19 133.551 107.815L134.55 107.86ZM134.151 102C134.092 101.679 134.028 101.358 133.957 101.037L132.98 101.252C133.049 101.561 133.111 101.87 133.167 102.179L134.151 102ZM133.957 101.036C133.879 100.686 133.797 100.338 133.708 99.9919L132.739 100.239C132.825 100.574 132.905 100.912 132.981 101.252L133.957 101.036ZM132.382 95.9193C132.116 95.2522 131.829 94.5975 131.522 93.9557L130.62 94.387C130.917 95.009 131.195 95.6437 131.454 96.2903L132.382 95.9193ZM129.423 90.2207C129.032 89.6202 128.622 89.0346 128.194 88.4645L127.394 89.0647C127.809 89.6173 128.206 90.1849 128.586 90.7669L129.423 90.2207ZM125.404 85.2138C124.903 84.7026 124.386 84.2085 123.855 83.7323L123.187 84.4771C123.703 84.9389 124.204 85.4179 124.689 85.9135L125.404 85.2138ZM120.485 81.0877C119.895 80.684 119.292 80.2997 118.678 79.9353L118.168 80.7954C118.764 81.1488 119.348 81.5215 119.92 81.9128L120.485 81.0877ZM114.859 77.9947C114.203 77.7135 113.537 77.4534 112.862 77.2151L112.529 78.158C113.183 78.389 113.829 78.6412 114.465 78.9138L114.859 77.9947ZM108.738 76.0556C108.041 75.9082 107.337 75.7832 106.627 75.6814L106.485 76.6713C107.173 76.77 107.855 76.8911 108.531 77.034L108.738 76.0556ZM102.356 75.3538C101.644 75.3463 100.93 75.362 100.212 75.4017L100.267 76.4002C100.963 76.3617 101.656 76.3465 102.345 76.3538L102.356 75.3538ZM95.9602 75.9166C95.6097 75.9823 95.259 76.054 94.9082 76.1315L95.1242 77.1079C95.4644 77.0327 95.8046 76.9632 96.1446 76.8994L95.9602 75.9166ZM94.9077 76.1317C94.5893 76.2024 94.2727 76.2767 93.9578 76.3545L94.1976 77.3254C94.505 77.2494 94.814 77.1769 95.1247 77.1078L94.9077 76.1317ZM90.23 77.4637C89.6153 77.6786 89.0084 77.9074 88.4094 78.1493L88.7841 79.0765C89.3683 78.8405 89.9604 78.6173 90.5601 78.4076L90.23 77.4637ZM84.8764 79.7773C84.2992 80.0774 83.7311 80.3906 83.1721 80.7162L83.6755 81.5802C84.2207 81.2626 84.7749 80.9572 85.3378 80.6644L84.8764 79.7773ZM79.9081 82.8333C79.3805 83.2126 78.8629 83.6038 78.3558 84.0065L78.9776 84.7896C79.4723 84.3969 79.9771 84.0153 80.4918 83.6453L79.9081 82.8333ZM75.4276 86.568C74.9598 87.0183 74.5033 87.4792 74.0582 87.9503L74.7851 88.637C75.2193 88.1774 75.6647 87.7278 76.1211 87.2885L75.4276 86.568ZM71.5236 90.9015C71.1246 91.4132 70.7379 91.9341 70.3638 92.4637L71.1806 93.0406C71.5456 92.5239 71.9229 92.0156 72.3122 91.5164L71.5236 90.9015ZM68.2719 95.7436C67.9494 96.3061 67.6402 96.8764 67.3445 97.454L68.2346 97.9097C68.5231 97.3462 68.8248 96.7898 69.1395 96.2409L68.2719 95.7436ZM65.7373 100.997C65.4978 101.599 65.2724 102.207 65.0614 102.821L66.0071 103.146C66.213 102.547 66.4329 101.954 66.6665 101.366L65.7373 100.997ZM63.9735 106.557C63.8222 107.186 63.6857 107.82 63.5643 108.459L64.5467 108.646C64.6651 108.023 64.7983 107.404 64.9458 106.79L63.9735 106.557ZM63.021 112.311C62.9614 112.955 62.9171 113.603 62.8883 114.252L63.8873 114.297C63.9154 113.663 63.9587 113.032 64.0168 112.403L63.021 112.311ZM62.902 118.142C62.9352 118.788 62.9837 119.434 63.048 120.082L64.0431 119.984C63.9804 119.351 63.933 118.72 63.9007 118.091L62.902 118.142ZM63.6143 123.93C63.6765 124.249 63.7427 124.567 63.8127 124.886L64.7894 124.671C64.721 124.36 64.6564 124.049 64.5957 123.738L63.6143 123.93ZM63.8128 124.886C63.8873 125.223 63.9649 125.558 64.0456 125.891L65.0175 125.656C64.9383 125.329 64.8622 125 64.7893 124.67L63.8128 124.886ZM65.1712 129.842C65.3862 130.497 65.6136 131.144 65.8531 131.784L66.7898 131.434C66.5549 130.806 66.332 130.172 66.1212 129.53L65.1712 129.842ZM67.4488 135.574C67.7409 136.196 68.0448 136.811 68.3602 137.417L69.2473 136.955C68.9382 136.361 68.6402 135.759 68.3539 135.149L67.4488 135.574ZM70.4044 140.985C70.7698 141.566 71.1464 142.14 71.5337 142.704L72.3581 142.138C71.9785 141.585 71.6094 141.023 71.2512 140.453L70.4044 140.985ZM73.9956 145.997C74.4284 146.53 74.8714 147.053 75.3242 147.566L76.0742 146.905C75.6302 146.401 75.196 145.888 74.7717 145.366L73.9956 145.997ZM78.1657 150.538C78.6593 151.014 79.1621 151.481 79.6737 151.936L80.3387 151.189C79.8371 150.743 79.3441 150.286 78.8602 149.819L78.1657 150.538ZM82.8509 154.546C83.3977 154.959 83.9526 155.362 84.5152 155.753L85.0861 154.932C84.5344 154.548 83.9903 154.153 83.4542 153.748L82.8509 154.546ZM87.9816 157.964C88.5736 158.309 89.1726 158.642 89.7782 158.964L90.247 158.08C89.6532 157.765 89.0658 157.438 88.4853 157.1L87.9816 157.964ZM93.484 160.744C94.1128 161.016 94.7475 161.275 95.3875 161.522L95.7471 160.589C95.1195 160.347 94.4973 160.093 93.8807 159.826L93.484 160.744ZM99.2806 162.845C99.9371 163.039 100.598 163.221 101.264 163.388L101.508 162.419C100.856 162.254 100.208 162.077 99.5641 161.886L99.2806 162.845ZM105.288 164.232C105.963 164.345 106.641 164.445 107.323 164.531L107.448 163.539C106.78 163.455 106.115 163.357 105.453 163.246L105.288 164.232ZM111.42 164.88C112.103 164.91 112.788 164.927 113.475 164.93L113.479 163.93C112.805 163.927 112.134 163.911 111.464 163.881L111.42 164.88ZM117.584 164.778C118.266 164.725 118.949 164.659 119.633 164.578L119.515 163.585C118.845 163.664 118.175 163.729 117.507 163.781L117.584 164.778ZM123.69 163.932C124.027 163.865 124.363 163.794 124.7 163.719L124.484 162.743C124.154 162.816 123.824 162.885 123.494 162.952L123.69 163.932ZM124.699 163.719C125.034 163.646 125.368 163.569 125.702 163.49L125.471 162.517C125.143 162.595 124.814 162.67 124.484 162.743L124.699 163.719ZM129.666 162.413C130.322 162.212 130.973 162 131.621 161.779L131.297 160.833C130.66 161.051 130.018 161.259 129.373 161.457L129.666 162.413ZM135.463 160.323C136.096 160.059 136.724 159.786 137.347 159.503L136.933 158.593C136.32 158.871 135.702 159.14 135.079 159.4L135.463 160.323ZM141.031 157.683C141.635 157.359 142.234 157.027 142.827 156.684L142.327 155.818C141.743 156.155 141.154 156.483 140.559 156.801L141.031 157.683ZM146.317 154.517C146.887 154.137 147.451 153.747 148.008 153.349L147.427 152.536C146.878 152.927 146.323 153.31 145.762 153.684L146.317 154.517ZM151.273 150.855C151.803 150.422 152.327 149.98 152.843 149.53L152.186 148.776C151.678 149.219 151.162 149.654 150.64 150.08L151.273 150.855ZM155.852 146.731C156.338 146.249 156.816 145.759 157.287 145.261L156.56 144.574C156.097 145.064 155.626 145.547 155.147 146.021L155.852 146.731ZM160.011 142.185C160.448 141.658 160.877 141.124 161.297 140.583L160.507 139.969C160.093 140.502 159.671 141.028 159.241 141.546L160.011 142.185ZM163.711 137.257C164.095 136.691 164.47 136.118 164.836 135.538L163.991 135.004C163.63 135.575 163.261 136.139 162.883 136.696L163.711 137.257ZM166.917 131.996C167.081 131.695 167.243 131.393 167.402 131.089L166.516 130.625C166.36 130.924 166.201 131.221 166.039 131.517L166.917 131.996ZM167.402 131.089C167.397 131.098 167.391 131.108 167.385 131.116L166.592 130.506C166.564 130.543 166.538 130.583 166.516 130.626L167.402 131.089ZM167.275 131.186C167.264 131.188 167.254 131.189 167.242 131.19L167.202 130.191C167.154 130.193 167.107 130.199 167.062 130.209L167.275 131.186ZM167.242 131.19C167.231 131.19 167.22 131.19 167.21 131.188L167.343 130.197C167.297 130.191 167.25 130.189 167.202 130.191L167.242 131.19ZM167.095 131.128C167.088 131.12 167.081 131.111 167.075 131.102L167.921 130.569C167.896 130.528 167.867 130.491 167.835 130.456L167.095 131.128ZM167.075 131.102C167.069 131.092 167.064 131.083 167.06 131.072L167.986 130.694C167.968 130.651 167.946 130.609 167.921 130.569L167.075 131.102ZM167.055 130.943C167.058 130.933 167.063 130.922 167.068 130.913L167.952 131.38C167.974 131.338 167.992 131.294 168.007 131.25L167.055 130.943ZM167.067 130.914C166.909 131.216 166.748 131.517 166.585 131.816L167.463 132.294C167.629 131.991 167.792 131.685 167.953 131.379L167.067 130.914ZM164.516 135.337C164.152 135.913 163.779 136.483 163.398 137.046L164.226 137.607C164.613 137.035 164.992 136.456 165.362 135.871L164.516 135.337ZM160.998 140.351C160.58 140.889 160.154 141.42 159.72 141.944L160.489 142.582C160.931 142.051 161.363 141.511 161.788 140.965L160.998 140.351ZM157.012 145.001C156.544 145.497 156.068 145.984 155.585 146.463L156.29 147.173C156.78 146.686 157.264 146.191 157.739 145.688L157.012 145.001ZM152.595 149.245C152.081 149.692 151.561 150.132 151.034 150.562L151.666 151.337C152.202 150.899 152.73 150.453 153.252 149.999L152.595 149.245ZM147.788 153.042C147.234 153.438 146.674 153.824 146.107 154.202L146.662 155.034C147.238 154.65 147.807 154.258 148.369 153.856L147.788 153.042ZM142.638 156.357C142.048 156.697 141.453 157.028 140.852 157.349L141.324 158.231C141.934 157.905 142.539 157.569 143.138 157.223L142.638 156.357ZM137.191 159.159C136.572 159.44 135.947 159.712 135.318 159.974L135.702 160.897C136.342 160.631 136.976 160.355 137.605 160.069L137.191 159.159ZM131.498 161.421C130.855 161.641 130.208 161.851 129.556 162.051L129.849 163.007C130.511 162.804 131.169 162.591 131.822 162.367L131.498 161.421ZM125.615 163.122C125.283 163.201 124.951 163.277 124.618 163.35L124.834 164.327C125.172 164.252 125.509 164.175 125.846 164.095L125.615 163.122ZM124.618 163.35C124.318 163.417 124.018 163.48 123.718 163.541L123.917 164.521C124.223 164.459 124.529 164.394 124.834 164.327L124.618 163.35ZM120.088 164.141C119.479 164.219 118.869 164.286 118.259 164.342L118.349 165.337C118.972 165.281 119.594 165.212 120.215 165.133L120.088 164.141ZM114.585 164.543C114.278 164.549 113.971 164.552 113.665 164.552L113.665 165.552C113.978 165.552 114.29 165.549 114.603 165.543L114.585 164.543ZM174.172 94.5467C174.187 94.5467 174.203 94.5486 174.218 94.5524L173.976 95.5227C174.039 95.5385 174.105 95.5467 174.172 95.5467V94.5467ZM174.35 94.671C174.355 94.6855 174.359 94.7005 174.36 94.7155L173.366 94.8222C173.373 94.8886 173.388 94.9529 173.411 95.014L174.35 94.671ZM174.36 94.7153C174.318 94.3206 174.272 93.9262 174.222 93.5324L173.23 93.6577C173.279 94.0454 173.324 94.4337 173.366 94.8223L174.36 94.7153ZM173.452 88.8322C173.373 88.4431 173.291 88.0546 173.206 87.667L172.229 87.8828C172.314 88.2645 172.394 88.647 172.472 89.0301L173.452 88.8322ZM173.206 87.6669C173.132 87.3362 173.057 87.0063 172.98 86.6773L172.006 86.9056C172.083 87.2305 172.157 87.5563 172.229 87.8829L173.206 87.6669ZM171.956 82.7605C171.768 82.1118 171.573 81.4669 171.37 80.8257L170.417 81.1276C170.617 81.7607 170.81 82.3975 170.995 83.038L171.956 82.7605ZM170.049 76.9974C169.812 76.3642 169.568 75.7351 169.316 75.1102L168.389 75.4842C168.637 76.1012 168.879 76.7224 169.113 77.3477L170.049 76.9974ZM167.707 71.3966C167.422 70.7833 167.13 70.1744 166.831 69.5702L165.935 70.0142C166.23 70.6108 166.519 71.212 166.8 71.8176L167.707 71.3966ZM164.941 65.9902C164.611 65.4011 164.273 64.8168 163.929 64.2375L163.069 64.7487C163.41 65.3207 163.743 65.8977 164.069 66.4794L164.941 65.9902ZM161.771 60.8119C161.397 60.2501 161.016 59.6934 160.628 59.1421L159.81 59.7173C160.193 60.2617 160.569 60.8114 160.939 61.3662L161.771 60.8119ZM158.216 55.8905C157.801 55.3587 157.378 54.8325 156.95 54.312L156.178 54.9476C156.601 55.4617 157.018 55.9813 157.429 56.5064L158.216 55.8905ZM154.298 51.2531C153.843 50.7543 153.382 50.2614 152.915 49.7746L152.194 50.4669C152.655 50.9476 153.11 51.4344 153.559 51.927L154.298 51.2531ZM150.041 46.9251C149.549 46.4622 149.052 46.0056 148.55 45.5554L147.883 46.3002C148.379 46.7448 148.87 47.1957 149.355 47.6528L150.041 46.9251ZM145.468 42.9309C144.944 42.5065 144.414 42.0887 143.879 41.6776L143.27 42.4706C143.798 42.8766 144.321 43.2892 144.839 43.7083L145.468 42.9309ZM140.608 39.2931C140.053 38.9095 139.493 38.5328 138.928 38.1633L138.381 39C138.938 39.365 139.491 39.7369 140.039 40.1157L140.608 39.2931ZM135.486 36.0326C134.904 35.6921 134.317 35.3589 133.726 35.033L133.243 35.9087C133.827 36.2306 134.407 36.5596 134.982 36.8959L135.486 36.0326ZM130.133 33.1691C129.526 32.8739 128.916 32.5862 128.302 32.3062L127.887 33.2161C128.493 33.4926 129.096 33.7766 129.695 34.0682L130.133 33.1691ZM124.576 30.7208C123.95 30.4727 123.319 30.2324 122.686 30L122.341 30.9389C122.967 31.1684 123.59 31.4056 124.208 31.6506L124.576 30.7208ZM118.85 28.7039C118.206 28.5045 117.559 28.3131 116.909 28.1299L116.638 29.0924C117.28 29.2733 117.919 29.4623 118.554 29.6592L118.85 28.7039ZM112.986 27.132C112.328 26.9826 111.668 26.8414 111.005 26.7085L110.809 27.6891C111.463 27.8202 112.115 27.9596 112.764 28.1071L112.986 27.132ZM107.017 26.0157C106.351 25.9174 105.682 25.8276 105.011 25.7462L104.89 26.739C105.553 26.8193 106.213 26.908 106.872 27.005L107.017 26.0157ZM100.979 25.3624C100.308 25.3159 99.6352 25.2779 98.9606 25.2484L98.917 26.2475C99.583 26.2766 100.247 26.3141 100.91 26.36L100.979 25.3624ZM94.9126 25.1755C94.5746 25.1781 94.2363 25.1828 93.8977 25.1897L93.918 26.1895C94.2524 26.1827 94.5865 26.178 94.9201 26.1755L94.9126 25.1755ZM93.8979 25.1897C93.9141 25.1894 93.9305 25.1912 93.9466 25.1951L93.7076 26.1662C93.7754 26.1828 93.8459 26.1909 93.9177 26.1895L93.8979 25.1897ZM94.0831 25.3263C94.0877 25.3422 94.0902 25.3585 94.0905 25.3746L93.0907 25.395C93.0922 25.4668 93.1031 25.537 93.1225 25.604L94.0831 25.3263ZM94.0905 25.375C94.0909 25.3911 94.089 25.4075 94.0851 25.4237L93.1141 25.1846C93.0974 25.2523 93.0893 25.3228 93.0907 25.3946L94.0905 25.375ZM93.9539 25.5601C93.938 25.5647 93.9216 25.5672 93.9055 25.5675L93.8853 24.5677C93.8135 24.5692 93.7433 24.5801 93.6763 24.5994L93.9539 25.5601ZM93.9047 25.5676C94.2419 25.5613 94.5788 25.5572 94.9153 25.5551L94.9093 24.5552C94.5686 24.5572 94.2275 24.5614 93.8861 24.5677L93.9047 25.5676ZM98.9449 25.6325C99.6164 25.6624 100.286 25.7007 100.954 25.7473L101.023 24.7498C100.347 24.7025 99.6692 24.6638 98.9893 24.6335L98.9449 25.6325ZM104.967 26.1302C105.635 26.2111 106.301 26.3004 106.965 26.398L107.11 25.4086C106.438 25.3098 105.764 25.2194 105.087 25.1374L104.967 26.1302ZM110.934 27.0855C111.594 27.2172 112.252 27.3572 112.906 27.5053L113.127 26.53C112.464 26.38 111.798 26.2382 111.13 26.1048L110.934 27.0855ZM116.812 28.4945C117.46 28.6761 118.104 28.8658 118.745 29.0635L119.04 28.1079C118.391 27.9077 117.738 27.7156 117.082 27.5316L116.812 28.4945ZM122.565 30.3486C123.196 30.579 123.824 30.8173 124.448 31.0633L124.814 30.133C124.183 29.8839 123.547 29.6426 122.908 29.4092L122.565 30.3486ZM128.158 32.6364C128.77 32.9143 129.378 33.1999 129.982 33.493L130.419 32.5933C129.807 32.2966 129.192 32.0074 128.572 31.7259L128.158 32.6364ZM133.562 35.3438C134.151 35.6676 134.735 35.9987 135.315 36.337L135.819 35.4732C135.232 35.1306 134.64 34.7953 134.043 34.4675L133.562 35.3438ZM138.744 38.4546C139.306 38.8221 139.864 39.1966 140.417 39.578L140.985 38.7549C140.425 38.3687 139.86 37.9895 139.291 37.6174L138.744 38.4546ZM143.675 41.9499C144.208 42.3588 144.735 42.7745 145.258 43.1968L145.886 42.4192C145.358 41.9916 144.823 41.5707 144.284 41.1566L143.675 41.9499ZM148.326 45.809C148.827 46.2572 149.321 46.7117 149.81 47.1726L150.496 46.4449C150.001 45.9783 149.5 45.518 148.994 45.0642L148.326 45.809ZM152.672 50.01C153.136 50.4948 153.595 50.9857 154.048 51.4825L154.787 50.8091C154.329 50.306 153.864 49.8089 153.394 49.318L152.672 50.01ZM156.685 54.5293C157.111 55.0478 157.531 55.572 157.945 56.1017L158.733 55.4865C158.315 54.95 157.889 54.4192 157.458 53.8942L156.685 54.5293ZM160.343 59.341C160.728 59.8902 161.107 60.4447 161.479 61.0044L162.312 60.4511C161.935 59.8843 161.552 59.3227 161.162 58.7666L160.343 59.341ZM163.622 64.4169C163.964 64.9939 164.3 65.576 164.628 66.1629L165.501 65.6748C165.168 65.0805 164.829 64.4911 164.482 63.9068L163.622 64.4169ZM166.504 69.7287C166.801 70.3306 167.091 70.937 167.374 71.5479L168.282 71.1281C167.995 70.5094 167.702 69.8953 167.401 69.2859L166.504 69.7287ZM168.972 75.2462C169.222 75.8685 169.464 76.495 169.7 77.1256L170.637 76.7763C170.399 76.1377 170.153 75.5033 169.899 74.8731L168.972 75.2462ZM171.011 80.9376C171.213 81.5759 171.407 82.2179 171.593 82.8638L172.554 82.5867C172.365 81.9328 172.169 81.2826 171.965 80.6364L171.011 80.9376ZM172.612 86.7633C172.689 87.0909 172.763 87.4194 172.836 87.7487L173.813 87.5327C173.739 87.1992 173.663 86.8667 173.585 86.535L172.612 86.7633ZM172.836 87.7486C172.922 88.1341 173.003 88.5202 173.081 88.9071L174.062 88.7092C173.982 88.3163 173.899 87.9241 173.813 87.5327L172.836 87.7486ZM173.847 93.5801C173.897 93.9716 173.942 94.3637 173.985 94.7561L174.979 94.6491C174.936 94.2505 174.889 93.8524 174.839 93.4548L173.847 93.5801ZM173.985 94.7559C173.984 94.7477 173.983 94.7394 173.984 94.7312L174.983 94.7553C174.984 94.7201 174.983 94.6847 174.979 94.6494L173.985 94.7559ZM174.011 94.6373C174.016 94.6302 174.02 94.6235 174.025 94.617L174.804 95.2448C174.826 95.2171 174.847 95.1882 174.865 95.1581L174.011 94.6373ZM174.025 94.617C174.031 94.6106 174.036 94.6045 174.042 94.5988L174.732 95.3229C174.757 95.2986 174.782 95.2725 174.804 95.2448L174.025 94.617ZM174.128 94.552C174.136 94.55 174.144 94.5486 174.153 94.5477L174.259 95.542C174.294 95.5383 174.329 95.5322 174.363 95.5239L174.128 94.552ZM174.125 94.5514C174.132 94.5503 174.138 94.5495 174.144 94.5488L174.257 95.5424C174.266 95.5414 174.276 95.5401 174.286 95.5383L174.125 94.5514ZM174.176 94.5467C174.175 94.5467 174.174 94.5467 174.172 94.5467V95.5467C174.174 95.5467 174.177 95.5467 174.18 95.5467L174.176 94.5467ZM2.6715 145.546C2.6857 145.546 2.69995 145.547 2.71389 145.551L2.49009 146.525C2.54889 146.539 2.60969 146.546 2.6715 146.546V145.546ZM2.8427 145.654C2.84877 145.667 2.85339 145.68 2.85643 145.694L1.87997 145.91C1.89327 145.97 1.9132 146.028 1.93898 146.082L2.8427 145.654ZM2.85632 145.694C2.78447 145.37 2.71428 145.046 2.64576 144.722L1.6674 144.929C1.7366 145.256 1.80749 145.583 1.88007 145.91L2.85632 145.694ZM1.90211 140.822C1.79112 140.169 1.68682 139.516 1.58915 138.863L0.600149 139.011C0.6988 139.671 0.80416 140.33 0.91626 140.99L1.90211 140.822ZM1.08063 134.925C1.00898 134.267 0.944016 133.608 0.885708 132.95L-0.110394 133.038C-0.0514963 133.703 0.0141242 134.368 0.0864989 135.034L1.08063 134.925ZM0.614943 128.99C0.583007 128.328 0.557752 127.667 0.539144 127.006L-0.46046 127.034C-0.441664 127.702 -0.416153 128.37 -0.383895 129.038L0.614943 128.99ZM0.507121 123.036C0.515066 122.374 0.529654 121.712 0.550853 121.052L-0.448632 121.02C-0.470046 121.687 -0.484782 122.355 -0.492807 123.024L0.507121 123.036ZM0.7577 117.087C0.805439 116.427 0.859772 115.768 0.920668 115.109L-0.0750813 115.017C-0.136592 115.682 -0.191475 116.348 -0.239696 117.015L0.7577 117.087ZM1.36551 111.164C1.45284 110.508 1.54671 109.853 1.64708 109.2L0.658662 109.048C0.557278 109.708 0.462465 110.37 0.374255 111.032L1.36551 111.164ZM2.32807 105.288C2.45465 104.639 2.5877 103.991 2.72719 103.344L1.74967 103.133C1.60878 103.786 1.47438 104.441 1.34652 105.097L2.32807 105.288ZM3.64169 99.4809C3.807 98.84 3.97871 98.2009 4.15676 97.5637L3.19366 97.2946C3.0138 97.9382 2.84037 98.5838 2.67339 99.2311L3.64169 99.4809ZM5.30138 93.7625C5.5048 93.1329 5.71451 92.5053 5.93048 91.8798L4.98525 91.5534C4.7671 92.1852 4.55528 92.8191 4.34981 93.4551L5.30138 93.7625ZM7.30103 88.1541C7.54183 87.5378 7.78882 86.9239 8.04198 86.3124L7.11802 85.9299C6.86232 86.5476 6.61284 87.1677 6.36961 87.7901L7.30103 88.1541ZM9.63352 82.6757C9.91084 82.0751 10.1942 81.477 10.4837 80.8817L9.58435 80.4445C9.29198 81.0458 9.00573 81.6498 8.72562 82.2565L9.63352 82.6757ZM12.2907 77.347C12.6035 76.7643 12.9222 76.1845 13.2468 75.6077L12.3754 75.1173C12.0475 75.6999 11.7255 76.2855 11.4096 76.8741L12.2907 77.347ZM15.2631 72.1877C15.6102 71.625 15.9631 71.0655 16.3219 70.5093L15.4815 69.9673C15.1191 70.5291 14.7626 71.0943 14.412 71.6627L15.2631 72.1877ZM18.5399 67.2169C18.9203 66.676 19.3064 66.1385 19.6981 65.6046L18.8918 65.0131C18.4961 65.5524 18.1062 66.0953 17.722 66.6416L18.5399 67.2169ZM22.11 62.4519C22.5223 61.9347 22.9402 61.4213 23.3637 60.9116L22.5945 60.2726C22.1668 60.7874 21.7446 61.3061 21.3281 61.8285L22.11 62.4519ZM25.9606 57.91C26.403 57.4189 26.8508 56.9317 27.304 56.4486L26.5746 55.7645C26.1168 56.2525 25.6645 56.7446 25.2176 57.2407L25.9606 57.91ZM30.0778 53.6074C30.5484 53.1442 31.0243 52.6852 31.5053 52.2304L30.8183 51.5038C30.3324 51.9631 29.8518 52.4268 29.3764 52.8946L30.0778 53.6074ZM34.4441 49.561C34.6937 49.3433 34.9445 49.1266 35.1966 48.9111L34.5467 48.151C34.2921 48.3688 34.0387 48.5876 33.7867 48.8075L34.4441 49.561ZM35.1994 48.9087C35.191 48.9159 35.1821 48.9224 35.1726 48.9281L34.6588 48.0701C34.6185 48.0943 34.58 48.1221 34.5439 48.1534L35.1994 48.9087ZM35.0451 48.9525C35.0342 48.9507 35.0235 48.948 35.0131 48.9443L35.3433 48.0004C35.2982 47.9846 35.2522 47.973 35.2058 47.9655L35.0451 48.9525ZM35.0131 48.9443C35.0026 48.9407 34.9926 48.9361 34.983 48.9307L35.4726 48.0588C35.4316 48.0358 35.3884 48.0162 35.3433 48.0004L35.0131 48.9443ZM34.8985 48.8322C34.8946 48.8218 34.8916 48.8112 34.8896 48.8003L35.8729 48.6183C35.8642 48.5713 35.8515 48.5256 35.835 48.4816L34.8985 48.8322ZM34.8896 48.8003C34.8876 48.7895 34.8866 48.7784 34.8865 48.7674L35.8865 48.7595C35.8861 48.7125 35.8816 48.6653 35.8729 48.6183L34.8896 48.8003ZM34.9301 48.6451C34.9371 48.6367 34.9449 48.6288 34.9534 48.6217L35.5996 49.3848C35.636 49.354 35.6694 49.3202 35.6994 49.284L34.9301 48.6451ZM34.9515 48.6232C34.6985 48.8396 34.4467 49.0571 34.1962 49.2756L34.8537 50.0291C35.1016 49.8128 35.3509 49.5975 35.6014 49.3833L34.9515 48.6232ZM31.2463 51.9551C30.7634 52.4117 30.2857 52.8724 29.8133 53.3374L30.5147 54.0501C30.9824 53.5899 31.4552 53.1337 31.9333 52.6818L31.2463 51.9551ZM27.0288 56.1894C26.5739 56.6744 26.1244 57.1635 25.6803 57.6565L26.4233 58.3258C26.8629 57.8378 27.3079 57.3537 27.7582 56.8735L27.0288 56.1894ZM23.0734 60.6695C22.6483 61.1812 22.2288 61.6967 21.8149 62.2158L22.5968 62.8393C23.0065 62.3253 23.4218 61.815 23.8426 61.3085L23.0734 60.6695ZM19.3937 65.3807C19.0005 65.9166 18.6129 66.4561 18.2311 66.9991L19.0491 67.5743C19.4271 67.0368 19.8107 66.5028 20.2 65.9722L19.3937 65.3807ZM16.0045 70.3041C15.6444 70.8625 15.2901 71.4242 14.9416 71.989L15.7927 72.514C16.1377 71.9549 16.4884 71.3988 16.8449 70.8461L16.0045 70.3041ZM12.9177 75.4221C12.5918 76.0011 12.2718 76.5831 11.9579 77.168L12.839 77.641C13.1498 77.0619 13.4665 76.4858 13.7891 75.9126L12.9177 75.4221ZM10.1439 80.7163C9.85336 81.3139 9.56888 81.9142 9.29051 82.5171L10.1984 82.9363C10.474 82.3394 10.7556 81.7452 11.0432 81.1536L10.1439 80.7163ZM7.69287 86.1677C7.43876 86.7815 7.19082 87.3978 6.9491 88.0164L7.88052 88.3804C8.11981 87.768 8.36526 87.1579 8.61682 86.5502L7.69287 86.1677ZM5.57332 91.7563C5.35652 92.3842 5.14601 93.0142 4.94181 93.6462L5.89338 93.9536C6.09553 93.3279 6.30393 92.7043 6.51855 92.0827L5.57332 91.7563ZM3.79282 97.4619C3.61408 98.1016 3.44172 98.7431 3.27578 99.3864L4.24407 99.6362C4.40836 98.9993 4.57899 98.3643 4.75593 97.731L3.79282 97.4619ZM2.35779 103.264C2.21776 103.913 2.0842 104.564 1.95713 105.216L2.93867 105.407C3.06447 104.762 3.19669 104.118 3.3353 103.475L2.35779 103.264ZM1.27353 109.142C1.17277 109.798 1.07854 110.456 0.990879 111.114L1.98214 111.246C2.06892 110.594 2.1622 109.943 2.26194 109.294L1.27353 109.142ZM0.544321 115.075C0.483191 115.735 0.428647 116.397 0.380724 117.06L1.37812 117.132C1.42556 116.476 1.47955 115.821 1.54007 115.167L0.544321 115.075ZM0.173074 121.04C0.151792 121.703 0.137146 122.367 0.129169 123.032L1.1291 123.044C1.13699 122.386 1.15149 121.728 1.17256 121.072L0.173074 121.04ZM0.161307 127.016C0.179984 127.68 0.205335 128.344 0.237392 129.009L1.23623 128.961C1.2045 128.303 1.1794 127.645 1.16091 126.988L0.161307 127.016ZM0.509187 132.984C0.567718 133.645 0.632929 134.306 0.704853 134.967L1.69899 134.859C1.62779 134.204 1.56323 133.55 1.50529 132.896L0.509187 132.984ZM1.21531 138.92C1.31334 139.575 1.41805 140.231 1.52945 140.886L2.5153 140.718C2.40502 140.07 2.30136 139.421 2.20431 138.772L1.21531 138.92ZM2.27592 144.801C2.3447 145.126 2.41515 145.451 2.48728 145.776L3.46353 145.559C3.39213 145.238 3.32238 144.916 3.25429 144.594L2.27592 144.801ZM2.4873 145.776C2.48526 145.767 2.48391 145.758 2.48326 145.748L3.48086 145.679C3.47808 145.639 3.47232 145.599 3.46351 145.559L2.4873 145.776ZM2.50857 145.64C2.5133 145.632 2.51864 145.624 2.52455 145.616L3.30397 146.243C3.32941 146.211 3.35227 146.178 3.37247 146.143L2.50857 145.64ZM2.52455 145.616C2.53051 145.609 2.537 145.602 2.54395 145.596L3.22129 146.331C3.25082 146.304 3.27849 146.275 3.30397 146.243L2.52455 145.616ZM2.64391 145.548C2.65303 145.546 2.66226 145.546 2.6715 145.546V146.546C2.71189 146.546 2.752 146.543 2.7915 146.537L2.64391 145.548ZM113.665 165.052V166.052H113.665L113.665 165.052ZM63.6938 124.912L64.6702 124.696V124.696L63.6938 124.912ZM94.882 76.0124L95.0979 76.9888L94.882 76.0124ZM119.656 80.3939L119.119 81.237L119.656 80.3939ZM134.076 101.01L135.053 100.795L135.052 100.794L134.076 101.01ZM114.031 132.44L114.243 133.417L114.248 133.416L114.031 132.44ZM90.2536 120.647L89.3472 121.07L89.3472 121.07L90.2536 120.647ZM90.2813 120.337L91.0985 120.913L90.2813 120.337ZM90.5646 120.206L90.4707 121.202L90.5646 120.206ZM90.8186 120.387L89.908 120.801L89.9122 120.81L90.8186 120.387ZM113.896 131.832L114.108 132.81L114.113 132.808L113.896 131.832ZM133.469 101.144L134.445 100.93L134.445 100.928L133.469 101.144ZM95.0162 76.6197L94.8003 75.6433L94.7992 75.6436L95.0162 76.6197ZM64.301 124.778L63.3244 124.993L63.3246 124.994L64.301 124.778ZM124.592 163.231L124.376 162.255L124.376 162.255L124.592 163.231ZM166.959 130.857L167.845 131.321L167.846 131.32L166.959 130.857ZM167.222 130.69L167.263 131.689L167.222 130.69ZM167.498 130.835L166.652 131.368V131.368L167.498 130.835ZM167.51 131.146L166.626 130.679L166.624 130.682L167.51 131.146ZM124.726 163.838L124.511 162.862L124.51 162.862L124.726 163.838ZM173.863 94.7688L174.858 94.6622L174.858 94.6618L173.863 94.7688ZM172.717 87.7749L173.694 87.559L173.694 87.559L172.717 87.7749ZM93.9078 25.6896L93.9276 26.6894L93.9282 26.6894L93.9078 25.6896ZM93.5906 25.3848L92.5908 25.4045L92.5908 25.4052L93.5906 25.3848ZM93.8954 25.0676L93.8768 24.0678L93.8752 24.0678L93.8954 25.0676ZM173.325 87.6407L174.301 87.4248L174.301 87.4247L173.325 87.6407ZM174.482 94.7026L175.476 94.5961L175.476 94.5956L174.482 94.7026ZM174.415 94.9309L175.193 95.5587L174.415 94.9309ZM174.206 95.0449L174.099 94.0506L174.072 94.0535L174.044 94.058L174.206 95.0449ZM2.3682 145.802L3.34466 145.586L3.34445 145.585L2.3682 145.802ZM34.8717 48.531L35.5216 49.2911L35.5271 49.2863L34.8717 48.531ZM35.1782 48.4724L34.848 49.4163L35.1782 48.4724ZM35.3813 48.7093L34.398 48.8913V48.8913L35.3813 48.7093ZM35.2765 49.0033L34.6302 48.2401L34.6266 48.2432L35.2765 49.0033ZM2.97541 145.668L1.99916 145.884L1.9992 145.885L2.97541 145.668ZM2.91426 145.93L3.69367 146.556L3.69368 146.556L2.91426 145.93ZM113.665 164.052C113.35 164.052 113.035 164.049 112.72 164.043L112.683 166.043C113.009 166.049 113.337 166.052 113.665 166.052V164.052ZM108.957 163.829C108.33 163.769 107.706 163.698 107.084 163.615L106.82 165.597C107.466 165.683 108.116 165.758 108.768 165.82L108.957 163.829ZM103.368 162.975C102.752 162.845 102.14 162.703 101.531 162.55L101.044 164.49C101.677 164.649 102.314 164.796 102.955 164.932L103.368 162.975ZM97.9108 161.495C97.3138 161.296 96.7211 161.086 96.1329 160.866L95.4307 162.738C96.0423 162.968 96.6586 163.186 97.2793 163.392L97.9108 161.495ZM92.6539 159.411C92.0831 159.146 91.5175 158.872 90.9574 158.587L90.0502 160.369C90.6324 160.665 91.2204 160.951 91.8137 161.226L92.6539 159.411ZM87.6623 156.752C87.1248 156.426 86.5933 156.09 86.0683 155.744L84.9679 157.414C85.5137 157.773 86.0661 158.123 86.6249 158.462L87.6623 156.752ZM82.9984 153.553C82.5007 153.169 82.0101 152.776 81.5268 152.373L80.247 153.91C80.7494 154.328 81.2595 154.737 81.7767 155.136L82.9984 153.553ZM78.721 149.853C78.2697 149.416 77.8261 148.971 77.3908 148.517L75.9469 149.9C76.3996 150.373 76.8607 150.836 77.33 151.29L78.721 149.853ZM74.8855 145.698C74.4863 145.213 74.0958 144.721 73.7142 144.22L72.1236 145.432C72.5204 145.953 72.9266 146.465 73.3417 146.969L74.8855 145.698ZM71.5438 141.138C71.2022 140.611 70.8701 140.078 70.5476 139.537L68.8299 140.562C69.1654 141.124 69.5109 141.679 69.8661 142.226L71.5438 141.138ZM68.7405 136.229C68.4611 135.667 68.1915 135.099 67.9322 134.525L66.1094 135.348C66.3791 135.946 66.6595 136.536 66.9502 137.12L68.7405 136.229ZM66.5113 131.031C66.2975 130.443 66.094 129.848 65.9011 129.248L63.997 129.859C64.1975 130.484 64.4091 131.102 64.6315 131.714L66.5113 131.031ZM64.883 125.618C64.8094 125.312 64.7385 125.005 64.6702 124.696L62.7174 125.128C62.7883 125.449 62.8621 125.768 62.9386 126.086L64.883 125.618ZM64.6702 124.696C64.6013 124.385 64.5362 124.073 64.4749 123.761L62.5125 124.147C62.5768 124.474 62.6451 124.801 62.7174 125.128L64.6702 124.696ZM63.9179 119.995C63.8547 119.361 63.807 118.728 63.7744 118.097L61.777 118.2C61.8113 118.863 61.8614 119.528 61.9278 120.194L63.9179 119.995ZM63.7605 114.291C63.7888 113.656 63.8322 113.022 63.8906 112.392L61.8991 112.208C61.8378 112.87 61.7921 113.535 61.7625 114.203L63.7605 114.291ZM64.423 108.624C64.542 107.999 64.6758 107.378 64.824 106.762L62.8794 106.295C62.7238 106.942 62.5833 107.593 62.4584 108.249L64.423 108.624ZM65.8897 103.108C66.0965 102.507 66.3172 101.911 66.5518 101.322L64.6935 100.583C64.4473 101.201 64.2155 101.826 63.9985 102.457L65.8897 103.108ZM68.1256 97.8548C68.4152 97.2895 68.718 96.7313 69.0337 96.1806L67.2986 95.1859C66.9673 95.7638 66.6495 96.3497 66.3456 96.943L68.1256 97.8548ZM71.0814 92.97C71.4476 92.4515 71.8261 91.9415 72.2166 91.4406L70.6392 90.2111C70.2293 90.7368 69.8321 91.272 69.4478 91.8162L71.0814 92.97ZM74.6968 88.5514C75.1323 88.0903 75.579 87.639 76.0367 87.1982L74.6492 85.7577C74.1687 86.2205 73.6998 86.6942 73.2427 87.1784L74.6968 88.5514ZM78.9012 84.6907C79.3973 84.2965 79.9036 83.9136 80.4197 83.5423L79.2519 81.9187C78.7098 82.3086 78.1781 82.7108 77.6571 83.1247L78.9012 84.6907ZM83.6125 81.4703C84.1593 81.1516 84.7151 80.8452 85.2796 80.5516L84.3567 78.7773C83.7636 79.0857 83.1798 79.4076 82.6055 79.7423L83.6125 81.4703ZM88.7364 78.9593C89.3225 78.7226 89.9165 78.4991 90.518 78.289L89.8587 76.4008C89.227 76.6214 88.6032 76.8562 87.9876 77.1047L88.7364 78.9593ZM94.1676 77.206C94.476 77.1302 94.7861 77.0577 95.0979 76.9888L94.666 75.036C94.3389 75.1083 94.0135 75.1843 93.6899 75.2639L94.1676 77.206ZM95.0979 76.9888C95.438 76.9136 95.7788 76.8441 96.12 76.7802L95.7522 74.8143C95.3895 74.8822 95.0274 74.956 94.666 75.036L95.0979 76.9888ZM100.259 76.2832C100.955 76.2456 101.65 76.2309 102.344 76.2388L102.367 74.2389C101.629 74.2305 100.89 74.2461 100.151 74.2861L100.259 76.2832ZM106.501 76.5591C107.189 76.6577 107.874 76.7788 108.555 76.9223L108.967 74.9653C108.244 74.8129 107.516 74.6841 106.785 74.5793L106.501 76.5591ZM112.569 78.0471C113.224 78.2778 113.872 78.5301 114.512 78.804L115.299 76.9651C114.618 76.674 113.929 76.4058 113.233 76.1607L112.569 78.0471ZM118.23 80.6905C118.529 80.8675 118.825 81.0497 119.119 81.237L120.194 79.5508C119.882 79.3517 119.567 79.1581 119.25 78.97L118.23 80.6905ZM119.119 81.237C119.412 81.4243 119.702 81.6161 119.989 81.8122L121.119 80.1621C120.814 79.9536 120.506 79.7498 120.194 79.5508L119.119 81.237ZM123.267 84.3877C123.785 84.8528 124.287 85.3341 124.773 85.8306L126.203 84.4327C125.687 83.905 125.154 83.3935 124.603 82.8991L123.267 84.3877ZM127.485 88.9963C127.902 89.5528 128.301 90.1228 128.681 90.7053L130.356 89.6133C129.953 88.9942 129.529 88.3884 129.086 87.797L127.485 88.9963ZM130.724 94.3393C131.024 94.9654 131.304 95.6022 131.563 96.2486L133.419 95.5044C133.144 94.8174 132.847 94.1407 132.528 93.4752L130.724 94.3393ZM132.858 100.211C132.944 100.548 133.024 100.886 133.1 101.226L135.052 100.794C134.973 100.433 134.887 100.073 134.795 99.7159L132.858 100.211ZM133.099 101.225C133.168 101.536 133.23 101.846 133.286 102.157L135.254 101.799C135.193 101.465 135.126 101.13 135.053 100.795L133.099 101.225ZM133.686 105.926C133.705 106.561 133.701 107.193 133.673 107.821L135.671 107.909C135.701 107.231 135.706 106.549 135.685 105.864L133.686 105.926ZM133.221 111.582C133.098 112.204 132.953 112.819 132.785 113.427L134.712 113.96C134.894 113.304 135.051 112.64 135.183 111.969L133.221 111.582ZM131.505 116.994C131.247 117.572 130.968 118.14 130.669 118.696L132.43 119.644C132.753 119.044 133.054 118.431 133.331 117.808L131.505 116.994ZM128.631 121.892C128.252 122.398 127.855 122.891 127.439 123.368L128.948 124.681C129.396 124.166 129.824 123.635 130.232 123.09L128.631 121.892ZM124.745 126.033C124.265 126.441 123.768 126.833 123.256 127.206L124.435 128.822C124.987 128.419 125.523 127.997 126.041 127.556L124.745 126.033ZM120.036 129.202C119.478 129.492 118.907 129.763 118.323 130.013L119.11 131.852C119.74 131.582 120.357 131.29 120.959 130.977L120.036 129.202ZM114.737 131.24C114.432 131.32 114.124 131.394 113.814 131.464L114.248 133.416C114.582 133.341 114.914 133.261 115.243 133.175L114.737 131.24ZM113.818 131.462C113.52 131.527 113.222 131.585 112.924 131.636L113.261 133.607C113.588 133.551 113.916 133.488 114.243 133.417L113.818 131.462ZM109.298 131.924C108.689 131.918 108.082 131.884 107.481 131.823L107.279 133.813C107.94 133.88 108.607 133.917 109.277 133.924L109.298 131.924ZM103.91 131.132C103.326 130.963 102.751 130.769 102.186 130.549L101.461 132.413C102.082 132.655 102.714 132.868 103.356 133.054L103.91 131.132ZM98.9268 128.933C98.4098 128.616 97.9066 128.276 97.419 127.913L96.225 129.517C96.7607 129.916 97.3135 130.29 97.8814 130.638L98.9268 128.933ZM94.7083 125.488C94.2959 125.046 93.9018 124.584 93.5277 124.103L91.9485 125.33C92.3597 125.859 92.7929 126.367 93.2462 126.853L94.7083 125.488ZM91.5631 121.042C91.4232 120.774 91.2888 120.501 91.1599 120.225L89.3472 121.07C89.4886 121.373 89.6362 121.672 89.7898 121.967L91.5631 121.042ZM91.16 120.225C91.1771 120.262 91.1908 120.299 91.2011 120.338L89.2689 120.854C89.2885 120.928 89.3146 121 89.3472 121.07L91.16 120.225ZM91.159 120.809C91.142 120.845 91.1218 120.88 91.0985 120.913L89.4642 119.76C89.4197 119.823 89.3813 119.89 89.349 119.958L91.159 120.809ZM91.0985 120.913C91.0752 120.946 91.0491 120.977 91.0207 121.005L89.6121 119.585C89.5582 119.639 89.5086 119.697 89.4642 119.76L91.0985 120.913ZM90.5911 121.203C90.5513 121.206 90.511 121.206 90.4707 121.202L90.6585 119.211C90.5817 119.204 90.5051 119.203 90.4294 119.209L90.5911 121.203ZM90.4707 121.202C90.4305 121.198 90.3909 121.191 90.3523 121.18L90.8839 119.252C90.8107 119.232 90.7353 119.218 90.6585 119.211L90.4707 121.202ZM89.9673 120.906C89.9446 120.873 89.9248 120.838 89.9081 120.801L91.7291 119.974C91.6972 119.904 91.6594 119.837 91.6164 119.774L89.9673 120.906ZM89.9122 120.81C90.0496 121.105 90.1931 121.395 90.3423 121.681L92.1156 120.757C91.9801 120.497 91.8498 120.233 91.7249 119.965L89.9122 120.81ZM92.4403 124.951C92.84 125.465 93.261 125.958 93.7016 126.431L95.1637 125.066C94.764 124.638 94.3821 124.19 94.0195 123.723L92.4403 124.951ZM96.5967 129.02C97.1174 129.408 97.6546 129.771 98.2065 130.109L99.2519 128.404C98.7509 128.097 98.2633 127.767 97.7907 127.416L96.5967 129.02ZM101.686 131.835C102.289 132.069 102.904 132.277 103.527 132.457L104.082 130.535C103.516 130.372 102.958 130.184 102.41 129.971L101.686 131.835ZM107.341 133.195C107.983 133.26 108.631 133.296 109.282 133.303L109.303 131.303C108.713 131.297 108.125 131.264 107.542 131.205L107.341 133.195ZM113.154 132.995C113.472 132.94 113.791 132.879 114.108 132.81L113.684 130.855C113.395 130.918 113.106 130.974 112.817 131.023L113.154 132.995ZM114.113 132.808C114.44 132.736 114.764 132.657 115.086 132.573L114.58 130.638C114.283 130.716 113.982 130.789 113.679 130.856L114.113 132.808ZM118.865 131.28C119.481 131.016 120.084 130.731 120.672 130.425L119.749 128.65C119.205 128.933 118.648 129.197 118.078 129.441L118.865 131.28ZM124.069 128.319C124.609 127.925 125.132 127.512 125.639 127.082L124.342 125.558C123.874 125.957 123.39 126.339 122.89 126.703L124.069 128.319ZM128.479 124.272C128.917 123.769 129.336 123.25 129.735 122.717L128.133 121.52C127.764 122.013 127.376 122.493 126.971 122.959L128.479 124.272ZM131.883 119.35C132.198 118.763 132.492 118.165 132.763 117.555L130.936 116.741C130.685 117.305 130.413 117.859 130.121 118.402L131.883 119.35ZM134.113 113.795C134.29 113.154 134.444 112.505 134.573 111.85L132.611 111.462C132.491 112.069 132.349 112.669 132.185 113.262L134.113 113.795ZM135.05 107.882C135.079 107.219 135.084 106.553 135.063 105.883L133.064 105.945C133.083 106.564 133.079 107.181 133.052 107.793L135.05 107.882ZM134.642 101.911C134.583 101.584 134.517 101.257 134.445 100.93L132.492 101.359C132.559 101.662 132.62 101.965 132.675 102.268L134.642 101.911ZM134.445 100.928C134.367 100.572 134.282 100.219 134.193 99.8683L132.255 100.363C132.339 100.693 132.418 101.025 132.492 101.36L134.445 100.928ZM132.846 95.7338C132.576 95.0565 132.284 94.3917 131.973 93.7401L130.168 94.6026C130.461 95.2148 130.735 95.8394 130.989 96.4758L132.846 95.7338ZM129.842 89.9476C129.445 89.3379 129.028 88.7433 128.594 88.1644L126.994 89.3647C127.402 89.9086 127.793 90.4672 128.167 91.04L129.842 89.9476ZM125.761 84.864C125.253 84.345 124.728 83.8434 124.188 83.3599L122.854 84.8495C123.361 85.304 123.854 85.7755 124.332 86.2633L125.761 84.864ZM120.767 80.6751C120.169 80.2653 119.557 79.8751 118.933 79.5052L117.913 81.2255C118.499 81.5733 119.075 81.9402 119.637 82.3254L120.767 80.6751ZM115.056 77.5351C114.39 77.2497 113.714 76.9856 113.029 76.7436L112.362 78.6294C113.006 78.8568 113.642 79.105 114.268 79.3734L115.056 77.5351ZM108.841 75.5664C108.133 75.4167 107.419 75.2899 106.698 75.1865L106.414 77.1662C107.091 77.2633 107.762 77.3825 108.428 77.5232L108.841 75.5664ZM102.361 74.8539C101.639 74.8462 100.913 74.8622 100.185 74.9024L100.295 76.8994C100.979 76.8616 101.661 76.8466 102.34 76.8538L102.361 74.8539ZM95.868 75.4251C95.5122 75.4919 95.1562 75.5646 94.8003 75.6433L95.2321 77.5961C95.5672 77.5221 95.9021 77.4537 96.2368 77.3909L95.868 75.4251ZM94.7992 75.6436C94.477 75.7152 94.1566 75.7904 93.8379 75.8691L94.3175 77.8108C94.6211 77.7358 94.9263 77.6641 95.2332 77.5959L94.7992 75.6436ZM90.065 76.9917C89.4427 77.2093 88.8284 77.4408 88.2221 77.6858L88.9714 79.5401C89.5483 79.307 90.133 79.0867 90.7252 78.8796L90.065 76.9917ZM84.6456 79.3337C84.0614 79.6376 83.4862 79.9545 82.9205 80.2841L83.9272 82.0123C84.4655 81.6987 85.0127 81.3971 85.5685 81.108L84.6456 79.3337ZM79.6163 82.4273C79.0821 82.8113 78.5582 83.2073 78.0449 83.6149L79.2885 85.1812C79.7769 84.7934 80.2754 84.4166 80.7837 84.0512L79.6163 82.4273ZM75.0809 86.2078C74.6074 86.6636 74.1452 87.1301 73.6948 87.6069L75.1486 88.9804C75.5773 88.5265 76.0172 88.0825 76.4679 87.6487L75.0809 86.2078ZM71.1293 90.594C70.7255 91.1119 70.3341 91.6392 69.9554 92.1752L71.589 93.3291C71.9495 92.8188 72.3221 92.3169 72.7065 91.8239L71.1293 90.594ZM67.8381 95.4949C67.5117 96.0643 67.1987 96.6415 66.8994 97.2261L68.6796 98.1376C68.9646 97.5811 69.2625 97.0316 69.5733 96.4895L67.8381 95.4949ZM65.2727 100.812C65.0303 101.421 64.8021 102.037 64.5885 102.659L66.4799 103.309C66.6833 102.717 66.9004 102.131 67.1311 101.551L65.2727 100.812ZM63.4873 106.44C63.3342 107.077 63.196 107.719 63.0731 108.365L65.0379 108.739C65.1548 108.124 65.2863 107.513 65.432 106.907L63.4873 106.44ZM62.5231 112.265C62.4628 112.917 62.418 113.572 62.3888 114.23L64.3868 114.319C64.4146 113.693 64.4573 113.07 64.5146 112.449L62.5231 112.265ZM62.4027 118.168C62.4362 118.821 62.4854 119.476 62.5505 120.132L64.5407 119.934C64.4788 119.31 64.432 118.687 64.4001 118.066L62.4027 118.168ZM63.1236 124.026C63.1866 124.348 63.2535 124.671 63.3244 124.993L65.2777 124.563C65.2102 124.256 65.1464 123.949 65.0864 123.642L63.1236 124.026ZM63.3246 124.994C63.3998 125.334 63.4781 125.672 63.5597 126.009L65.5035 125.538C65.4251 125.214 65.3497 124.889 65.2775 124.562L63.3246 124.994ZM64.6962 129.999C64.9133 130.659 65.143 131.313 65.3848 131.959L67.2581 131.259C67.0256 130.637 66.8048 130.009 66.5962 129.374L64.6962 129.999ZM66.9962 135.787C67.2912 136.415 67.5981 137.035 67.9166 137.648L69.6909 136.725C69.3848 136.136 69.0899 135.54 68.8065 134.937L66.9962 135.787ZM69.981 141.251C70.35 141.838 70.7303 142.417 71.1214 142.987L72.7704 141.855C72.3946 141.307 72.0292 140.751 71.6745 140.187L69.981 141.251ZM73.6076 146.312C74.0446 146.85 74.4919 147.378 74.9492 147.897L76.4492 146.574C76.0097 146.076 75.5797 145.568 75.1597 145.051L73.6076 146.312ZM77.8185 150.898C78.3169 151.379 78.8246 151.85 79.3411 152.31L80.6712 150.816C80.1746 150.374 79.6865 149.921 79.2074 149.459L77.8185 150.898ZM82.5493 154.944C83.1014 155.362 83.6616 155.768 84.2297 156.163L85.3716 154.521C84.8254 154.142 84.2867 153.751 83.7558 153.349L82.5493 154.944ZM87.7298 158.396C88.3275 158.744 88.9323 159.081 89.5438 159.405L90.4814 157.639C89.8934 157.327 89.3119 157.003 88.7371 156.668L87.7298 158.396ZM93.2856 161.203C93.9206 161.478 94.5614 161.74 95.2077 161.989L95.9269 160.122C95.3056 159.883 94.6895 159.631 94.079 159.367L93.2856 161.203ZM99.1389 163.325C99.8018 163.521 100.469 163.704 101.141 163.873L101.63 161.934C100.985 161.771 100.343 161.595 99.7058 161.407L99.1389 163.325ZM105.205 164.725C105.887 164.839 106.572 164.94 107.26 165.027L107.511 163.043C106.849 162.959 106.191 162.863 105.536 162.753L105.205 164.725ZM111.398 165.38C112.087 165.41 112.779 165.427 113.473 165.43L113.481 163.43C112.814 163.427 112.149 163.411 111.486 163.382L111.398 165.38ZM117.623 165.277C118.311 165.223 119.001 165.156 119.691 165.074L119.457 163.088C118.793 163.167 118.13 163.231 117.469 163.283L117.623 165.277ZM123.789 164.422C124.128 164.354 124.468 164.283 124.808 164.208L124.376 162.255C124.049 162.327 123.722 162.396 123.396 162.461L123.789 164.422ZM124.807 164.208C125.145 164.133 125.481 164.056 125.817 163.976L125.355 162.031C125.03 162.108 124.704 162.182 124.376 162.255L124.807 164.208ZM129.813 162.891C130.474 162.688 131.13 162.475 131.783 162.252L131.135 160.359C130.503 160.576 129.867 160.782 129.226 160.979L129.813 162.891ZM135.655 160.785C136.293 160.519 136.926 160.243 137.554 159.958L136.726 158.137C136.118 158.414 135.505 158.681 134.887 158.938L135.655 160.785ZM141.266 158.124C141.876 157.798 142.479 157.462 143.076 157.117L142.077 155.385C141.498 155.719 140.913 156.044 140.323 156.36L141.266 158.124ZM146.594 154.933C147.169 154.55 147.737 154.157 148.299 153.756L147.136 152.129C146.592 152.517 146.042 152.897 145.485 153.268L146.594 154.933ZM151.589 151.242C152.124 150.805 152.651 150.36 153.172 149.907L151.858 148.399C151.353 148.839 150.842 149.27 150.324 149.693L151.589 151.242ZM156.204 147.086C156.694 146.6 157.176 146.106 157.65 145.604L156.197 144.231C155.737 144.717 155.27 145.196 154.795 145.667L156.204 147.086ZM160.396 142.504C160.836 141.973 161.268 141.435 161.692 140.889L160.112 139.663C159.702 140.191 159.283 140.713 158.856 141.227L160.396 142.504ZM164.125 137.538C164.512 136.967 164.89 136.39 165.259 135.805L163.568 134.737C163.211 135.303 162.844 135.863 162.469 136.416L164.125 137.538ZM167.356 132.235C167.522 131.932 167.684 131.627 167.845 131.321L166.073 130.393C165.918 130.689 165.76 130.985 165.6 131.278L167.356 132.235ZM167.846 131.32C167.827 131.356 167.805 131.39 167.781 131.421L166.196 130.201C166.15 130.261 166.108 130.326 166.073 130.394L167.846 131.32ZM167.382 131.674C167.343 131.683 167.303 131.688 167.263 131.689L167.182 129.691C167.105 129.694 167.029 129.704 166.955 129.72L167.382 131.674ZM167.263 131.689C167.222 131.691 167.182 131.689 167.143 131.684L167.41 129.702C167.335 129.692 167.259 129.688 167.182 129.691L167.263 131.689ZM166.725 131.464C166.698 131.435 166.673 131.403 166.652 131.368L168.344 130.302C168.303 130.237 168.256 130.176 168.206 130.12L166.725 131.464ZM166.652 131.368C166.63 131.334 166.612 131.298 166.597 131.261L168.449 130.505C168.42 130.435 168.385 130.367 168.344 130.302L166.652 131.368ZM166.579 130.79C166.591 130.752 166.607 130.715 166.626 130.679L168.394 131.614C168.43 131.546 168.459 131.475 168.483 131.403L166.579 130.79ZM166.624 130.682C166.467 130.982 166.308 131.28 166.146 131.576L167.902 132.533C168.069 132.227 168.233 131.92 168.395 131.611L166.624 130.682ZM164.094 135.07C163.732 135.642 163.363 136.207 162.984 136.765L164.64 137.887C165.03 137.311 165.412 136.728 165.785 136.138L164.094 135.07ZM160.603 140.045C160.189 140.579 159.766 141.105 159.335 141.625L160.874 142.902C161.319 142.366 161.755 141.822 162.183 141.271L160.603 140.045ZM156.649 144.658C156.184 145.149 155.713 145.633 155.233 146.108L156.642 147.528C157.136 147.037 157.623 146.539 158.102 146.032L156.649 144.658ZM152.266 148.868C151.757 149.312 151.241 149.748 150.717 150.175L151.982 151.724C152.522 151.283 153.055 150.834 153.58 150.376L152.266 148.868ZM147.498 152.635C146.948 153.028 146.392 153.411 145.83 153.786L146.939 155.45C147.519 155.064 148.093 154.668 148.66 154.263L147.498 152.635ZM142.388 155.924C141.803 156.261 141.212 156.59 140.616 156.909L141.56 158.672C142.175 158.343 142.784 158.004 143.387 157.656L142.388 155.924ZM136.984 158.704C136.37 158.983 135.75 159.253 135.126 159.512L135.895 161.359C136.539 161.091 137.178 160.812 137.812 160.524L136.984 158.704ZM131.337 160.948C130.698 161.166 130.056 161.375 129.409 161.573L129.995 163.485C130.663 163.281 131.326 163.066 131.984 162.84L131.337 160.948ZM125.499 162.636C125.171 162.714 124.841 162.789 124.511 162.862L124.941 164.815C125.282 164.74 125.622 164.662 125.961 164.582L125.499 162.636ZM124.51 162.862C124.213 162.928 123.916 162.991 123.618 163.051L124.016 165.011C124.325 164.949 124.634 164.883 124.943 164.815L124.51 162.862ZM120.024 163.645C119.422 163.722 118.818 163.788 118.213 163.844L118.395 165.835C119.024 165.778 119.652 165.709 120.278 165.629L120.024 163.645ZM114.575 164.043C114.272 164.049 113.968 164.052 113.664 164.052L113.665 166.052C113.981 166.052 114.297 166.049 114.612 166.043L114.575 164.043ZM174.172 94.0467C174.229 94.0467 174.285 94.0537 174.339 94.0672L173.855 96.0079C173.958 96.0334 174.064 96.0467 174.172 96.0467V94.0467ZM174.82 94.4996C174.839 94.5518 174.852 94.6064 174.858 94.6622L172.869 94.8755C172.881 94.9827 172.905 95.0866 172.941 95.1855L174.82 94.4996ZM174.858 94.6618C174.815 94.264 174.768 93.8666 174.718 93.4698L172.734 93.7203C172.783 94.1051 172.828 94.4902 172.869 94.8759L174.858 94.6618ZM173.942 88.7332C173.863 88.3411 173.78 87.9497 173.694 87.559L171.741 87.9908C171.825 88.3695 171.905 88.7489 171.982 89.129L173.942 88.7332ZM173.694 87.559C173.62 87.2262 173.544 86.8942 173.467 86.5631L171.52 87.0198C171.595 87.3426 171.669 87.6663 171.741 87.9908L173.694 87.559ZM172.436 82.6217C172.248 81.969 172.051 81.3199 171.847 80.6748L169.94 81.2786C170.139 81.9076 170.331 82.5404 170.515 83.1768L172.436 82.6217ZM170.518 76.8223C170.279 76.1851 170.033 75.552 169.78 74.9231L167.925 75.6712C168.172 76.2843 168.412 76.9015 168.644 77.5228L170.518 76.8223ZM168.16 71.1861C167.874 70.5689 167.58 69.9563 167.279 69.3482L165.487 70.2362C165.78 70.829 166.067 71.4263 166.346 72.028L168.16 71.1861ZM165.377 65.7457C165.045 65.1528 164.705 64.5648 164.358 63.9819L162.64 65.0043C162.978 65.5727 163.309 66.1459 163.633 66.7239L165.377 65.7457ZM162.187 60.5348C161.811 59.9694 161.428 59.4093 161.037 58.8545L159.401 60.0049C159.782 60.5459 160.156 61.092 160.523 61.6433L162.187 60.5348ZM158.61 55.5825C158.192 55.0474 157.767 54.5179 157.336 53.9941L155.792 55.2655C156.212 55.7762 156.627 56.2926 157.035 56.8144L158.61 55.5825ZM154.668 50.9162C154.21 50.4143 153.746 49.9183 153.276 49.4285L151.833 50.813C152.291 51.2907 152.744 51.7744 153.19 52.2639L154.668 50.9162ZM150.383 46.5612C149.889 46.0955 149.389 45.636 148.884 45.183L147.549 46.6726C148.042 47.1144 148.53 47.5625 149.012 48.0167L150.383 46.5612ZM145.783 42.5422C145.255 42.1151 144.722 41.6948 144.183 41.2811L142.965 42.8671C143.49 43.2705 144.01 43.6805 144.525 44.097L145.783 42.5422ZM140.892 38.8818C140.334 38.4958 139.77 38.1168 139.202 37.7449L138.107 39.4183C138.661 39.781 139.21 40.1506 139.755 40.5271L140.892 38.8818ZM135.739 35.601C135.153 35.2584 134.562 34.923 133.967 34.5951L133.002 36.3466C133.582 36.6664 134.158 36.9934 134.729 37.3275L135.739 35.601ZM130.351 32.7196C129.741 32.4225 129.127 32.133 128.509 31.8512L127.679 33.671C128.282 33.9458 128.881 34.228 129.476 34.5177L130.351 32.7196ZM124.76 30.2559C124.13 30.0062 123.496 29.7644 122.858 29.5306L122.169 31.4083C122.791 31.6363 123.409 31.8721 124.024 32.1155L124.76 30.2559ZM118.998 28.2263C118.35 28.0256 117.699 27.833 117.045 27.6486L116.502 29.5736C117.14 29.7534 117.775 29.9411 118.407 30.1368L118.998 28.2263ZM113.097 26.6444C112.435 26.494 111.77 26.352 111.103 26.2183L110.71 28.1793C111.361 28.3096 112.008 28.4481 112.654 28.5947L113.097 26.6444ZM107.09 25.521C106.419 25.4222 105.746 25.3317 105.071 25.2499L104.83 27.2353C105.488 27.3151 106.145 27.4033 106.799 27.4997L107.09 25.521ZM101.014 24.8636C100.338 24.8168 99.6612 24.7785 98.9824 24.7489L98.8952 26.747C99.557 26.7759 100.217 26.8132 100.875 26.8588L101.014 24.8636ZM94.9088 24.6755C94.5687 24.6781 94.2283 24.6829 93.8875 24.6898L93.9282 26.6894C94.2604 26.6826 94.5924 26.678 94.9239 26.6755L94.9088 24.6755ZM93.888 24.6898C93.9481 24.6886 94.0081 24.6953 94.0661 24.7096L93.5881 26.6517C93.6978 26.6787 93.8118 26.6917 93.9276 26.6894L93.888 24.6898ZM94.5634 25.1874C94.58 25.2448 94.5892 25.3044 94.5904 25.3645L92.5908 25.4052C92.5932 25.5209 92.6108 25.6343 92.6421 25.7429L94.5634 25.1874ZM94.5904 25.3652C94.5916 25.4253 94.5849 25.4852 94.5706 25.5432L92.6286 25.065C92.6016 25.1747 92.5886 25.2887 92.5908 25.4045L94.5904 25.3652ZM94.0928 26.0405C94.0353 26.0571 93.9757 26.0662 93.9156 26.0674L93.8752 24.0678C93.7594 24.0702 93.646 24.0877 93.5374 24.1191L94.0928 26.0405ZM93.914 26.0675C94.2491 26.0612 94.5839 26.0571 94.9182 26.0551L94.9063 24.0552C94.5635 24.0572 94.2204 24.0614 93.8768 24.0678L93.914 26.0675ZM98.9227 26.132C99.59 26.1617 100.255 26.1998 100.919 26.2461L101.058 24.251C100.378 24.2035 99.6957 24.1644 99.0116 24.134L98.9227 26.132ZM104.907 26.6266C105.571 26.707 106.232 26.7957 106.892 26.8927L107.183 24.914C106.507 24.8145 105.828 24.7235 105.147 24.6411L104.907 26.6266ZM110.836 27.5758C111.492 27.7067 112.145 27.8458 112.796 27.993L113.237 26.0423C112.57 25.8913 111.9 25.7487 111.228 25.6145L110.836 27.5758ZM116.677 28.9759C117.321 29.1564 117.961 29.3449 118.598 29.5413L119.187 27.6301C118.534 27.4286 117.877 27.2353 117.218 27.0502L116.677 28.9759ZM122.393 30.8182C123.02 31.0472 123.644 31.284 124.264 31.5285L124.998 29.6679C124.362 29.4172 123.722 29.1744 123.079 28.9395L122.393 30.8182ZM127.952 33.0916C128.56 33.3678 129.164 33.6516 129.764 33.9428L130.637 32.1435C130.022 31.8449 129.402 31.5539 128.779 31.2707L127.952 33.0916ZM133.321 35.782C133.906 36.1037 134.487 36.4327 135.063 36.7689L136.071 35.0413C135.48 34.6966 134.884 34.3592 134.284 34.0293L133.321 35.782ZM138.47 38.8732C139.029 39.2384 139.584 39.6105 140.133 39.9896L141.269 38.3434C140.705 37.9548 140.137 37.5732 139.564 37.1988L138.47 38.8732ZM143.37 42.3465C143.9 42.7529 144.424 43.166 144.943 43.5857L146.201 42.0304C145.669 41.6001 145.131 41.1766 144.588 40.7599L143.37 42.3465ZM147.993 46.1814C148.49 46.6268 148.981 47.0785 149.467 47.5364L150.839 46.0811C150.341 45.6115 149.837 45.1484 149.327 44.6918L147.993 46.1814ZM152.311 50.356C152.772 50.8378 153.228 51.3256 153.678 51.8193L155.157 50.4723C154.695 49.9661 154.228 49.466 153.754 48.972L152.311 50.356ZM156.299 54.8469C156.723 55.3621 157.14 55.8829 157.551 56.4094L159.127 55.1789C158.706 54.639 158.278 54.105 157.844 53.5767L156.299 54.8469ZM159.934 59.6282C160.316 60.1739 160.693 60.7249 161.062 61.2811L162.728 60.1744C162.349 59.6041 161.963 59.039 161.571 58.4795L159.934 59.6282ZM163.192 64.672C163.532 65.2454 163.865 65.8237 164.192 66.4069L165.937 65.4308C165.603 64.8328 165.261 64.2397 164.912 63.6517L163.192 64.672ZM166.056 69.9502C166.351 70.5482 166.639 71.1508 166.92 71.7579L168.735 70.9182C168.447 70.2956 168.152 69.6777 167.849 69.0644L166.056 69.9502ZM168.508 75.4327C168.756 76.0511 168.997 76.6736 169.231 77.3003L171.105 76.6017C170.866 75.9591 170.618 75.3207 170.363 74.6866L168.508 75.4327ZM170.535 81.0883C170.735 81.7225 170.928 82.3605 171.113 83.0023L173.034 82.4481C172.845 81.7902 172.647 81.136 172.442 80.4857L170.535 81.0883ZM172.125 86.8774C172.201 87.203 172.276 87.5294 172.348 87.8567L174.301 87.4247C174.227 87.0892 174.15 86.7546 174.072 86.4209L172.125 86.8774ZM172.348 87.8566C172.433 88.239 172.514 88.6222 172.591 89.006L174.552 88.6102C174.472 88.2144 174.388 87.8192 174.301 87.4248L172.348 87.8566ZM173.351 93.6427C173.4 94.0312 173.446 94.4202 173.488 94.8097L175.476 94.5956C175.433 94.194 175.386 93.7928 175.335 93.3921L173.351 93.6427ZM173.487 94.8091C173.484 94.7791 173.483 94.749 173.484 94.7191L175.483 94.7674C175.485 94.7105 175.482 94.6533 175.476 94.5961L173.487 94.8091ZM173.584 94.3768C173.6 94.3513 173.617 94.3266 173.636 94.3031L175.193 95.5587C175.229 95.514 175.262 95.4671 175.292 95.4185L173.584 94.3768ZM173.636 94.3031C173.655 94.2796 173.676 94.2575 173.697 94.2368L175.077 95.6849C175.118 95.6456 175.157 95.6035 175.193 95.5587L173.636 94.3031ZM174.011 94.066C174.04 94.0589 174.069 94.0538 174.099 94.0506L174.312 96.0392C174.369 96.0331 174.426 96.0232 174.481 96.0098L174.011 94.066ZM174.044 94.058C174.06 94.0554 174.074 94.0535 174.087 94.052L174.313 96.0393C174.33 96.0374 174.348 96.0349 174.367 96.0318L174.044 94.058ZM174.173 94.0467C174.174 94.0467 174.174 94.0467 174.172 94.0467V96.0467C174.174 96.0467 174.178 96.0467 174.182 96.0467L174.173 94.0467ZM2.6715 145.046C2.7237 145.046 2.77548 145.052 2.8258 145.063L2.37819 147.013C2.47335 147.034 2.57169 147.046 2.6715 147.046V145.046ZM3.29456 145.44C3.31656 145.486 3.33345 145.535 3.34466 145.586L1.39173 146.018C1.41321 146.115 1.44541 146.208 1.48712 146.296L3.29456 145.44ZM3.34445 145.585C3.27295 145.263 3.20312 144.941 3.13494 144.618L1.17821 145.032C1.24777 145.361 1.31901 145.69 1.39195 146.019L3.34445 145.585ZM2.39503 140.738C2.28461 140.089 2.18082 139.439 2.08365 138.789L0.105648 139.085C0.204791 139.748 0.310677 140.411 0.423336 141.073L2.39503 140.738ZM1.5777 134.871C1.50641 134.216 1.44177 133.561 1.38376 132.906L-0.608444 133.082C-0.549253 133.751 -0.483304 134.419 -0.410568 135.088L1.5777 134.871ZM1.11436 128.966C1.08259 128.308 1.05746 127.649 1.03895 126.991L-0.960262 127.048C-0.941372 127.719 -0.915734 128.391 -0.883314 129.062L1.11436 128.966ZM1.00708 123.042C1.01499 122.383 1.0295 121.725 1.0506 121.068L-0.948375 121.003C-0.969896 121.674 -0.984705 122.346 -0.992771 123.018L1.00708 123.042ZM1.2564 117.123C1.3039 116.466 1.35795 115.81 1.41854 115.155L-0.572956 114.971C-0.634774 115.639 -0.689931 116.309 -0.738394 116.979L1.2564 117.123ZM1.86114 111.23C1.94803 110.577 2.04142 109.926 2.14128 109.275L0.164454 108.972C0.0625637 109.635 -0.0327232 110.3 -0.121374 110.966L1.86114 111.23ZM2.81884 105.384C2.94478 104.738 3.07717 104.093 3.21595 103.449L1.26091 103.028C1.11931 103.684 0.984248 104.342 0.85575 105.002L2.81884 105.384ZM4.12583 99.6058C4.29032 98.9682 4.46116 98.3323 4.63832 97.6983L2.7121 97.16C2.53135 97.8069 2.35705 98.4557 2.18924 99.1062L4.12583 99.6058ZM5.77717 93.9162C5.97956 93.2897 6.18821 92.6653 6.4031 92.043L4.51263 91.3902C4.2934 92.0251 4.08052 92.6622 3.87402 93.3013L5.77717 93.9162ZM7.76674 88.3361C8.00633 87.7229 8.25208 87.1121 8.50395 86.5037L6.65605 85.7386C6.39907 86.3594 6.14834 86.9826 5.9039 87.6082L7.76674 88.3361ZM10.0875 82.8853C10.3634 82.2877 10.6454 81.6927 10.9333 81.1004L9.13468 80.2258C8.84086 80.8301 8.55318 81.4372 8.27166 82.0469L10.0875 82.8853ZM12.7313 77.5835C13.0425 77.0037 13.3596 76.4269 13.6826 75.853L11.9397 74.872C11.6101 75.4575 11.2866 76.0461 10.9691 76.6376L12.7313 77.5835ZM15.6886 72.4502C16.034 71.8904 16.3851 71.3337 16.7421 70.7802L15.0613 69.6963C14.6971 70.261 14.3388 70.829 13.9864 71.4002L15.6886 72.4502ZM18.9489 67.5045C19.3274 66.9663 19.7115 66.4316 20.1012 65.9004L18.4887 64.7173C18.091 65.2593 17.6991 65.8049 17.313 66.354L18.9489 67.5045ZM22.5009 62.7636C22.9112 62.2491 23.327 61.7382 23.7483 61.231L22.2099 59.9531C21.78 60.4705 21.3558 60.9918 20.9371 61.5168L22.5009 62.7636ZM26.3321 58.2447C26.7723 57.7561 27.2178 57.2713 27.6687 56.7906L26.2099 55.4224C25.7499 55.9129 25.2953 56.4075 24.8461 56.906L26.3321 58.2447ZM30.4285 53.9638C30.8968 53.5029 31.3702 53.0462 31.8488 52.5937L30.4748 51.1404C29.9865 51.6021 29.5034 52.0681 29.0257 52.5382L30.4285 53.9638ZM34.7728 49.9378C35.0211 49.7211 35.2707 49.5055 35.5215 49.2911L34.2218 47.771C33.9659 47.9898 33.7113 48.2098 33.4579 48.4308L34.7728 49.9378ZM35.5271 49.2863C35.4965 49.3128 35.4638 49.3365 35.4295 49.357L34.4019 47.6412C34.3367 47.6802 34.2745 47.7252 34.2162 47.7758L35.5271 49.2863ZM34.9648 49.446C34.9253 49.4395 34.8862 49.4296 34.848 49.4163L35.5084 47.5285C35.4355 47.503 35.3611 47.4842 35.2861 47.472L34.9648 49.446ZM34.848 49.4163C34.8098 49.4029 34.773 49.3863 34.7382 49.3667L35.7174 47.6228C35.6511 47.5856 35.5812 47.5539 35.5084 47.5285L34.848 49.4163ZM34.4302 49.0074C34.4162 48.97 34.4054 48.9311 34.398 48.8913L36.3646 48.5273C36.3505 48.4514 36.3299 48.3775 36.3033 48.3063L34.4302 49.0074ZM34.398 48.8913C34.3906 48.8516 34.3868 48.8114 34.3865 48.7714L36.3864 48.7556C36.3858 48.6796 36.3786 48.6032 36.3646 48.5273L34.398 48.8913ZM34.5455 48.3257C34.571 48.2949 34.5994 48.2662 34.6302 48.2401L35.9227 49.7664C35.9816 49.7165 36.0355 49.662 36.084 49.6035L34.5455 48.3257ZM34.6266 48.2432C34.3723 48.4607 34.1192 48.6792 33.8675 48.8989L35.1824 50.4059C35.4291 50.1906 35.6771 49.9764 35.9263 49.7633L34.6266 48.2432ZM30.9027 51.5918C30.4175 52.0506 29.9374 52.5137 29.4626 52.981L30.8654 54.4065C31.3307 53.9486 31.8012 53.4948 32.2768 53.0451L30.9027 51.5918ZM26.6641 55.8474C26.2069 56.3348 25.7552 56.8263 25.3088 57.3218L26.7947 58.6605C27.2322 58.1749 27.6749 57.6933 28.1229 57.2156L26.6641 55.8474ZM22.6888 60.35C22.2616 60.8643 21.84 61.3823 21.4239 61.9041L22.9877 63.151C23.3954 62.6396 23.8086 62.132 24.2272 61.628L22.6888 60.35ZM18.9906 65.0849C18.5954 65.6235 18.2059 66.1657 17.8221 66.7114L19.458 67.8619C19.8341 67.3272 20.2158 66.7958 20.6031 66.268L18.9906 65.0849ZM15.5843 70.0331C15.2224 70.5943 14.8663 71.1588 14.5161 71.7265L16.2183 72.7766C16.5615 72.2202 16.9104 71.667 17.2651 71.1171L15.5843 70.0331ZM12.4819 75.1769C12.1544 75.7588 11.8329 76.3437 11.5173 76.9316L13.2795 77.8775C13.5887 77.3014 13.9039 76.7281 14.2248 76.1579L12.4819 75.1769ZM9.69425 80.4977C9.40224 81.0983 9.11633 81.7016 8.83655 82.3075L10.6524 83.1459C10.9265 82.552 11.2067 81.9608 11.4929 81.3722L9.69425 80.4977ZM7.2309 85.9765C6.9755 86.5934 6.72632 87.2127 6.48339 87.8344L8.34623 88.5623C8.58431 87.953 8.82851 87.3461 9.0788 86.7415L7.2309 85.9765ZM5.1007 91.5931C4.88282 92.2241 4.67125 92.8573 4.46603 93.4925L6.36917 94.1073C6.57029 93.4848 6.77763 92.8643 6.99116 92.2459L5.1007 91.5931ZM3.31127 97.3273C3.13163 97.9702 2.95841 98.615 2.79163 99.2615L4.72822 99.7611C4.89167 99.1275 5.06144 98.4956 5.23748 97.8656L3.31127 97.3273ZM1.86903 103.159C1.7283 103.811 1.59406 104.465 1.46636 105.121L3.42945 105.503C3.5546 104.861 3.68615 104.22 3.82406 103.58L1.86903 103.159ZM0.77932 109.066C0.678056 109.726 0.583356 110.386 0.495251 111.048L2.47776 111.312C2.56411 110.664 2.65691 110.016 2.75615 109.37L0.77932 109.066ZM0.0464469 115.028C-0.0149914 115.693 -0.0698091 116.358 -0.117974 117.024L1.87682 117.168C1.92402 116.515 1.97774 115.864 2.03795 115.213L0.0464469 115.028ZM-0.326669 121.024C-0.348058 121.69 -0.362777 122.358 -0.370795 123.026L1.62906 123.05C1.63692 122.395 1.65134 121.741 1.6723 121.088L-0.326669 121.024ZM-0.338496 127.031C-0.319724 127.698 -0.294245 128.365 -0.262028 129.033L1.73565 128.936C1.70408 128.282 1.67911 127.628 1.66071 126.974L-0.338496 127.031ZM0.0111365 133.028C0.0699612 133.692 0.135501 134.356 0.207787 135.021L2.19605 134.805C2.12521 134.153 2.06099 133.502 2.00334 132.851L0.0111365 133.028ZM0.720807 138.994C0.819336 139.653 0.924567 140.311 1.03653 140.97L3.00822 140.634C2.8985 139.989 2.79537 139.344 2.69881 138.698L0.720807 138.994ZM1.78674 144.904C1.85586 145.231 1.92667 145.558 1.99916 145.884L3.95166 145.451C3.88061 145.131 3.81122 144.811 3.74347 144.49L1.78674 144.904ZM1.9992 145.885C1.99172 145.851 1.98682 145.817 1.98446 145.783L3.97966 145.644C3.97516 145.58 3.96585 145.515 3.95162 145.451L1.9992 145.885ZM2.07662 145.388C2.09381 145.358 2.11326 145.33 2.13485 145.303L3.69368 146.556C3.73479 146.505 3.77176 146.451 3.80442 146.395L2.07662 145.388ZM2.13485 145.303C2.15652 145.276 2.18009 145.251 2.20528 145.228L3.55996 146.699C3.60774 146.655 3.65247 146.607 3.69367 146.556L2.13485 145.303ZM2.57011 145.053C2.60355 145.048 2.63744 145.046 2.6715 145.046V147.046C2.73671 147.046 2.80148 147.041 2.8653 147.031L2.57011 145.053Z" fill="#919EAB" mask="url(#path-1-inside-1_246_2526)"/>
</g>
<g filter="url(#filter0_iiii_246_2526)">
<path d="M8.89068 88.2042C11.2951 88.2042 13.2443 86.2551 13.2443 83.8506C13.2443 81.4462 11.2951 79.4971 8.89068 79.4971C6.48627 79.4971 4.53711 81.4462 4.53711 83.8506C4.53711 86.2551 6.48627 88.2042 8.89068 88.2042Z" fill="#F04438"/>
</g>
<g filter="url(#filter1_iiii_246_2526)">
<path d="M149.616 50.8575C152.021 50.8575 153.97 48.9084 153.97 46.504C153.97 44.0996 152.021 42.1504 149.616 42.1504C147.212 42.1504 145.263 44.0996 145.263 46.504C145.263 48.9084 147.212 50.8575 149.616 50.8575Z" fill="#FFCD1B"/>
</g>
<g filter="url(#filter2_iiii_246_2526)">
<path d="M100.143 166.647C102.547 166.647 104.496 164.697 104.496 162.293C104.496 159.889 102.547 157.939 100.143 157.939C97.7382 157.939 95.7891 159.889 95.7891 162.293C95.7891 164.697 97.7382 166.647 100.143 166.647Z" fill="#2E90FA"/>
</g>
<g filter="url(#filter3_di_246_2526)">
<rect x="34.7373" y="12.6768" width="58.9474" height="50.5263" rx="8" fill="white"/>
</g>
<g filter="url(#filter4_i_246_2526)">
<rect x="42.1055" y="16.8877" width="12.6316" height="14.7368" rx="4" fill="#27AE60"/>
</g>
<rect opacity="0.8" x="61.0527" y="21.0977" width="16.8421" height="3.15789" rx="1.57895" fill="#919EAB"/>
<rect opacity="0.8" x="61.0527" y="27.4141" width="25.2632" height="3.15789" rx="1.57895" fill="#919EAB"/>
<rect opacity="0.24" x="42.1055" y="43.2031" width="44.2105" height="3.15789" rx="1.57895" fill="#919EAB"/>
<rect opacity="0.24" x="42.1055" y="49.5186" width="44.2105" height="3.15789" rx="1.57895" fill="#919EAB"/>
<rect opacity="0.24" x="42.1055" y="36.8877" width="44.2105" height="3.15789" rx="1.57895" fill="#919EAB"/>
<g filter="url(#filter5_di_246_2526)">
<rect x="149.474" y="94.7822" width="50.5263" height="40" rx="6" fill="white"/>
</g>
<g filter="url(#filter6_i_246_2526)">
<rect x="156.842" y="100.045" width="9.47368" height="10.5263" rx="3" fill="#C4CDD5"/>
</g>
<rect opacity="0.8" x="170.526" y="101.098" width="12.6316" height="3.15789" rx="1.57895" fill="#919EAB"/>
<rect opacity="0.8" x="170.526" y="107.414" width="22.1053" height="3.15789" rx="1.57895" fill="#919EAB"/>
<rect opacity="0.24" x="156.842" y="114.782" width="35.7895" height="3.15789" rx="1.57895" fill="#919EAB"/>
<rect opacity="0.24" x="156.842" y="121.098" width="35.7895" height="3.15789" rx="1.57895" fill="#919EAB"/>
<g filter="url(#filter7_di_246_2526)">
<rect x="76.8418" y="97.9395" width="27.3684" height="23.1579" rx="6" fill="white"/>
</g>
<rect opacity="0.8" x="82.1045" y="103.202" width="16.8421" height="3.15789" rx="1.57895" fill="#919EAB"/>
<rect opacity="0.24" x="82.1045" y="109.519" width="12.6316" height="3.15789" rx="1.57895" fill="#919EAB"/>
<defs>
<filter id="filter0_iiii_246_2526" x="4.53711" y="74.4971" width="10.707" height="15.707" filterUnits="userSpaceOnUse" color-interpolation-filters="sRGB">
<feFlood flood-opacity="0" result="BackgroundImageFix"/>
<feBlend mode="normal" in="SourceGraphic" in2="BackgroundImageFix" result="shape"/>
<feColorMatrix in="SourceAlpha" type="matrix" values="0 0 0 0 0 0 0 0 0 0 0 0 0 0 0 0 0 0 127 0" result="hardAlpha"/>
<feOffset dy="-2"/>
<feGaussianBlur stdDeviation="0.5"/>
<feComposite in2="hardAlpha" operator="arithmetic" k2="-1" k3="1"/>
<feColorMatrix type="matrix" values="0 0 0 0 0.717647 0 0 0 0 0.113725 0 0 0 0 0.0941176 0 0 0 0.6 0"/>
<feBlend mode="normal" in2="shape" result="effect1_innerShadow_246_2526"/>
<feColorMatrix in="SourceAlpha" type="matrix" values="0 0 0 0 0 0 0 0 0 0 0 0 0 0 0 0 0 0 127 0" result="hardAlpha"/>
<feOffset dy="-5"/>
<feGaussianBlur stdDeviation="7"/>
<feComposite in2="hardAlpha" operator="arithmetic" k2="-1" k3="1"/>
<feColorMatrix type="matrix" values="0 0 0 0 1 0 0 0 0 0.337255 0 0 0 0 0.188235 0 0 0 0.3 0"/>
<feBlend mode="normal" in2="effect1_innerShadow_246_2526" result="effect2_innerShadow_246_2526"/>
<feColorMatrix in="SourceAlpha" type="matrix" values="0 0 0 0 0 0 0 0 0 0 0 0 0 0 0 0 0 0 127 0" result="hardAlpha"/>
<feOffset/>
<feGaussianBlur stdDeviation="1"/>
<feComposite in2="hardAlpha" operator="arithmetic" k2="-1" k3="1"/>
<feColorMatrix type="matrix" values="0 0 0 0 1 0 0 0 0 0.337255 0 0 0 0 0.188235 0 0 0 0.5 0"/>
<feBlend mode="normal" in2="effect2_innerShadow_246_2526" result="effect3_innerShadow_246_2526"/>
<feColorMatrix in="SourceAlpha" type="matrix" values="0 0 0 0 0 0 0 0 0 0 0 0 0 0 0 0 0 0 127 0" result="hardAlpha"/>
<feOffset dx="2" dy="2"/>
<feGaussianBlur stdDeviation="1"/>
<feComposite in2="hardAlpha" operator="arithmetic" k2="-1" k3="1"/>
<feColorMatrix type="matrix" values="0 0 0 0 1 0 0 0 0 0.337255 0 0 0 0 0.188235 0 0 0 0.3 0"/>
<feBlend mode="normal" in2="effect3_innerShadow_246_2526" result="effect4_innerShadow_246_2526"/>
</filter>
<filter id="filter1_iiii_246_2526" x="145.263" y="37.1504" width="10.707" height="15.707" filterUnits="userSpaceOnUse" color-interpolation-filters="sRGB">
<feFlood flood-opacity="0" result="BackgroundImageFix"/>
<feBlend mode="normal" in="SourceGraphic" in2="BackgroundImageFix" result="shape"/>
<feColorMatrix in="SourceAlpha" type="matrix" values="0 0 0 0 0 0 0 0 0 0 0 0 0 0 0 0 0 0 127 0" result="hardAlpha"/>
<feOffset dy="-2"/>
<feGaussianBlur stdDeviation="0.5"/>
<feComposite in2="hardAlpha" operator="arithmetic" k2="-1" k3="1"/>
<feColorMatrix type="matrix" values="0 0 0 0 0.717647 0 0 0 0 0.431373 0 0 0 0 0 0 0 0 0.6 0"/>
<feBlend mode="normal" in2="shape" result="effect1_innerShadow_246_2526"/>
<feColorMatrix in="SourceAlpha" type="matrix" values="0 0 0 0 0 0 0 0 0 0 0 0 0 0 0 0 0 0 127 0" result="hardAlpha"/>
<feOffset dy="-5"/>
<feGaussianBlur stdDeviation="7"/>
<feComposite in2="hardAlpha" operator="arithmetic" k2="-1" k3="1"/>
<feColorMatrix type="matrix" values="0 0 0 0 1 0 0 0 0 0.670588 0 0 0 0 0 0 0 0 0.3 0"/>
<feBlend mode="normal" in2="effect1_innerShadow_246_2526" result="effect2_innerShadow_246_2526"/>
<feColorMatrix in="SourceAlpha" type="matrix" values="0 0 0 0 0 0 0 0 0 0 0 0 0 0 0 0 0 0 127 0" result="hardAlpha"/>
<feOffset/>
<feGaussianBlur stdDeviation="1"/>
<feComposite in2="hardAlpha" operator="arithmetic" k2="-1" k3="1"/>
<feColorMatrix type="matrix" values="0 0 0 0 1 0 0 0 0 0.670588 0 0 0 0 0 0 0 0 0.5 0"/>
<feBlend mode="normal" in2="effect2_innerShadow_246_2526" result="effect3_innerShadow_246_2526"/>
<feColorMatrix in="SourceAlpha" type="matrix" values="0 0 0 0 0 0 0 0 0 0 0 0 0 0 0 0 0 0 127 0" result="hardAlpha"/>
<feOffset dx="2" dy="2"/>
<feGaussianBlur stdDeviation="1"/>
<feComposite in2="hardAlpha" operator="arithmetic" k2="-1" k3="1"/>
<feColorMatrix type="matrix" values="0 0 0 0 1 0 0 0 0 0.670588 0 0 0 0 0 0 0 0 0.3 0"/>
<feBlend mode="normal" in2="effect3_innerShadow_246_2526" result="effect4_innerShadow_246_2526"/>
</filter>
<filter id="filter2_iiii_246_2526" x="95.7891" y="152.939" width="10.707" height="15.707" filterUnits="userSpaceOnUse" color-interpolation-filters="sRGB">
<feFlood flood-opacity="0" result="BackgroundImageFix"/>
<feBlend mode="normal" in="SourceGraphic" in2="BackgroundImageFix" result="shape"/>
<feColorMatrix in="SourceAlpha" type="matrix" values="0 0 0 0 0 0 0 0 0 0 0 0 0 0 0 0 0 0 127 0" result="hardAlpha"/>
<feOffset dy="-2"/>
<feGaussianBlur stdDeviation="0.5"/>
<feComposite in2="hardAlpha" operator="arithmetic" k2="-1" k3="1"/>
<feColorMatrix type="matrix" values="0 0 0 0 0.0117647 0 0 0 0 0.317647 0 0 0 0 0.670588 0 0 0 0.6 0"/>
<feBlend mode="normal" in2="shape" result="effect1_innerShadow_246_2526"/>
<feColorMatrix in="SourceAlpha" type="matrix" values="0 0 0 0 0 0 0 0 0 0 0 0 0 0 0 0 0 0 127 0" result="hardAlpha"/>
<feOffset dy="-5"/>
<feGaussianBlur stdDeviation="7"/>
<feComposite in2="hardAlpha" operator="arithmetic" k2="-1" k3="1"/>
<feColorMatrix type="matrix" values="0 0 0 0 0.407843 0 0 0 0 0.803922 0 0 0 0 0.976471 0 0 0 0.3 0"/>
<feBlend mode="normal" in2="effect1_innerShadow_246_2526" result="effect2_innerShadow_246_2526"/>
<feColorMatrix in="SourceAlpha" type="matrix" values="0 0 0 0 0 0 0 0 0 0 0 0 0 0 0 0 0 0 127 0" result="hardAlpha"/>
<feOffset/>
<feGaussianBlur stdDeviation="1"/>
<feComposite in2="hardAlpha" operator="arithmetic" k2="-1" k3="1"/>
<feColorMatrix type="matrix" values="0 0 0 0 0.407843 0 0 0 0 0.803922 0 0 0 0 0.976471 0 0 0 0.5 0"/>
<feBlend mode="normal" in2="effect2_innerShadow_246_2526" result="effect3_innerShadow_246_2526"/>
<feColorMatrix in="SourceAlpha" type="matrix" values="0 0 0 0 0 0 0 0 0 0 0 0 0 0 0 0 0 0 127 0" result="hardAlpha"/>
<feOffset dx="2" dy="2"/>
<feGaussianBlur stdDeviation="1"/>
<feComposite in2="hardAlpha" operator="arithmetic" k2="-1" k3="1"/>
<feColorMatrix type="matrix" values="0 0 0 0 0.407843 0 0 0 0 0.803922 0 0 0 0 0.976471 0 0 0 0.3 0"/>
<feBlend mode="normal" in2="effect3_innerShadow_246_2526" result="effect4_innerShadow_246_2526"/>
</filter>
<filter id="filter3_di_246_2526" x="6.7373" y="0.676758" width="98.9473" height="90.5264" filterUnits="userSpaceOnUse" color-interpolation-filters="sRGB">
<feFlood flood-opacity="0" result="BackgroundImageFix"/>
<feColorMatrix in="SourceAlpha" type="matrix" values="0 0 0 0 0 0 0 0 0 0 0 0 0 0 0 0 0 0 127 0" result="hardAlpha"/>
<feOffset dx="-8" dy="8"/>
<feGaussianBlur stdDeviation="10"/>
<feComposite in2="hardAlpha" operator="out"/>
<feColorMatrix type="matrix" values="0 0 0 0 0.270588 0 0 0 0 0.309804 0 0 0 0 0.356863 0 0 0 0.12 0"/>
<feBlend mode="normal" in2="BackgroundImageFix" result="effect1_dropShadow_246_2526"/>
<feBlend mode="normal" in="SourceGraphic" in2="effect1_dropShadow_246_2526" result="shape"/>
<feColorMatrix in="SourceAlpha" type="matrix" values="0 0 0 0 0 0 0 0 0 0 0 0 0 0 0 0 0 0 127 0" result="hardAlpha"/>
<feOffset dx="1" dy="-3"/>
<feComposite in2="hardAlpha" operator="arithmetic" k2="-1" k3="1"/>
<feColorMatrix type="matrix" values="0 0 0 0 0.270588 0 0 0 0 0.309804 0 0 0 0 0.356863 0 0 0 0.12 0"/>
<feBlend mode="normal" in2="shape" result="effect2_innerShadow_246_2526"/>
</filter>
<filter id="filter4_i_246_2526" x="42.1055" y="15.8877" width="12.6318" height="15.7373" filterUnits="userSpaceOnUse" color-interpolation-filters="sRGB">
<feFlood flood-opacity="0" result="BackgroundImageFix"/>
<feBlend mode="normal" in="SourceGraphic" in2="BackgroundImageFix" result="shape"/>
<feColorMatrix in="SourceAlpha" type="matrix" values="0 0 0 0 0 0 0 0 0 0 0 0 0 0 0 0 0 0 127 0" result="hardAlpha"/>
<feOffset dy="-1.5"/>
<feGaussianBlur stdDeviation="0.5"/>
<feComposite in2="hardAlpha" operator="arithmetic" k2="-1" k3="1"/>
<feColorMatrix type="matrix" values="0 0 0 0 0 0 0 0 0 0 0 0 0 0 0 0 0 0 0.08 0"/>
<feBlend mode="normal" in2="shape" result="effect1_innerShadow_246_2526"/>
</filter>
<filter id="filter5_di_246_2526" x="121.474" y="82.7822" width="90.5264" height="80" filterUnits="userSpaceOnUse" color-interpolation-filters="sRGB">
<feFlood flood-opacity="0" result="BackgroundImageFix"/>
<feColorMatrix in="SourceAlpha" type="matrix" values="0 0 0 0 0 0 0 0 0 0 0 0 0 0 0 0 0 0 127 0" result="hardAlpha"/>
<feOffset dx="-8" dy="8"/>
<feGaussianBlur stdDeviation="10"/>
<feComposite in2="hardAlpha" operator="out"/>
<feColorMatrix type="matrix" values="0 0 0 0 0.270588 0 0 0 0 0.309804 0 0 0 0 0.356863 0 0 0 0.12 0"/>
<feBlend mode="normal" in2="BackgroundImageFix" result="effect1_dropShadow_246_2526"/>
<feBlend mode="normal" in="SourceGraphic" in2="effect1_dropShadow_246_2526" result="shape"/>
<feColorMatrix in="SourceAlpha" type="matrix" values="0 0 0 0 0 0 0 0 0 0 0 0 0 0 0 0 0 0 127 0" result="hardAlpha"/>
<feOffset dx="1" dy="-3"/>
<feComposite in2="hardAlpha" operator="arithmetic" k2="-1" k3="1"/>
<feColorMatrix type="matrix" values="0 0 0 0 0.270588 0 0 0 0 0.309804 0 0 0 0 0.356863 0 0 0 0.12 0"/>
<feBlend mode="normal" in2="shape" result="effect2_innerShadow_246_2526"/>
</filter>
<filter id="filter6_i_246_2526" x="156.842" y="99.0449" width="9.47363" height="11.5264" filterUnits="userSpaceOnUse" color-interpolation-filters="sRGB">
<feFlood flood-opacity="0" result="BackgroundImageFix"/>
<feBlend mode="normal" in="SourceGraphic" in2="BackgroundImageFix" result="shape"/>
<feColorMatrix in="SourceAlpha" type="matrix" values="0 0 0 0 0 0 0 0 0 0 0 0 0 0 0 0 0 0 127 0" result="hardAlpha"/>
<feOffset dy="-1"/>
<feGaussianBlur stdDeviation="0.5"/>
<feComposite in2="hardAlpha" operator="arithmetic" k2="-1" k3="1"/>
<feColorMatrix type="matrix" values="0 0 0 0 0 0 0 0 0 0 0 0 0 0 0 0 0 0 0.08 0"/>
<feBlend mode="normal" in2="shape" result="effect1_innerShadow_246_2526"/>
</filter>
<filter id="filter7_di_246_2526" x="48.8418" y="85.9395" width="67.3682" height="63.1582" filterUnits="userSpaceOnUse" color-interpolation-filters="sRGB">
<feFlood flood-opacity="0" result="BackgroundImageFix"/>
<feColorMatrix in="SourceAlpha" type="matrix" values="0 0 0 0 0 0 0 0 0 0 0 0 0 0 0 0 0 0 127 0" result="hardAlpha"/>
<feOffset dx="-8" dy="8"/>
<feGaussianBlur stdDeviation="10"/>
<feComposite in2="hardAlpha" operator="out"/>
<feColorMatrix type="matrix" values="0 0 0 0 0.270588 0 0 0 0 0.309804 0 0 0 0 0.356863 0 0 0 0.12 0"/>
<feBlend mode="normal" in2="BackgroundImageFix" result="effect1_dropShadow_246_2526"/>
<feBlend mode="normal" in="SourceGraphic" in2="effect1_dropShadow_246_2526" result="shape"/>
<feColorMatrix in="SourceAlpha" type="matrix" values="0 0 0 0 0 0 0 0 0 0 0 0 0 0 0 0 0 0 127 0" result="hardAlpha"/>
<feOffset dx="1" dy="-2"/>
<feComposite in2="hardAlpha" operator="arithmetic" k2="-1" k3="1"/>
<feColorMatrix type="matrix" values="0 0 0 0 0.270588 0 0 0 0 0.309804 0 0 0 0 0.356863 0 0 0 0.12 0"/>
<feBlend mode="normal" in2="shape" result="effect2_innerShadow_246_2526"/>
</filter>
</defs>
</svg>
